{
.appVersion = "3151";
.formatVersion = 3;
classes = (
{
automatic = 1;
code = "A Aacute Abreve Acircumflex Adieresis Agrave Amacron Aogonek Aring Aringacute Atilde AE AEacute B C Cacute Ccaron Ccedilla Ccircumflex Cdotaccent D Eth Dcaron Dcroat E Eacute Ebreve Ecaron Ecircumflex Edieresis Edotaccent Egrave Emacron Eogonek F G Gbreve Gcircumflex Gcommaaccent Gdotaccent H Hbar Hcircumflex I IJ Iacute Ibreve Icircumflex Idieresis Idotaccent Igrave Imacron Iogonek Itilde J Jcircumflex K Kcommaaccent L Lacute Lcaron Lcommaaccent Ldot Lslash M N Nacute Ncaron Ncommaaccent Ntilde Eng O Oacute Obreve Ocircumflex Odieresis Ograve Ohungarumlaut Omacron Oslash Oslashacute Otilde OE P Thorn Q R Racute Rcaron Rcommaaccent S Sacute Scaron Scedilla Scircumflex Scommaaccent T Tbar Tcaron Tcedilla Tcommaaccent U Uacute Ubreve Ucircumflex Udieresis Ugrave Uhungarumlaut Umacron Uogonek Uring Utilde V W Wacute Wcircumflex Wdieresis Wgrave X Y Yacute Ycircumflex Ydieresis Ygrave Z Zacute Zcaron Zdotaccent Delta Omega";
name = Uppercase;
}
);
customParameters = (
{
name = fsType;
value = (
);
},
{
name = "Use Typo Metrics";
value = 1;
}
);
date = "2023-03-10 11:06:08 +0000";
familyName = "Pathway Gothic One";
featurePrefixes = (
{
automatic = 1;
code = "languagesystem DFLT dflt;

languagesystem latn dflt;
languagesystem latn ROM;
languagesystem latn MOL;
languagesystem latn CAT;
";
name = Languagesystems;
}
);
features = (
{
automatic = 1;
code = "feature locl;
feature subs;
feature sinf;
feature sups;
feature frac;
feature ordn;
";
tag = aalt;
},
{
automatic = 1;
code = "lookup ccmp_latn_1 {
	sub fi by f i;
	sub fl by f l;
} ccmp_latn_1;

script latn;
lookup ccmp_latn_1;
";
tag = ccmp;
},
{
automatic = 1;
code = "lookup locl_latn_0 {
	script latn;
	language ROM;
	sub Scedilla by Scommaaccent;
	sub scedilla by scommaaccent;
	sub Tcedilla by Tcommaaccent;
	sub tcedilla by tcommaaccent;
	language MOL;
	sub Scedilla by Scommaaccent;
	sub scedilla by scommaaccent;

glyphs = (
{
glyphname = A;
lastChange = "2023-03-10 12:35:58 +0000";
layers = (
{
anchors = (
{
name = bottom;
pos = (197,0);
},
{
name = ogonek;
pos = (355,10);
},
{
name = top;
pos = (197,700);
}
);
background = {
shapes = (
{
closed = 1;
nodes = (
(378,0,l),
(250,700,l),
(144,700,l),
(16,0,l),
(96,0,l),
(126,182,l),
(267,182,l),
(298,0,l,{
name = hr00;
})
);
},
{
closed = 1;
nodes = (
(256,246,l),
(137,246,l),
(197,599,l)
);
}
);
};
layerId = master01;
shapes = (
{
closed = 1;
nodes = (
(378,0,l),
(250,700,l),
(144,700,l),
(16,0,l),
(96,0,l),
(126,182,l),
(267,182,l),
(298,0,l,{
name = hr00;
})
);
},
{
closed = 1;
nodes = (
(256,246,l),
(137,246,l),
(197,599,l)
);
}
);
width = 394;
}
);
unicode = 65;
},
{
glyphname = Aacute;
lastChange = "2023-03-10 12:36:08 +0000";
layers = (
{
background = {
shapes = (
{
closed = 1;
nodes = (
(378,0,l),
(250,700,l),
(144,700,l),
(16,0,l),
(96,0,l),
(126,182,l),
(267,182,l),
(298,0,l,{
name = hr00;
})
);
},
{
closed = 1;
nodes = (
(256,246,l),
(137,246,l),
(197,599,l)
);
},
{
closed = 1;
nodes = (
(138,762,l),
(281,849,l),
(246,916,l),
(116,798,l,{
name = hr00;
})
);
}
);
};
layerId = master01;
shapes = (
{
ref = A;
},
{
pos = (52,160);
ref = acutecomb;
}
);
width = 394;
}
);
unicode = 193;
},
{
glyphname = Abreve;
lastChange = "2023-03-10 12:36:08 +0000";
layers = (
{
background = {
shapes = (
{
closed = 1;
nodes = (
(378,0,l),
(250,700,l),
(144,700,l),
(16,0,l),
(96,0,l),
(126,182,l),
(267,182,l),
(298,0,l,{
name = hr00;
})
);
},
{
closed = 1;
nodes = (
(256,246,l),
(137,246,l),
(197,599,l)
);
},
{
closed = 1;
nodes = (
(206,773,ls),
(265,773,o),
(290,807,o),
(290,888,c),
(248,888,l),
(248,857,o),
(233,841,o),
(204,841,cs),
(190,841,ls),
(157,841,o),
(145,854,o),
(145,888,c),
(104,888,l),
(104,807,o),
(128,773,o),
(187,773,cs,{
name = hr00;
})
);
}
);
};
layerId = master01;
shapes = (
{
ref = A;
},
{
pos = (62,160);
ref = brevecomb;
}
);
width = 394;
}
);
unicode = 258;
},
{
glyphname = Acircumflex;
lastChange = "2023-03-10 12:36:08 +0000";
layers = (
{
background = {
shapes = (
{
closed = 1;
nodes = (
(378,0,l),
(250,700,l),
(144,700,l),
(16,0,l),
(96,0,l),
(126,182,l),
(267,182,l),
(298,0,l,{
name = hr00;
})
);
},
{
closed = 1;
nodes = (
(256,246,l),
(137,246,l),
(197,599,l)
);
},
{
closed = 1;
nodes = (
(187,910,l),
(97,794,l),
(120,760,l),
(197,830,l),
(274,760,l),
(298,794,l),
(206,910,l,{
name = hr00;
})
);
}
);
};
layerId = master01;
shapes = (
{
ref = A;
},
{
pos = (65,160);
ref = circumflexcomb;
}
);
width = 394;
}
);
unicode = 194;
},
{
glyphname = Adieresis;
lastChange = "2023-03-10 12:36:08 +0000";
layers = (
{
background = {
shapes = (
{
closed = 1;
nodes = (
(378,0,l),
(250,700,l),
(144,700,l),
(16,0,l),
(96,0,l),
(126,182,l),
(267,182,l),
(298,0,l,{
name = hr00;
})
);
},
{
closed = 1;
nodes = (
(256,246,l),
(137,246,l),
(197,599,l)
);
},
{
closed = 1;
nodes = (
(169,806,l),
(169,900,l),
(88,900,l),
(88,806,l,{
name = hr00;
})
);
},
{
closed = 1;
nodes = (
(308,806,l),
(308,900,l),
(228,900,l),
(228,806,l)
);
}
);
};
layerId = master01;
shapes = (
{
ref = A;
},
{
pos = (33,160);
ref = dieresiscomb;
}
);
width = 394;
}
);
unicode = 196;
},
{
glyphname = Agrave;
lastChange = "2023-03-10 12:36:08 +0000";
layers = (
{
background = {
shapes = (
{
closed = 1;
nodes = (
(378,0,l),
(250,700,l),
(144,700,l),
(16,0,l),
(96,0,l),
(126,182,l),
(267,182,l),
(298,0,l,{
name = hr00;
})
);
},
{
closed = 1;
nodes = (
(256,246,l),
(137,246,l),
(197,599,l)
);
},
{
closed = 1;
nodes = (
(259,762,l),
(116,849,l),
(151,916,l),
(281,798,l,{
name = hr00;
})
);
}
);
};
layerId = master01;
shapes = (
{
ref = A;
},
{
pos = (52,160);
ref = gravecomb;
}
);
width = 394;
}
);
unicode = 192;
},
{
glyphname = Amacron;
lastChange = "2023-03-10 12:36:08 +0000";
layers = (
{
background = {
shapes = (
{
closed = 1;
nodes = (
(378,0,l),
(250,700,l),
(144,700,l),
(16,0,l),
(96,0,l),
(126,182,l),
(267,182,l),
(298,0,l,{
name = hr00;
})
);
},
{
closed = 1;
nodes = (
(256,246,l),
(137,246,l),
(197,599,l)
);
},
{
closed = 1;
nodes = (
(292,802,l),
(292,868,l),
(102,868,l),
(102,802,l,{
name = hr00;
})
);
}
);
};
layerId = master01;
shapes = (
{
ref = A;
},
{
pos = (70,160);
ref = macroncomb;
}
);
width = 394;
}
);
unicode = 256;
},
{
glyphname = Aogonek;
lastChange = "2023-03-10 12:36:08 +0000";
layers = (
{
background = {
shapes = (
{
closed = 1;
nodes = (
(378,0,l),
(250,700,l),
(144,700,l),
(16,0,l),
(96,0,l),
(126,182,l),
(267,182,l),
(298,0,l,{
name = hr00;
})
);
},
{
closed = 1;
nodes = (
(256,246,l),
(137,246,l),
(197,599,l)
);
},
{
closed = 1;
nodes = (
(353,-198,o),
(382,-163,o),
(400,-90,c),
(359,-81,l),
(346,-126,o),
(333,-144,o),
(315,-144,cs),
(303,-144,o),
(298,-133,o),
(298,-108,cs),
(298,-77,o),
(318,-32,o),
(345,0,c),
(298,0,l),
(260,-38,o),
(239,-79,o),
(239,-117,cs),
(239,-170,o),
(263,-198,o),
(308,-198,c,{
name = hr00;
})
);
}
);
};
layerId = master01;
shapes = (
{
ref = A;
},
{
pos = (152,10);
ref = ogonekcomb;
}
);
width = 394;
}
);
unicode = 260;
},
{
glyphname = Aring;
lastChange = "2023-03-10 12:36:08 +0000";
layers = (
{
background = {
shapes = (
{
closed = 1;
nodes = (
(378,0,l),
(250,700,l),
(144,700,l),
(16,0,l),
(96,0,l),
(126,182,l),
(267,182,l),
(298,0,l,{
name = hr00;
})
);
},
{
closed = 1;
nodes = (
(256,246,l),
(137,246,l),
(197,599,l)
);
},
{
closed = 1;
nodes = (
(251,746,o),
(274,776,o),
(274,843,cs),
(274,857,l),
(274,924,o),
(251,954,o),
(198,954,cs),
(145,954,o),
(122,924,o),
(122,857,cs),
(122,843,ls),
(122,776,o),
(145,746,o),
(198,746,c,{
name = hr00;
})
);
},
{
closed = 1;
nodes = (
(225,804,o),
(216,788,o),
(198,788,cs),
(180,788,o),
(171,804,o),
(171,837,cs),
(171,863,ls),
(171,896,o),
(180,912,o),
(198,912,cs),
(216,912,o),
(225,896,o),
(225,863,cs),
(225,837,l)
);
}
);
};
layerId = master01;
shapes = (
{
ref = A;
},
{
pos = (97,160);
ref = ringcomb;
}
);
width = 394;
}
);
unicode = 197;
},
{
glyphname = Aringacute;
lastChange = "2023-03-10 12:36:08 +0000";
layers = (
{
background = {
shapes = (
{
closed = 1;
nodes = (
(378,0,l),
(250,700,l),
(144,700,l),
(16,0,l),
(96,0,l),
(126,182,l),
(267,182,l),
(298,0,l,{
name = hr00;
})
);
},
{
closed = 1;
nodes = (
(256,246,l),
(137,246,l),
(197,599,l)
);
},
{
closed = 1;
nodes = (
(255,746,o),
(278,776,o),
(278,843,cs),
(278,857,ls),
(278,876,o),
(277,889,o),
(274,900,c),
(367,947,l),
(336,1004,l),
(252,939,l),
(240,949,o),
(223,954,o),
(202,954,cs),
(149,954,o),
(126,924,o),
(126,857,cs),
(126,843,ls),
(126,776,o),
(149,746,o),
(202,746,c,{
name = hr00;
})
);
},
{
closed = 1;
nodes = (
(229,804,o),
(220,788,o),
(202,788,cs),
(184,788,o),
(175,804,o),
(175,837,cs),
(175,863,ls),
(175,896,o),
(184,912,o),
(202,912,cs),
(220,912,o),
(229,896,o),
(229,863,cs),
(229,837,ls)
);
}
);
};
layerId = master01;
shapes = (
{
ref = A;
},
{
pos = (97,160);
ref = ringcomb;
},
{
pos = (52,414);
ref = acutecomb;
}
);
width = 394;
}
);
unicode = 506;
},
{
glyphname = Atilde;
lastChange = "2023-03-10 12:36:08 +0000";
layers = (
{
background = {
shapes = (
{
closed = 1;
nodes = (
(378,0,l),
(250,700,l),
(144,700,l),
(16,0,l),
(96,0,l),
(126,182,l),
(267,182,l),
(298,0,l,{
name = hr00;
})
);
},
{
closed = 1;
nodes = (
(256,246,l),
(137,246,l),
(197,599,l)
);
},
{
closed = 1;
nodes = (
(265,867,o),
(252,860,o),
(238,860,cs),
(214,860,o),
(188,888,o),
(161,888,cs,{
name = hr01;
}),
(125,888,o),
(101,850,o),
(88,825,c),
(111,787,l),
(129,810,o),
(142,818,o),
(156,818,cs),
(180,818,o),
(206,789,o),
(233,789,cs,{
name = hr02;
}),
(269,789,o),
(292,828,o),
(306,852,c),
(282,890,l)
);
}
);
};
layerId = master01;
shapes = (
{
ref = A;
},
{
pos = (47,160);
ref = tildecomb;
}
);
width = 394;
}
);
unicode = 195;
},
{
glyphname = AE;
lastChange = "2023-03-10 12:35:58 +0000";
layers = (
{
anchors = (
{
name = bottom;
pos = (296,0);
},
{
name = top;
pos = (296,700);
}
);
background = {
shapes = (
{
closed = 1;
nodes = (
(549,0,l),
(549,64,l),
(373,64,l),
(373,299,l),
(531,299,l),
(531,363,l),
(373,363,l),
(373,636,l),
(546,636,l),
(546,700,l),
(236,700,l),
(-9,0,l),
(76,0,l),
(180,299,l),
(294,299,l),
(294,0,l,{
name = hr00;
})
);
},
{
closed = 1;
nodes = (
(294,625,l),
(294,363,l),
(202,363,l)
);
}
);
};
layerId = master01;
shapes = (
{
closed = 1;
nodes = (
(549,0,l),
(549,64,l),
(373,64,l),
(373,299,l),
(531,299,l),
(531,363,l),
(373,363,l),
(373,636,l),
(546,636,l),
(546,700,l),
(236,700,l),
(-9,0,l),
(76,0,l),
(180,299,l),
(294,299,l),
(294,0,l,{
name = hr00;
})
);
},
{
closed = 1;
nodes = (
(294,625,l),
(294,363,l),
(202,363,l)
);
}
);
width = 591;
}
);
unicode = 198;
},
{
glyphname = AEacute;
lastChange = "2023-03-10 12:36:08 +0000";
layers = (
{
background = {
shapes = (
{
closed = 1;
nodes = (
(549,0,l),
(549,64,l),
(373,64,l),
(373,299,l),
(531,299,l),
(531,363,l),
(373,363,l),
(373,636,l),
(546,636,l),
(546,700,l),
(236,700,l),
(-9,0,l),
(76,0,l),
(180,299,l),
(294,299,l),
(294,0,l,{
name = hr00;
})
);
},
{
closed = 1;
nodes = (
(294,625,l),
(294,363,l),
(202,363,l)
);
},
{
closed = 1;
nodes = (
(333,762,l),
(476,849,l),
(441,916,l),
(311,798,l,{
name = hr00;
})
);
}
);
};
layerId = master01;
shapes = (
{
ref = AE;
},
{
pos = (151,160);
ref = acutecomb;
}
);
width = 591;
}
);
unicode = 508;
},
{
glyphname = B;
lastChange = "2023-03-10 12:35:58 +0000";
layers = (
{
anchors = (
{
name = bottom;
pos = (191,0);
},
{
name = center;
pos = (191,350);
},
{
name = top;
pos = (191,700);
}
);
background = {
shapes = (
{
closed = 1;
nodes = (
(193,0,ls),
(298,0,o),
(348,64,o),
(348,200,cs),
(348,294,o),
(316,345,o),
(248,361,c),
(305,380,o),
(333,429,o),
(333,511,cs,{
name = hr01;
}),
(333,641,o),
(284,700,o),
(177,700,cs),
(63,700,l),
(63,0,l)
);
},
{
closed = 1;
nodes = (
(143,333,l),
(191,333,ls),
(244,333,o),
(270,292,o),
(270,208,cs),
(270,181,ls),
(270,100,o),
(245,63,o),
(191,63,cs),
(143,63,l)
);
},
{
closed = 1;
nodes = (
(143,637,l),
(182,637,ls),
(235,637,o),
(259,603,o),
(259,527,cs),
(259,503,ls),
(259,425,o),
(234,386,o),
(182,386,cs),
(143,386,l)
);
}
);
};
layerId = master01;
shapes = (
{
closed = 1;
nodes = (
(193,0,ls),
(298,0,o),
(348,64,o),
(348,200,cs),
(348,294,o),
(316,345,o),
(248,361,c),
(305,380,o),
(333,429,o),
(333,511,cs,{
name = hr01;
}),
(333,641,o),
(284,700,o),
(177,700,cs),
(63,700,l),
(63,0,l)
);
},
{
closed = 1;
nodes = (
(143,333,l),
(191,333,ls),
(244,333,o),
(270,292,o),
(270,208,cs),
(270,181,ls),
(270,100,o),
(245,63,o),
(191,63,cs),
(143,63,l)
);
},
{
closed = 1;
nodes = (
(143,637,l),
(182,637,ls),
(235,637,o),
(259,603,o),
(259,527,cs),
(259,503,ls),
(259,425,o),
(234,386,o),
(182,386,cs),
(143,386,l)
);
}
);
width = 382;
}
);
unicode = 66;
},
{
glyphname = C;
lastChange = "2023-03-10 12:35:58 +0000";
layers = (
{
anchors = (
{
name = bottom;
pos = (187,0);
},
{
name = top;
pos = (187,700);
}
);
background = {
shapes = (
{
closed = 1;
nodes = (
(291,-15,o),
(335,41,o),
(347,168,c),
(277,177,l),
(270,84,o),
(249,50,o),
(202,50,cs),
(150,50,o),
(128,93,o),
(128,193,cs),
(128,503,ls),
(128,606,o),
(150,650,o),
(202,650,cs),
(243,650,o),
(263,618,o),
(270,537,c),
(343,555,l),
(333,666,o),
(290,715,o),
(204,715,cs),
(96,715,o),
(49,646,o),
(49,486,cs),
(49,214,ls),
(49,54,o),
(96,-15,o),
(204,-15,c,{
name = hr00;
})
);
}
);
};
layerId = master01;
shapes = (
{
closed = 1;
nodes = (
(291,-15,o),
(335,41,o),
(347,168,c),
(277,177,l),
(270,84,o),
(249,50,o),
(202,50,cs),
(150,50,o),
(128,93,o),
(128,193,cs),
(128,503,ls),
(128,606,o),
(150,650,o),
(202,650,cs),
(243,650,o),
(263,618,o),
(270,537,c),
(343,555,l),
(333,666,o),
(290,715,o),
(204,715,cs),
(96,715,o),
(49,646,o),
(49,486,cs),
(49,214,ls),
(49,54,o),
(96,-15,o),
(204,-15,c,{
name = hr00;
})
);
}
);
width = 374;
}
);
unicode = 67;
},
{
glyphname = Cacute;
lastChange = "2023-03-10 12:36:08 +0000";
layers = (
{
background = {
shapes = (
{
closed = 1;
nodes = (
(291,-15,o),
(335,41,o),
(347,168,c),
(277,177,l),
(270,84,o),
(249,50,o),
(202,50,cs),
(150,50,o),
(128,93,o),
(128,193,cs),
(128,503,ls),
(128,606,o),
(150,650,o),
(202,650,cs),
(243,650,o),
(263,618,o),
(270,537,c),
(343,555,l),
(333,666,o),
(290,715,o),
(204,715,cs),
(96,715,o),
(49,646,o),
(49,486,cs),
(49,214,ls),
(49,54,o),
(96,-15,o),
(204,-15,c,{
name = hr00;
})
);
},
{
closed = 1;
nodes = (
(126,762,l),
(269,849,l),
(234,916,l),
(104,798,l,{
name = hr00;
})
);
}
);
};
layerId = master01;
shapes = (
{
ref = C;
},
{
pos = (42,160);
ref = acutecomb;
}
);
width = 374;
}
);
unicode = 262;
},
{
glyphname = Ccaron;
lastChange = "2023-03-10 12:36:08 +0000";
layers = (
{
background = {
shapes = (
{
closed = 1;
nodes = (
(291,-15,o),
(335,41,o),
(347,168,c),
(277,177,l),
(270,84,o),
(249,50,o),
(202,50,cs),
(150,50,o),
(128,93,o),
(128,193,cs),
(128,503,ls),
(128,606,o),
(150,650,o),
(202,650,cs),
(243,650,o),
(263,618,o),
(270,537,c),
(343,555,l),
(333,666,o),
(290,715,o),
(204,715,cs),
(96,715,o),
(49,646,o),
(49,486,cs),
(49,214,ls),
(49,54,o),
(96,-15,o),
(204,-15,c,{
name = hr00;
})
);
},
{
closed = 1;
nodes = (
(215,760,l),
(307,875,l),
(283,910,l),
(206,840,l),
(129,910,l),
(106,875,l),
(196,760,l,{
name = hr00;
})
);
}
);
};
layerId = master01;
shapes = (
{
ref = C;
},
{
pos = (55,160);
ref = caroncomb;
}
);
width = 374;
}
);
unicode = 268;
},
{
glyphname = Ccedilla;
lastChange = "2023-03-10 12:36:08 +0000";
layers = (
{
background = {
shapes = (
{
closed = 1;
nodes = (
(291,-15,o),
(335,41,o),
(347,168,c),
(277,177,l),
(270,84,o),
(249,50,o),
(202,50,cs),
(150,50,o),
(128,93,o),
(128,193,cs),
(128,503,ls),
(128,606,o),
(150,650,o),
(202,650,cs),
(243,650,o),
(263,618,o),
(270,537,c),
(343,555,l),
(333,666,o),
(290,715,o),
(204,715,cs),
(96,715,o),
(49,646,o),
(49,486,cs),
(49,214,ls),
(49,54,o),
(96,-15,o),
(204,-15,c,{
name = hr00;
})
);
},
{
closed = 1;
nodes = (
(237,-195,o),
(258,-171,o),
(258,-122,cs),
(258,-83,o),
(242,-61,o),
(203,-49,c),
(208,0,l),
(177,0,l),
(167,-71,l),
(198,-80,o),
(211,-93,o),
(211,-114,cs),
(211,-124,ls),
(211,-146,o),
(206,-154,o),
(192,-154,cs),
(179,-154,o),
(174,-146,o),
(172,-120,c),
(131,-128,l),
(135,-173,o),
(155,-195,o),
(192,-195,c,{
name = hr00;
})
);
}
);
};
layerId = master01;
shapes = (
{
ref = C;
},
{
pos = (100,0);
ref = cedillacomb;
}
);
width = 374;
}
);
unicode = 199;
},
{
glyphname = Ccircumflex;
lastChange = "2023-03-10 12:36:08 +0000";
layers = (
{
background = {
shapes = (
{
closed = 1;
nodes = (
(291,-15,o),
(335,41,o),
(347,168,c),
(277,177,l),
(270,84,o),
(249,50,o),
(202,50,cs),
(150,50,o),
(128,93,o),
(128,193,cs),
(128,503,ls),
(128,606,o),
(150,650,o),
(202,650,cs),
(243,650,o),
(263,618,o),
(270,537,c),
(343,555,l),
(333,666,o),
(290,715,o),
(204,715,cs),
(96,715,o),
(49,646,o),
(49,486,cs),
(49,214,ls),
(49,54,o),
(96,-15,o),
(204,-15,c,{
name = hr00;
})
);
},
{
closed = 1;
nodes = (
(176,910,l),
(86,794,l),
(109,760,l),
(186,830,l),
(263,760,l),
(287,794,l),
(195,910,l,{
name = hr00;
})
);
}
);
};
layerId = master01;
shapes = (
{
ref = C;
},
{
pos = (55,160);
ref = circumflexcomb;
}
);
width = 374;
}
);
unicode = 264;
},
{
glyphname = Cdotaccent;
lastChange = "2023-03-10 12:36:08 +0000";
layers = (
{
background = {
shapes = (
{
closed = 1;
nodes = (
(291,-15,o),
(335,41,o),
(347,168,c),
(277,177,l),
(270,84,o),
(249,50,o),
(202,50,cs),
(150,50,o),
(128,93,o),
(128,193,cs),
(128,503,ls),
(128,606,o),
(150,650,o),
(202,650,cs),
(243,650,o),
(263,618,o),
(270,537,c),
(343,555,l),
(333,666,o),
(290,715,o),
(204,715,cs),
(96,715,o),
(49,646,o),
(49,486,cs),
(49,214,ls),
(49,54,o),
(96,-15,o),
(204,-15,c,{
name = hr00;
})
);
},
{
closed = 1;
nodes = (
(228,806,l),
(228,900,l),
(145,900,l),
(145,806,l,{
name = hr00;
})
);
}
);
};
layerId = master01;
shapes = (
{
ref = C;
},
{
pos = (85,160);
ref = dotaccentcomb;
}
);
width = 374;
}
);
unicode = 266;
},
{
glyphname = D;
lastChange = "2023-03-10 12:35:58 +0000";
layers = (
{
anchors = (
{
name = bottom;
pos = (203,0);
},
{
name = center;
pos = (203,350);
},
{
name = top;
pos = (203,700);
}
);
background = {
shapes = (
{
closed = 1;
nodes = (
(199,0,ls),
(308,0,o),
(357,69,o),
(357,224,cs),
(357,476,ls),
(357,631,o),
(308,700,o),
(199,700,cs),
(63,700,l),
(63,0,l,{
name = hr00;
})
);
},
{
closed = 1;
nodes = (
(143,636,l),
(199,636,ls),
(252,636,o),
(278,589,o),
(278,493,cs),
(278,206,ls),
(278,110,o),
(252,63,o),
(199,63,cs),
(143,63,l)
);
}
);
};
layerId = master01;
shapes = (
{
closed = 1;
nodes = (
(199,0,ls),
(308,0,o),
(357,69,o),
(357,224,cs),
(357,476,ls),
(357,631,o),
(308,700,o),
(199,700,cs),
(63,700,l),
(63,0,l,{
name = hr00;
})
);
},
{
closed = 1;
nodes = (
(143,636,l),
(199,636,ls),
(252,636,o),
(278,589,o),
(278,493,cs),
(278,206,ls),
(278,110,o),
(252,63,o),
(199,63,cs),
(143,63,l)
);
}
);
width = 406;
}
);
unicode = 68;
},
{
glyphname = Eth;
lastChange = "2023-03-10 12:30:02 +0000";
layers = (
{
background = {
shapes = (
{
closed = 1;
nodes = (
(221,324,l),
(221,376,l),
(16,376,l),
(16,324,l)
);
},
{
closed = 1;
nodes = (
(199,0,ls),
(308,0,o),
(357,69,o),
(357,224,cs),
(357,476,ls),
(357,631,o),
(308,700,o),
(199,700,cs),
(63,700,l),
(63,0,l,{
name = hr00;
})
);
},
{
closed = 1;
nodes = (
(143,636,l),
(199,636,ls),
(252,636,o),
(278,589,o),
(278,493,cs),
(278,206,ls),
(278,110,o),
(252,63,o),
(199,63,cs),
(143,63,l)
);
},
{
closed = 1;
nodes = (
(222,375,l),
(17,375,l),
(17,325,l),
(222,325,l,{
name = hr00;
})
);
}
);
};
layerId = master01;
shapes = (
{
closed = 1;
nodes = (
(221,324,l),
(221,376,l),
(16,376,l),
(16,324,l)
);
},
{
ref = D;
},
{
pos = (-43,8);
ref = barra;
scale = (0.85,1);
}
);
width = 406;
}
);
unicode = 208;
},
{
glyphname = Dcaron;
lastChange = "2023-03-10 12:36:08 +0000";
layers = (
{
background = {
shapes = (
{
closed = 1;
nodes = (
(199,0,ls),
(308,0,o),
(357,69,o),
(357,224,cs),
(357,476,ls),
(357,631,o),
(308,700,o),
(199,700,cs),
(63,700,l),
(63,0,l,{
name = hr00;
})
);
},
{
closed = 1;
nodes = (
(143,636,l),
(199,636,ls),
(252,636,o),
(278,589,o),
(278,493,cs),
(278,206,ls),
(278,110,o),
(252,63,o),
(199,63,cs),
(143,63,l)
);
},
{
closed = 1;
nodes = (
(211,760,l),
(303,875,l),
(279,910,l),
(202,840,l),
(125,910,l),
(102,875,l),
(192,760,l,{
name = hr00;
})
);
}
);
};
layerId = master01;
shapes = (
{
ref = D;
},
{
pos = (71,160);
ref = caroncomb;
}
);
width = 406;
}
);
unicode = 270;
},
{
glyphname = Dcroat;
lastChange = "2023-03-10 12:36:08 +0000";
layers = (
{
background = {
shapes = (
{
closed = 1;
nodes = (
(199,0,ls),
(308,0,o),
(357,69,o),
(357,224,cs),
(357,476,ls),
(357,631,o),
(308,700,o),
(199,700,cs),
(63,700,l),
(63,0,l,{
name = hr00;
})
);
},
{
closed = 1;
nodes = (
(143,636,l),
(199,636,ls),
(252,636,o),
(278,589,o),
(278,493,cs),
(278,206,ls),
(278,110,o),
(252,63,o),
(199,63,cs),
(143,63,l)
);
},
{
closed = 1;
nodes = (
(222,375,l),
(17,375,l),
(17,325,l),
(222,325,l,{
name = hr00;
})
);
}
);
};
layerId = master01;
shapes = (
{
ref = Eth;
}
);
width = 406;
}
);
unicode = 272;
},
{
glyphname = E;
lastChange = "2023-03-10 12:35:58 +0000";
layers = (
{
anchors = (
{
name = bottom;
pos = (180,0);
},
{
name = ogonek;
pos = (323,10);
},
{
name = top;
pos = (180,700);
},
{
name = topleft;
pos = (20,700);
}
);
background = {
shapes = (
{
closed = 1;
nodes = (
(299,317,l),
(299,381,l),
(143,381,l),
(143,636,l),
(314,636,l),
(314,700,l),
(63,700,l),
(63,0,l),
(317,0,l),
(317,64,l),
(143,64,l),
(143,317,l,{
name = hr00;
})
);
}
);
};
layerId = master01;
shapes = (
{
closed = 1;
nodes = (
(299,317,l),
(299,381,l),
(143,381,l),
(143,636,l),
(314,636,l),
(314,700,l),
(63,700,l),
(63,0,l),
(317,0,l),
(317,64,l),
(143,64,l),
(143,317,l,{
name = hr00;
})
);
}
);
width = 359;
}
);
unicode = 69;
},
{
glyphname = Eacute;
lastChange = "2023-03-10 12:36:08 +0000";
layers = (
{
background = {
shapes = (
{
closed = 1;
nodes = (
(299,317,l),
(299,381,l),
(143,381,l),
(143,636,l),
(314,636,l),
(314,700,l),
(63,700,l),
(63,0,l),
(317,0,l),
(317,64,l),
(143,64,l),
(143,317,l,{
name = hr00;
})
);
},
{
closed = 1;
nodes = (
(142,762,l),
(285,849,l),
(250,916,l),
(120,798,l,{
name = hr00;
})
);
}
);
};
layerId = master01;
shapes = (
{
ref = E;
},
{
pos = (35,160);
ref = acutecomb;
}
);
width = 359;
}
);
unicode = 201;
},
{
glyphname = Ebreve;
lastChange = "2023-03-10 12:36:08 +0000";
layers = (
{
background = {
shapes = (
{
closed = 1;
nodes = (
(299,317,l),
(299,381,l),
(143,381,l),
(143,636,l),
(314,636,l),
(314,700,l),
(63,700,l),
(63,0,l),
(317,0,l),
(317,64,l),
(143,64,l),
(143,317,l,{
name = hr00;
})
);
},
{
closed = 1;
nodes = (
(188,773,ls),
(247,773,o),
(272,807,o),
(272,888,c),
(230,888,l),
(230,857,o),
(215,841,o),
(186,841,cs),
(172,841,ls),
(139,841,o),
(127,854,o),
(127,888,c),
(86,888,l),
(86,807,o),
(110,773,o),
(169,773,cs,{
name = hr00;
})
);
}
);
};
layerId = master01;
shapes = (
{
ref = E;
},
{
pos = (45,160);
ref = brevecomb;
}
);
width = 359;
}
);
unicode = 276;
},
{
glyphname = Ecaron;
lastChange = "2023-03-10 12:36:08 +0000";
layers = (
{
background = {
shapes = (
{
closed = 1;
nodes = (
(299,317,l),
(299,381,l),
(143,381,l),
(143,636,l),
(314,636,l),
(314,700,l),
(63,700,l),
(63,0,l),
(317,0,l),
(317,64,l),
(143,64,l),
(143,317,l,{
name = hr00;
})
);
},
{
closed = 1;
nodes = (
(188,760,l),
(280,875,l),
(256,910,l),
(179,840,l),
(102,910,l),
(79,875,l),
(169,760,l,{
name = hr00;
})
);
}
);
};
layerId = master01;
shapes = (
{
ref = E;
},
{
pos = (48,160);
ref = caroncomb;
}
);
width = 359;
}
);
unicode = 282;
},
{
glyphname = Ecircumflex;
lastChange = "2023-03-10 12:36:08 +0000";
layers = (
{
background = {
shapes = (
{
closed = 1;
nodes = (
(299,317,l),
(299,381,l),
(143,381,l),
(143,636,l),
(314,636,l),
(314,700,l),
(63,700,l),
(63,0,l),
(317,0,l),
(317,64,l),
(143,64,l),
(143,317,l,{
name = hr00;
})
);
},
{
closed = 1;
nodes = (
(184,910,l),
(94,794,l),
(117,760,l),
(194,830,l),
(271,760,l),
(295,794,l),
(203,910,l,{
name = hr00;
})
);
}
);
};
layerId = master01;
shapes = (
{
ref = E;
},
{
pos = (48,160);
ref = circumflexcomb;
}
);
width = 359;
}
);
unicode = 202;
},
{
glyphname = Edieresis;
lastChange = "2023-03-10 12:36:08 +0000";
layers = (
{
background = {
shapes = (
{
closed = 1;
nodes = (
(299,317,l),
(299,381,l),
(143,381,l),
(143,636,l),
(314,636,l),
(314,700,l),
(63,700,l),
(63,0,l),
(317,0,l),
(317,64,l),
(143,64,l),
(143,317,l,{
name = hr00;
})
);
},
{
closed = 1;
nodes = (
(151,806,l),
(151,900,l),
(70,900,l),
(70,806,l,{
name = hr00;
})
);
},
{
closed = 1;
nodes = (
(290,806,l),
(290,900,l),
(210,900,l),
(210,806,l)
);
}
);
};
layerId = master01;
shapes = (
{
ref = E;
},
{
pos = (16,160);
ref = dieresiscomb;
}
);
width = 359;
}
);
unicode = 203;
},
{
glyphname = Edotaccent;
lastChange = "2023-03-10 12:36:08 +0000";
layers = (
{
background = {
shapes = (
{
closed = 1;
nodes = (
(299,317,l),
(299,381,l),
(143,381,l),
(143,636,l),
(314,636,l),
(314,700,l),
(63,700,l),
(63,0,l),
(317,0,l),
(317,64,l),
(143,64,l),
(143,317,l,{
name = hr00;
})
);
},
{
closed = 1;
nodes = (
(221,806,l),
(221,900,l),
(138,900,l),
(138,806,l,{
name = hr00;
})
);
}
);
};
layerId = master01;
shapes = (
{
ref = E;
},
{
pos = (78,160);
ref = dotaccentcomb;
}
);
width = 359;
}
);
unicode = 278;
},
{
glyphname = Egrave;
lastChange = "2023-03-10 12:36:08 +0000";
layers = (
{
background = {
shapes = (
{
closed = 1;
nodes = (
(299,317,l),
(299,381,l),
(143,381,l),
(143,636,l),
(314,636,l),
(314,700,l),
(63,700,l),
(63,0,l),
(317,0,l),
(317,64,l),
(143,64,l),
(143,317,l,{
name = hr00;
})
);
},
{
closed = 1;
nodes = (
(241,762,l),
(98,849,l),
(133,916,l),
(263,798,l,{
name = hr00;
})
);
}
);
};
layerId = master01;
shapes = (
{
ref = E;
},
{
pos = (35,160);
ref = gravecomb;
}
);
width = 359;
}
);
unicode = 200;
},
{
glyphname = Emacron;
lastChange = "2023-03-10 12:36:08 +0000";
layers = (
{
background = {
shapes = (
{
closed = 1;
nodes = (
(299,317,l),
(299,381,l),
(143,381,l),
(143,636,l),
(314,636,l),
(314,700,l),
(63,700,l),
(63,0,l),
(317,0,l),
(317,64,l),
(143,64,l),
(143,317,l,{
name = hr00;
})
);
},
{
closed = 1;
nodes = (
(274,802,l),
(274,868,l),
(84,868,l),
(84,802,l,{
name = hr00;
})
);
}
);
};
layerId = master01;
shapes = (
{
ref = E;
},
{
pos = (53,160);
ref = macroncomb;
}
);
width = 359;
}
);
unicode = 274;
},
{
glyphname = Eogonek;
lastChange = "2023-03-10 12:36:08 +0000";
layers = (
{
background = {
shapes = (
{
closed = 1;
nodes = (
(299,317,l),
(299,381,l),
(143,381,l),
(143,636,l),
(314,636,l),
(314,700,l),
(63,700,l),
(63,0,l),
(317,0,l),
(317,64,l),
(143,64,l),
(143,317,l,{
name = hr00;
})
);
},
{
closed = 1;
nodes = (
(325,-198,o),
(354,-163,o),
(372,-90,c),
(331,-81,l),
(318,-126,o),
(305,-144,o),
(287,-144,cs),
(275,-144,o),
(270,-133,o),
(270,-108,cs),
(270,-77,o),
(290,-32,o),
(317,0,c),
(270,0,l),
(232,-38,o),
(211,-79,o),
(211,-117,cs),
(211,-170,o),
(235,-198,o),
(280,-198,c,{
name = hr00;
})
);
}
);
};
layerId = master01;
shapes = (
{
ref = E;
},
{
pos = (120,10);
ref = ogonekcomb;
}
);
width = 359;
}
);
unicode = 280;
},
{
glyphname = F;
lastChange = "2023-03-10 12:35:58 +0000";
layers = (
{
anchors = (
{
name = bottom;
pos = (162,0);
},
{
name = top;
pos = (162,700);
}
);
background = {
shapes = (
{
closed = 1;
nodes = (
(288,317,l),
(288,381,l),
(143,381,l),
(143,636,l),
(303,636,l),
(303,700,l),
(63,700,l),
(63,0,l),
(143,0,l),
(143,317,l,{
name = hr00;
})
);
}
);
};
layerId = master01;
shapes = (
{
closed = 1;
nodes = (
(288,317,l),
(288,381,l),
(143,381,l),
(143,636,l),
(303,636,l),
(303,700,l),
(63,700,l),
(63,0,l),
(143,0,l),
(143,317,l,{
name = hr00;
})
);
}
);
width = 323;
}
);
unicode = 70;
},
{
glyphname = G;
lastChange = "2023-03-10 12:35:58 +0000";
layers = (
{
anchors = (
{
name = bottom;
pos = (204,0);
},
{
name = top;
pos = (204,700);
}
);
background = {
shapes = (
{
closed = 1;
nodes = (
(234,-15,o),
(269,11,o),
(289,66,c),
(303,1,l),
(352,1,l),
(352,371,l),
(195,371,l),
(195,307,l),
(277,307,l),
(277,185,ls),
(277,95,o),
(251,50,o),
(199,50,cs),
(150,50,o),
(128,95,o),
(128,194,cs),
(128,503,ls),
(128,606,o),
(150,650,o),
(202,650,cs),
(243,650,o),
(263,617,o),
(270,537,c),
(343,555,l),
(333,666,o),
(290,715,o),
(204,715,cs),
(96,715,o),
(49,646,o),
(49,486,cs),
(49,209,ls),
(49,54,o),
(90,-15,o),
(181,-15,c,{
name = hr00;
})
);
}
);
};
layerId = master01;
shapes = (
{
closed = 1;
nodes = (
(234,-15,o),
(269,11,o),
(289,66,c),
(303,1,l),
(352,1,l),
(352,371,l),
(195,371,l),
(195,307,l),
(277,307,l),
(277,185,ls),
(277,95,o),
(251,50,o),
(199,50,cs),
(150,50,o),
(128,95,o),
(128,194,cs),
(128,503,ls),
(128,606,o),
(150,650,o),
(202,650,cs),
(243,650,o),
(263,617,o),
(270,537,c),
(343,555,l),
(333,666,o),
(290,715,o),
(204,715,cs),
(96,715,o),
(49,646,o),
(49,486,cs),
(49,209,ls),
(49,54,o),
(90,-15,o),
(181,-15,c,{
name = hr00;
})
);
}
);
width = 408;
}
);
unicode = 71;
},
{
glyphname = Gbreve;
lastChange = "2023-03-10 12:36:08 +0000";
layers = (
{
background = {
shapes = (
{
closed = 1;
nodes = (
(234,-15,o),
(269,11,o),
(289,66,c),
(303,1,l),
(352,1,l),
(352,371,l),
(195,371,l),
(195,307,l),
(277,307,l),
(277,185,ls),
(277,95,o),
(251,50,o),
(199,50,cs),
(150,50,o),
(128,95,o),
(128,194,cs),
(128,503,ls),
(128,606,o),
(150,650,o),
(202,650,cs),
(243,650,o),
(263,617,o),
(270,537,c),
(343,555,l),
(333,666,o),
(290,715,o),
(204,715,cs),
(96,715,o),
(49,646,o),
(49,486,cs),
(49,209,ls),
(49,54,o),
(90,-15,o),
(181,-15,c,{
name = hr00;
})
);
},
{
closed = 1;
nodes = (
(213,773,ls),
(272,773,o),
(297,807,o),
(297,888,c),
(255,888,l),
(255,857,o),
(240,841,o),
(211,841,cs),
(197,841,ls),
(164,841,o),
(152,854,o),
(152,888,c),
(111,888,l),
(111,807,o),
(135,773,o),
(194,773,cs,{
name = hr00;
})
);
}
);
};
layerId = master01;
shapes = (
{
ref = G;
},
{
pos = (69,160);
ref = brevecomb;
}
);
width = 408;
}
);
unicode = 286;
},
{
glyphname = Gcircumflex;
lastChange = "2023-03-10 12:36:08 +0000";
layers = (
{
background = {
shapes = (
{
closed = 1;
nodes = (
(234,-15,o),
(269,11,o),
(289,66,c),
(303,1,l),
(352,1,l),
(352,371,l),
(195,371,l),
(195,307,l),
(277,307,l),
(277,185,ls),
(277,95,o),
(251,50,o),
(199,50,cs),
(150,50,o),
(128,95,o),
(128,194,cs),
(128,503,ls),
(128,606,o),
(150,650,o),
(202,650,cs),
(243,650,o),
(263,617,o),
(270,537,c),
(343,555,l),
(333,666,o),
(290,715,o),
(204,715,cs),
(96,715,o),
(49,646,o),
(49,486,cs),
(49,209,ls),
(49,54,o),
(90,-15,o),
(181,-15,c,{
name = hr00;
})
);
},
{
closed = 1;
nodes = (
(193,910,l),
(103,794,l),
(126,760,l),
(203,830,l),
(280,760,l),
(304,794,l),
(212,910,l,{
name = hr00;
})
);
}
);
};
layerId = master01;
shapes = (
{
ref = G;
},
{
pos = (72,160);
ref = circumflexcomb;
}
);
width = 408;
}
);
unicode = 284;
},
{
glyphname = Gcommaaccent;
lastChange = "2023-03-10 12:36:08 +0000";
layers = (
{
background = {
shapes = (
{
closed = 1;
nodes = (
(234,-15,o),
(269,11,o),
(289,66,c),
(303,1,l),
(352,1,l),
(352,371,l),
(195,371,l),
(195,307,l),
(277,307,l),
(277,185,ls),
(277,95,o),
(251,50,o),
(199,50,cs),
(150,50,o),
(128,95,o),
(128,194,cs),
(128,503,ls),
(128,606,o),
(150,650,o),
(202,650,cs),
(243,650,o),
(263,617,o),
(270,537,c),
(343,555,l),
(333,666,o),
(290,715,o),
(204,715,cs),
(96,715,o),
(49,646,o),
(49,486,cs),
(49,209,ls),
(49,54,o),
(90,-15,o),
(181,-15,c,{
name = hr00;
})
);
},
{
closed = 1;
nodes = (
(187,-132,l),
(175,-216,l),
(205,-222,l),
(244,-128,l),
(244,-50,l),
(165,-50,l),
(165,-132,l,{
name = hr00;
})
);
}
);
};
layerId = master01;
shapes = (
{
ref = G;
},
{
pos = (122,0);
ref = commaaccentcomb;
}
);
width = 408;
}
);
unicode = 290;
},
{
glyphname = Gdotaccent;
lastChange = "2023-03-10 12:36:08 +0000";
layers = (
{
background = {
shapes = (
{
closed = 1;
nodes = (
(234,-15,o),
(269,11,o),
(289,66,c),
(303,1,l),
(352,1,l),
(352,371,l),
(195,371,l),
(195,307,l),
(277,307,l),
(277,185,ls),
(277,95,o),
(251,50,o),
(199,50,cs),
(150,50,o),
(128,95,o),
(128,194,cs),
(128,503,ls),
(128,606,o),
(150,650,o),
(202,650,cs),
(243,650,o),
(263,617,o),
(270,537,c),
(343,555,l),
(333,666,o),
(290,715,o),
(204,715,cs),
(96,715,o),
(49,646,o),
(49,486,cs),
(49,209,ls),
(49,54,o),
(90,-15,o),
(181,-15,c,{
name = hr00;
})
);
},
{
closed = 1;
nodes = (
(245,806,l),
(245,900,l),
(162,900,l),
(162,806,l,{
name = hr00;
})
);
}
);
};
layerId = master01;
shapes = (
{
ref = G;
},
{
pos = (102,160);
ref = dotaccentcomb;
}
);
width = 408;
}
);
unicode = 288;
},
{
glyphname = H;
lastChange = "2023-03-10 12:35:58 +0000";
layers = (
{
anchors = (
{
name = bottom;
pos = (218,0);
},
{
name = center;
pos = (218,350);
},
{
name = top;
pos = (218,700);
},
{
name = topleft;
pos = (20,700);
}
);
background = {
shapes = (
{
closed = 1;
nodes = (
(373,0,l),
(373,700,l),
(294,700,l),
(294,381,l),
(143,381,l),
(143,700,l),
(63,700,l),
(63,0,l),
(143,0,l),
(143,317,l),
(294,317,l),
(294,0,l,{
name = hr00;
})
);
}
);
};
layerId = master01;
shapes = (
{
closed = 1;
nodes = (
(373,0,l),
(373,700,l),
(294,700,l),
(294,381,l),
(143,381,l),
(143,700,l),
(63,700,l),
(63,0,l),
(143,0,l),
(143,317,l),
(294,317,l),
(294,0,l,{
name = hr00;
})
);
}
);
width = 436;
}
);
unicode = 72;
},
{
glyphname = Hbar;
lastChange = "2023-03-10 12:30:02 +0000";
layers = (
{
background = {
shapes = (
{
closed = 1;
nodes = (
(373,0,l),
(373,700,l),
(294,700,l),
(294,381,l),
(143,381,l),
(143,700,l),
(63,700,l),
(63,0,l),
(143,0,l),
(143,317,l),
(294,317,l),
(294,0,l,{
name = hr00;
})
);
},
{
closed = 1;
nodes = (
(423,541,l),
(12,541,l),
(12,491,l),
(423,491,l,{
name = hr00;
})
);
}
);
};
layerId = master01;
shapes = (
{
alignment = -1;
ref = H;
},
{
alignment = -1;
pos = (-107,174);
ref = barra;
scale = (1.7,1);
}
);
width = 436;
}
);
unicode = 294;
},
{
glyphname = Hcircumflex;
lastChange = "2023-03-10 12:36:08 +0000";
layers = (
{
background = {
shapes = (
{
closed = 1;
nodes = (
(373,0,l),
(373,700,l),
(294,700,l),
(294,381,l),
(143,381,l),
(143,700,l),
(63,700,l),
(63,0,l),
(143,0,l),
(143,317,l),
(294,317,l),
(294,0,l,{
name = hr00;
})
);
},
{
closed = 1;
nodes = (
(207,910,l),
(117,794,l),
(140,760,l),
(217,830,l),
(294,760,l),
(318,794,l),
(226,910,l,{
name = hr00;
})
);
}
);
};
layerId = master01;
shapes = (
{
ref = H;
},
{
pos = (86,160);
ref = circumflexcomb;
}
);
width = 436;
}
);
unicode = 292;
},
{
glyphname = I;
lastChange = "2023-03-10 12:35:58 +0000";
layers = (
{
anchors = (
{
name = bottom;
pos = (103,0);
},
{
name = ogonek;
pos = (185,10);
},
{
name = top;
pos = (103,700);
},
{
name = topleft;
pos = (20,700);
}
);
background = {
shapes = (
{
closed = 1;
nodes = (
(143,0,l),
(143,700,l),
(63,700,l),
(63,0,l,{
name = hr00;
})
);
}
);
};
layerId = master01;
shapes = (
{
closed = 1;
nodes = (
(143,0,l),
(143,700,l),
(63,700,l),
(63,0,l,{
name = hr00;
})
);
}
);
width = 206;
}
);
unicode = 73;
},
{
glyphname = IJ;
lastChange = "2023-03-10 12:36:08 +0000";
layers = (
{
background = {
shapes = (
{
closed = 1;
nodes = (
(143,0,l),
(143,700,l),
(63,700,l),
(63,0,l,{
name = hr00;
})
);
},
{
closed = 1;
nodes = (
(406,-15,o),
(448,45,o),
(448,157,cs),
(448,700,l),
(369,700,l),
(369,141,ls),
(369,76,o),
(357,48,o),
(330,48,cs),
(305,48,o),
(292,72,o),
(288,128,c),
(216,118,l),
(223,36,o),
(265,-15,o),
(327,-15,c,{
name = hr00;
})
);
}
);
};
layerId = master01;
shapes = (
{
ref = I;
},
{
pos = (206,0);
ref = J;
}
);
width = 501;
}
);
unicode = 306;
},
{
glyphname = Iacute;
lastChange = "2023-03-10 12:36:08 +0000";
layers = (
{
background = {
shapes = (
{
closed = 1;
nodes = (
(143,0,l),
(143,700,l),
(63,700,l),
(63,0,l,{
name = hr00;
})
);
},
{
closed = 1;
nodes = (
(43,762,l),
(186,849,l),
(151,916,l),
(21,798,l,{
name = hr00;
})
);
}
);
};
layerId = master01;
shapes = (
{
ref = I;
},
{
pos = (-42,160);
ref = acutecomb;
}
);
width = 206;
}
);
unicode = 205;
},
{
glyphname = Ibreve;
lastChange = "2023-03-10 12:36:08 +0000";
layers = (
{
background = {
shapes = (
{
closed = 1;
nodes = (
(143,0,l),
(143,700,l),
(63,700,l),
(63,0,l,{
name = hr00;
})
);
},
{
closed = 1;
nodes = (
(112,773,ls),
(171,773,o),
(196,807,o),
(196,888,c),
(154,888,l),
(154,857,o),
(139,841,o),
(110,841,cs),
(96,841,ls),
(63,841,o),
(51,854,o),
(51,888,c),
(10,888,l),
(10,807,o),
(34,773,o),
(93,773,cs,{
name = hr00;
})
);
}
);
};
layerId = master01;
shapes = (
{
ref = I;
},
{
pos = (-32,160);
ref = brevecomb;
}
);
width = 206;
}
);
unicode = 300;
},
{
glyphname = Icircumflex;
lastChange = "2023-03-10 12:36:08 +0000";
layers = (
{
background = {
shapes = (
{
closed = 1;
nodes = (
(143,0,l),
(143,700,l),
(63,700,l),
(63,0,l,{
name = hr00;
})
);
},
{
closed = 1;
nodes = (
(93,910,l),
(3,794,l),
(26,760,l),
(103,830,l),
(180,760,l),
(204,794,l),
(112,910,l,{
name = hr00;
})
);
}
);
};
layerId = master01;
shapes = (
{
ref = I;
},
{
pos = (-29,160);
ref = circumflexcomb;
}
);
width = 206;
}
);
unicode = 206;
},
{
glyphname = Idieresis;
lastChange = "2023-03-10 12:36:08 +0000";
layers = (
{
background = {
shapes = (
{
closed = 1;
nodes = (
(143,0,l),
(143,700,l),
(63,700,l),
(63,0,l,{
name = hr00;
})
);
},
{
closed = 1;
nodes = (
(75,806,l),
(75,900,l),
(-6,900,l),
(-6,806,l,{
name = hr00;
})
);
},
{
closed = 1;
nodes = (
(214,806,l),
(214,900,l),
(134,900,l),
(134,806,l)
);
}
);
};
layerId = master01;
shapes = (
{
ref = I;
},
{
pos = (-61,160);
ref = dieresiscomb;
}
);
width = 206;
}
);
unicode = 207;
},
{
glyphname = Idotaccent;
lastChange = "2023-03-10 12:36:08 +0000";
layers = (
{
background = {
shapes = (
{
closed = 1;
nodes = (
(143,0,l),
(143,700,l),
(63,700,l),
(63,0,l,{
name = hr00;
})
);
},
{
closed = 1;
nodes = (
(144,806,l),
(144,900,l),
(61,900,l),
(61,806,l,{
name = hr00;
})
);
}
);
};
layerId = master01;
shapes = (
{
ref = I;
},
{
pos = (1,160);
ref = dotaccentcomb;
}
);
width = 206;
}
);
unicode = 304;
},
{
glyphname = Igrave;
lastChange = "2023-03-10 12:36:08 +0000";
layers = (
{
background = {
shapes = (
{
closed = 1;
nodes = (
(143,0,l),
(143,700,l),
(63,700,l),
(63,0,l,{
name = hr00;
})
);
},
{
closed = 1;
nodes = (
(164,762,l),
(21,849,l),
(56,916,l),
(186,798,l,{
name = hr00;
})
);
}
);
};
layerId = master01;
shapes = (
{
ref = I;
},
{
pos = (-42,160);
ref = gravecomb;
}
);
width = 206;
}
);
unicode = 204;
},
{
glyphname = Imacron;
lastChange = "2023-03-10 12:36:08 +0000";
layers = (
{
background = {
shapes = (
{
closed = 1;
nodes = (
(143,0,l),
(143,700,l),
(63,700,l),
(63,0,l,{
name = hr00;
})
);
},
{
closed = 1;
nodes = (
(198,802,l),
(198,868,l),
(8,868,l),
(8,802,l,{
name = hr00;
})
);
}
);
};
layerId = master01;
shapes = (
{
ref = I;
},
{
pos = (-24,160);
ref = macroncomb;
}
);
width = 206;
}
);
unicode = 298;
},
{
glyphname = Iogonek;
lastChange = "2023-03-10 12:36:08 +0000";
layers = (
{
background = {
shapes = (
{
closed = 1;
nodes = (
(143,0,l),
(143,700,l),
(63,700,l),
(63,0,l,{
name = hr00;
})
);
},
{
closed = 1;
nodes = (
(135,-198,o),
(164,-163,o),
(182,-90,c),
(141,-81,l),
(128,-126,o),
(115,-144,o),
(97,-144,cs),
(85,-144,o),
(80,-133,o),
(80,-108,cs),
(80,-77,o),
(100,-32,o),
(127,0,c),
(80,0,l),
(42,-38,o),
(21,-79,o),
(21,-117,cs),
(21,-170,o),
(45,-198,o),
(90,-198,c,{
name = hr00;
})
);
}
);
};
layerId = master01;
shapes = (
{
ref = I;
},
{
pos = (-18,10);
ref = ogonekcomb;
}
);
width = 206;
}
);
unicode = 302;
},
{
glyphname = Itilde;
lastChange = "2023-03-10 12:36:08 +0000";
layers = (
{
background = {
shapes = (
{
closed = 1;
nodes = (
(143,0,l),
(143,700,l),
(63,700,l),
(63,0,l,{
name = hr00;
})
);
},
{
closed = 1;
nodes = (
(171,867,o),
(158,860,o),
(144,860,cs),
(120,860,o),
(94,888,o),
(67,888,cs,{
name = hr01;
}),
(31,888,o),
(7,850,o),
(-6,825,c),
(17,787,l),
(35,810,o),
(48,818,o),
(62,818,cs),
(86,818,o),
(112,789,o),
(139,789,cs,{
name = hr02;
}),
(175,789,o),
(198,828,o),
(212,852,c),
(188,890,l)
);
}
);
};
layerId = master01;
shapes = (
{
ref = I;
},
{
pos = (-47,160);
ref = tildecomb;
}
);
width = 206;
}
);
unicode = 296;
},
{
glyphname = J;
lastChange = "2023-03-10 12:35:58 +0000";
layers = (
{
anchors = (
{
name = bottom;
pos = (148,0);
},
{
name = top;
pos = (148,700);
}
);
background = {
shapes = (
{
closed = 1;
nodes = (
(200,-15,o),
(242,45,o),
(242,157,cs),
(242,700,l),
(163,700,l),
(163,141,ls),
(163,76,o),
(151,48,o),
(124,48,cs),
(99,48,o),
(86,72,o),
(82,128,c),
(10,118,l),
(17,36,o),
(59,-15,o),
(121,-15,c,{
name = hr00;
})
);
}
);
};
layerId = master01;
shapes = (
{
closed = 1;
nodes = (
(200,-15,o),
(242,45,o),
(242,157,cs),
(242,700,l),
(163,700,l),
(163,141,ls),
(163,76,o),
(151,48,o),
(124,48,cs),
(99,48,o),
(86,72,o),
(82,128,c),
(10,118,l),
(17,36,o),
(59,-15,o),
(121,-15,c,{
name = hr00;
})
);
}
);
width = 295;
}
);
unicode = 74;
},
{
glyphname = Jcircumflex;
lastChange = "2023-03-10 12:36:08 +0000";
layers = (
{
background = {
shapes = (
{
closed = 1;
nodes = (
(200,-15,o),
(242,45,o),
(242,157,cs),
(242,700,l),
(163,700,l),
(163,141,ls),
(163,76,o),
(151,48,o),
(124,48,cs),
(99,48,o),
(86,72,o),
(82,128,c),
(10,118,l),
(17,36,o),
(59,-15,o),
(121,-15,c,{
name = hr00;
})
);
},
{
closed = 1;
nodes = (
(196,910,l),
(106,794,l),
(129,760,l),
(206,830,l),
(283,760,l),
(307,794,l),
(215,910,l,{
name = hr00;
})
);
}
);
};
layerId = master01;
shapes = (
{
ref = J;
},
{
pos = (16,160);
ref = circumflexcomb;
}
);
width = 295;
}
);
unicode = 308;
},
{
glyphname = K;
lastChange = "2023-03-10 12:35:58 +0000";
layers = (
{
anchors = (
{
name = bottom;
pos = (191,0);
},
{
name = top;
pos = (191,700);
}
);
background = {
shapes = (
{
closed = 1;
nodes = (
(175,315,l),
(296,0,l),
(376,0,l),
(217,399,l),
(370,700,l),
(290,700,l),
(143,404,l),
(143,700,l),
(63,700,l),
(63,0,l),
(143,0,l),
(143,252,l,{
name = hr00;
})
);
}
);
};
layerId = master01;
shapes = (
{
closed = 1;
nodes = (
(175,315,l),
(296,0,l),
(376,0,l),
(217,399,l),
(370,700,l),
(290,700,l),
(143,404,l),
(143,700,l),
(63,700,l),
(63,0,l),
(143,0,l),
(143,252,l,{
name = hr00;
})
);
}
);
width = 381;
}
);
unicode = 75;
},
{
glyphname = Kcommaaccent;
lastChange = "2023-03-10 12:36:08 +0000";
layers = (
{
background = {
shapes = (
{
closed = 1;
nodes = (
(175,315,l),
(296,0,l),
(376,0,l),
(217,399,l),
(370,700,l),
(290,700,l),
(143,404,l),
(143,700,l),
(63,700,l),
(63,0,l),
(143,0,l),
(143,252,l,{
name = hr00;
})
);
},
{
closed = 1;
nodes = (
(193,-132,l),
(181,-216,l),
(211,-222,l),
(250,-128,l),
(250,-50,l),
(171,-50,l),
(171,-132,l,{
name = hr00;
})
);
}
);
};
layerId = master01;
shapes = (
{
ref = K;
},
{
pos = (109,0);
ref = commaaccentcomb;
}
);
width = 381;
}
);
unicode = 310;
},
{
glyphname = L;
lastChange = "2023-03-10 12:35:58 +0000";
layers = (
{
anchors = (
{
name = bottom;
pos = (157,0);
},
{
name = center;
pos = (157,350);
},
{
name = top;
pos = (157,700);
},
{
name = topright;
pos = (293,700);
}
);
background = {
shapes = (
{
closed = 1;
nodes = (
(298,0,l),
(298,64,l),
(143,64,l),
(143,700,l),
(63,700,l),
(63,0,l,{
name = hr00;
})
);
}
);
};
layerId = master01;
shapes = (
{
closed = 1;
nodes = (
(298,0,l),
(298,64,l),
(143,64,l),
(143,700,l),
(63,700,l),
(63,0,l,{
name = hr00;
})
);
}
);
width = 313;
}
);
unicode = 76;
},
{
glyphname = Lacute;
lastChange = "2023-03-10 12:36:08 +0000";
layers = (
{
background = {
shapes = (
{
closed = 1;
nodes = (
(298,0,l),
(298,64,l),
(143,64,l),
(143,700,l),
(63,700,l),
(63,0,l,{
name = hr00;
})
);
},
{
closed = 1;
nodes = (
(53,762,l),
(196,849,l),
(161,916,l),
(31,798,l,{
name = hr00;
})
);
}
);
};
layerId = master01;
shapes = (
{
ref = L;
},
{
pos = (12,160);
ref = acutecomb;
}
);
width = 313;
}
);
unicode = 313;
},
{
glyphname = Lcaron;
lastChange = "2023-03-10 12:36:08 +0000";
layers = (
{
background = {
shapes = (
{
closed = 1;
nodes = (
(298,0,l),
(298,64,l),
(143,64,l),
(143,700,l),
(63,700,l),
(63,0,l,{
name = hr00;
})
);
},
{
closed = 1;
nodes = (
(212,648,l),
(200,534,l),
(230,528,l),
(269,652,l),
(269,740,l),
(190,740,l),
(190,648,l,{
name = hr00;
})
);
}
);
};
layerId = master01;
shapes = (
{
ref = L;
},
{
pos = (25,160);
ref = caroncomb;
}
);
width = 313;
}
);
unicode = 317;
},
{
glyphname = Lcommaaccent;
lastChange = "2023-03-10 12:36:08 +0000";
layers = (
{
background = {
shapes = (
{
closed = 1;
nodes = (
(298,0,l),
(298,64,l),
(143,64,l),
(143,700,l),
(63,700,l),
(63,0,l,{
name = hr00;
})
);
},
{
closed = 1;
nodes = (
(169,-132,l),
(157,-216,l),
(187,-222,l),
(226,-128,l),
(226,-50,l),
(147,-50,l),
(147,-132,l,{
name = hr00;
})
);
}
);
};
layerId = master01;
shapes = (
{
ref = L;
},
{
pos = (75,0);
ref = commaaccentcomb;
}
);
width = 313;
}
);
unicode = 315;
},
{
glyphname = Ldot;
lastChange = "2023-03-10 12:36:08 +0000";
layers = (
{
background = {
shapes = (
{
closed = 1;
nodes = (
(298,0,l),
(298,64,l),
(143,64,l),
(143,700,l),
(63,700,l),
(63,0,l,{
name = hr00;
})
);
},
{
closed = 1;
nodes = (
(262,300,l),
(262,392,l),
(183,392,l),
(183,300,l,{
name = hr00;
})
);
}
);
};
layerId = master01;
shapes = (
{
ref = L;
},
{
ref = periodcentered;
}
);
width = 313;
}
);
unicode = 319;
},
{
glyphname = Lslash;
lastChange = "2023-03-10 12:30:02 +0000";
layers = (
{
background = {
shapes = (
{
closed = 1;
nodes = (
(223,381,l),
(223,435,l),
(18,336,l),
(18,281,l,{
name = hr00;
})
);
},
{
closed = 1;
nodes = (
(298,0,l),
(298,64,l),
(143,64,l),
(143,700,l),
(63,700,l),
(63,0,l,{
name = hr00;
})
);
}
);
};
layerId = master01;
shapes = (
{
closed = 1;
nodes = (
(223,381,l),
(223,435,l),
(18,336,l),
(18,281,l,{
name = hr00;
})
);
},
{
ref = L;
}
);
width = 313;
}
);
unicode = 321;
},
{
glyphname = M;
lastChange = "2023-03-10 12:35:58 +0000";
layers = (
{
anchors = (
{
name = bottom;
pos = (271,0);
},
{
name = top;
pos = (271,700);
}
);
background = {
shapes = (
{
closed = 1;
nodes = (
(400,632,l),
(400,0,l),
(478,0,l),
(478,700,l),
(356,700,l),
(270,215,l),
(185,700,l),
(63,700,l),
(63,0,l),
(141,0,l),
(141,632,l),
(226,150,l),
(315,150,l,{
name = hr00;
})
);
}
);
};
layerId = master01;
shapes = (
{
closed = 1;
nodes = (
(400,632,l),
(400,0,l),
(478,0,l),
(478,700,l),
(356,700,l),
(270,215,l),
(185,700,l),
(63,700,l),
(63,0,l),
(141,0,l),
(141,632,l),
(226,150,l),
(315,150,l,{
name = hr00;
})
);
}
);
width = 541;
}
);
unicode = 77;
},
{
glyphname = N;
lastChange = "2023-03-10 12:35:58 +0000";
layers = (
{
anchors = (
{
name = bottom;
pos = (225,0);
},
{
name = top;
pos = (225,700);
}
);
background = {
shapes = (
{
closed = 1;
nodes = (
(387,0,l),
(387,700,l),
(309,700,l),
(309,188,l),
(146,700,l),
(63,700,l),
(63,0,l),
(141,0,l),
(141,511,l),
(304,0,l,{
name = hr00;
})
);
}
);
};
layerId = master01;
shapes = (
{
closed = 1;
nodes = (
(387,0,l),
(387,700,l),
(309,700,l),
(309,188,l),
(146,700,l),
(63,700,l),
(63,0,l),
(141,0,l),
(141,511,l),
(304,0,l,{
name = hr00;
})
);
}
);
width = 450;
}
);
unicode = 78;
},
{
glyphname = Nacute;
lastChange = "2023-03-10 12:36:08 +0000";
layers = (
{
background = {
shapes = (
{
closed = 1;
nodes = (
(387,0,l),
(387,700,l),
(309,700,l),
(309,188,l),
(146,700,l),
(63,700,l),
(63,0,l),
(141,0,l),
(141,511,l),
(304,0,l,{
name = hr00;
})
);
},
{
closed = 1;
nodes = (
(164,762,l),
(307,849,l),
(272,916,l),
(142,798,l,{
name = hr00;
})
);
}
);
};
layerId = master01;
shapes = (
{
ref = N;
},
{
pos = (80,160);
ref = acutecomb;
}
);
width = 450;
}
);
unicode = 323;
},
{
glyphname = Ncaron;
lastChange = "2023-03-10 12:36:08 +0000";
layers = (
{
background = {
shapes = (
{
closed = 1;
nodes = (
(387,0,l),
(387,700,l),
(309,700,l),
(309,188,l),
(146,700,l),
(63,700,l),
(63,0,l),
(141,0,l),
(141,511,l),
(304,0,l,{
name = hr00;
})
);
},
{
closed = 1;
nodes = (
(233,760,l),
(325,875,l),
(301,910,l),
(224,840,l),
(147,910,l),
(124,875,l),
(214,760,l,{
name = hr00;
})
);
}
);
};
layerId = master01;
shapes = (
{
ref = N;
},
{
pos = (93,160);
ref = caroncomb;
}
);
width = 450;
}
);
unicode = 327;
},
{
glyphname = Ncommaaccent;
lastChange = "2023-03-10 12:36:08 +0000";
layers = (
{
background = {
shapes = (
{
closed = 1;
nodes = (
(387,0,l),
(387,700,l),
(309,700,l),
(309,188,l),
(146,700,l),
(63,700,l),
(63,0,l),
(141,0,l),
(141,511,l),
(304,0,l,{
name = hr00;
})
);
},
{
closed = 1;
nodes = (
(208,-132,l),
(196,-216,l),
(226,-222,l),
(265,-128,l),
(265,-50,l),
(186,-50,l),
(186,-132,l,{
name = hr00;
})
);
}
);
};
layerId = master01;
shapes = (
{
ref = N;
},
{
pos = (143,0);
ref = commaaccentcomb;
}
);
width = 450;
}
);
unicode = 325;
},
{
glyphname = Ntilde;
lastChange = "2023-03-10 12:36:08 +0000";
layers = (
{
background = {
shapes = (
{
closed = 1;
nodes = (
(387,0,l),
(387,700,l),
(309,700,l),
(309,188,l),
(146,700,l),
(63,700,l),
(63,0,l),
(141,0,l),
(141,511,l),
(304,0,l,{
name = hr00;
})
);
},
{
closed = 1;
nodes = (
(294,867,o),
(281,860,o),
(267,860,cs),
(243,860,o),
(217,888,o),
(190,888,cs,{
name = hr01;
}),
(154,888,o),
(130,850,o),
(117,825,c),
(140,787,l),
(158,810,o),
(171,818,o),
(185,818,cs),
(209,818,o),
(235,789,o),
(262,789,cs,{
name = hr02;
}),
(298,789,o),
(321,828,o),
(335,852,c),
(311,890,l)
);
}
);
};
layerId = master01;
shapes = (
{
ref = N;
},
{
pos = (75,160);
ref = tildecomb;
}
);
width = 450;
}
);
unicode = 209;
},
{
glyphname = Eng;
lastChange = "2023-03-10 12:35:58 +0000";
layers = (
{
anchors = (
{
name = bottom;
pos = (225,0);
},
{
name = top;
pos = (225,700);
}
);
background = {
shapes = (
{
closed = 1;
nodes = (
(351,-195,o),
(387,-129,o),
(387,15,cs),
(387,700,l),
(309,700,l),
(309,203,l),
(146,700,l),
(63,700,l),
(63,0,l),
(141,0,l),
(141,517,l),
(311,0,l),
(311,-90,o),
(296,-128,o),
(260,-128,cs),
(249,-128,o),
(239,-125,o),
(227,-118,c),
(212,-183,l),
(230,-191,o),
(251,-195,o),
(273,-195,c,{
name = hr00;
})
);
}
);
};
layerId = master01;
shapes = (
{
closed = 1;
nodes = (
(351,-195,o),
(387,-129,o),
(387,15,cs),
(387,700,l),
(309,700,l),
(309,203,l),
(146,700,l),
(63,700,l),
(63,0,l),
(141,0,l),
(141,517,l),
(311,0,l),
(311,-90,o),
(296,-128,o),
(260,-128,cs),
(249,-128,o),
(239,-125,o),
(227,-118,c),
(212,-183,l),
(230,-191,o),
(251,-195,o),
(273,-195,c,{
name = hr00;
})
);
}
);
width = 450;
}
);
unicode = 330;
},
{
glyphname = O;
lastChange = "2023-03-10 12:35:58 +0000";
layers = (
{
anchors = (
{
name = bottom;
pos = (206,0);
},
{
name = center;
pos = (206,350);
},
{
name = ogonek;
pos = (370,10);
},
{
name = top;
pos = (206,700);
},
{
name = topleft;
pos = (20,700);
},
{
name = topright;
pos = (391,700);
}
);
background = {
shapes = (
{
closed = 1;
nodes = (
(314,-15,o),
(362,54,o),
(362,209,cs),
(362,491,l),
(362,646,o),
(314,715,o),
(206,715,cs),
(97,715,o),
(49,647,o),
(49,491,cs),
(49,209,ls),
(49,53,o),
(97,-15,o),
(206,-15,c,{
name = hr00;
})
);
},
{
closed = 1;
nodes = (
(152,50,o),
(128,95,o),
(128,194,cs),
(128,506,ls),
(128,605,o),
(152,650,o),
(206,650,cs),
(258,650,o),
(283,604,o),
(283,506,cs),
(283,194,l),
(283,96,o),
(258,50,o),
(206,50,c)
);
}
);
};
layerId = master01;
shapes = (
{
closed = 1;
nodes = (
(314,-15,o),
(362,54,o),
(362,209,cs),
(362,491,l),
(362,646,o),
(314,715,o),
(206,715,cs),
(97,715,o),
(49,647,o),
(49,491,cs),
(49,209,ls),
(49,53,o),
(97,-15,o),
(206,-15,c,{
name = hr00;
})
);
},
{
closed = 1;
nodes = (
(152,50,o),
(128,95,o),
(128,194,cs),
(128,506,ls),
(128,605,o),
(152,650,o),
(206,650,cs),
(258,650,o),
(283,604,o),
(283,506,cs),
(283,194,l),
(283,96,o),
(258,50,o),
(206,50,c)
);
}
);
width = 411;
}
);
unicode = 79;
},
{
glyphname = Oacute;
lastChange = "2023-03-10 12:36:08 +0000";
layers = (
{
background = {
shapes = (
{
closed = 1;
nodes = (
(314,-15,o),
(362,54,o),
(362,209,cs),
(362,491,l),
(362,646,o),
(314,715,o),
(206,715,cs),
(97,715,o),
(49,647,o),
(49,491,cs),
(49,209,ls),
(49,53,o),
(97,-15,o),
(206,-15,c,{
name = hr00;
})
);
},
{
closed = 1;
nodes = (
(152,50,o),
(128,95,o),
(128,194,cs),
(128,506,ls),
(128,605,o),
(152,650,o),
(206,650,cs),
(258,650,o),
(283,604,o),
(283,506,cs),
(283,194,l),
(283,96,o),
(258,50,o),
(206,50,c)
);
},
{
closed = 1;
nodes = (
(146,762,l),
(289,849,l),
(254,916,l),
(124,798,l,{
name = hr00;
})
);
}
);
};
layerId = master01;
shapes = (
{
ref = O;
},
{
pos = (61,160);
ref = acutecomb;
}
);
width = 411;
}
);
unicode = 211;
},
{
glyphname = Obreve;
lastChange = "2023-03-10 12:36:08 +0000";
layers = (
{
background = {
shapes = (
{
closed = 1;
nodes = (
(314,-15,o),
(362,54,o),
(362,209,cs),
(362,491,l),
(362,646,o),
(314,715,o),
(206,715,cs),
(97,715,o),
(49,647,o),
(49,491,cs),
(49,209,ls),
(49,53,o),
(97,-15,o),
(206,-15,c,{
name = hr00;
})
);
},
{
closed = 1;
nodes = (
(152,50,o),
(128,95,o),
(128,194,cs),
(128,506,ls),
(128,605,o),
(152,650,o),
(206,650,cs),
(258,650,o),
(283,604,o),
(283,506,cs),
(283,194,l),
(283,96,o),
(258,50,o),
(206,50,c)
);
},
{
closed = 1;
nodes = (
(214,773,ls),
(273,773,o),
(298,807,o),
(298,888,c),
(256,888,l),
(256,857,o),
(241,841,o),
(212,841,cs),
(198,841,ls),
(165,841,o),
(153,854,o),
(153,888,c),
(112,888,l),
(112,807,o),
(136,773,o),
(195,773,cs,{
name = hr00;
})
);
}
);
};
layerId = master01;
shapes = (
{
ref = O;
},
{
pos = (71,160);
ref = brevecomb;
}
);
width = 411;
}
);
unicode = 334;
},
{
glyphname = Ocircumflex;
lastChange = "2023-03-10 12:36:08 +0000";
layers = (
{
background = {
shapes = (
{
closed = 1;
nodes = (
(314,-15,o),
(362,54,o),
(362,209,cs),
(362,491,l),
(362,646,o),
(314,715,o),
(206,715,cs),
(97,715,o),
(49,647,o),
(49,491,cs),
(49,209,ls),
(49,53,o),
(97,-15,o),
(206,-15,c,{
name = hr00;
})
);
},
{
closed = 1;
nodes = (
(152,50,o),
(128,95,o),
(128,194,cs),
(128,506,ls),
(128,605,o),
(152,650,o),
(206,650,cs),
(258,650,o),
(283,604,o),
(283,506,cs),
(283,194,l),
(283,96,o),
(258,50,o),
(206,50,c)
);
},
{
closed = 1;
nodes = (
(196,910,l),
(106,794,l),
(129,760,l),
(206,830,l),
(283,760,l),
(307,794,l),
(215,910,l,{
name = hr00;
})
);
}
);
};
layerId = master01;
shapes = (
{
ref = O;
},
{
pos = (74,160);
ref = circumflexcomb;
}
);
width = 411;
}
);
unicode = 212;
},
{
glyphname = Odieresis;
lastChange = "2023-03-10 12:36:08 +0000";
layers = (
{
background = {
shapes = (
{
closed = 1;
nodes = (
(314,-15,o),
(362,54,o),
(362,209,cs),
(362,491,l),
(362,646,o),
(314,715,o),
(206,715,cs),
(97,715,o),
(49,647,o),
(49,491,cs),
(49,209,ls),
(49,53,o),
(97,-15,o),
(206,-15,c,{
name = hr00;
})
);
},
{
closed = 1;
nodes = (
(152,50,o),
(128,95,o),
(128,194,cs),
(128,506,ls),
(128,605,o),
(152,650,o),
(206,650,cs),
(258,650,o),
(283,604,o),
(283,506,cs),
(283,194,l),
(283,96,o),
(258,50,o),
(206,50,c)
);
},
{
closed = 1;
nodes = (
(177,806,l),
(177,900,l),
(96,900,l),
(96,806,l,{
name = hr00;
})
);
},
{
closed = 1;
nodes = (
(316,806,l),
(316,900,l),
(236,900,l),
(236,806,l)
);
}
);
};
layerId = master01;
shapes = (
{
ref = O;
},
{
pos = (42,160);
ref = dieresiscomb;
}
);
width = 411;
}
);
unicode = 214;
},
{
glyphname = Ograve;
lastChange = "2023-03-10 12:36:08 +0000";
layers = (
{
background = {
shapes = (
{
closed = 1;
nodes = (
(314,-15,o),
(362,54,o),
(362,209,cs),
(362,491,l),
(362,646,o),
(314,715,o),
(206,715,cs),
(97,715,o),
(49,647,o),
(49,491,cs),
(49,209,ls),
(49,53,o),
(97,-15,o),
(206,-15,c,{
name = hr00;
})
);
},
{
closed = 1;
nodes = (
(152,50,o),
(128,95,o),
(128,194,cs),
(128,506,ls),
(128,605,o),
(152,650,o),
(206,650,cs),
(258,650,o),
(283,604,o),
(283,506,cs),
(283,194,l),
(283,96,o),
(258,50,o),
(206,50,c)
);
},
{
closed = 1;
nodes = (
(267,762,l),
(124,849,l),
(159,916,l),
(289,798,l,{
name = hr00;
})
);
}
);
};
layerId = master01;
shapes = (
{
ref = O;
},
{
pos = (61,160);
ref = gravecomb;
}
);
width = 411;
}
);
unicode = 210;
},
{
glyphname = Ohungarumlaut;
lastChange = "2023-03-10 12:36:08 +0000";
layers = (
{
background = {
shapes = (
{
closed = 1;
nodes = (
(314,-15,o),
(362,54,o),
(362,209,cs),
(362,491,l),
(362,646,o),
(314,715,o),
(206,715,cs),
(97,715,o),
(49,647,o),
(49,491,cs),
(49,209,ls),
(49,53,o),
(97,-15,o),
(206,-15,c,{
name = hr00;
})
);
},
{
closed = 1;
nodes = (
(152,50,o),
(128,95,o),
(128,194,cs),
(128,506,ls),
(128,605,o),
(152,650,o),
(206,650,cs),
(258,650,o),
(283,604,o),
(283,506,cs),
(283,194,l),
(283,96,o),
(258,50,o),
(206,50,c)
);
},
{
closed = 1;
nodes = (
(97,762,l),
(206,858,l),
(162,918,l),
(68,794,l,{
name = hr00;
})
);
},
{
closed = 1;
nodes = (
(234,762,l),
(343,858,l),
(299,918,l),
(205,794,l)
);
}
);
};
layerId = master01;
shapes = (
{
ref = O;
},
{
pos = (5,160);
ref = hungarumlautcomb;
}
);
width = 411;
}
);
unicode = 336;
},
{
glyphname = Omacron;
lastChange = "2023-03-10 12:36:08 +0000";
layers = (
{
background = {
shapes = (
{
closed = 1;
nodes = (
(314,-15,o),
(362,54,o),
(362,209,cs),
(362,491,l),
(362,646,o),
(314,715,o),
(206,715,cs),
(97,715,o),
(49,647,o),
(49,491,cs),
(49,209,ls),
(49,53,o),
(97,-15,o),
(206,-15,c,{
name = hr00;
})
);
},
{
closed = 1;
nodes = (
(152,50,o),
(128,95,o),
(128,194,cs),
(128,506,ls),
(128,605,o),
(152,650,o),
(206,650,cs),
(258,650,o),
(283,604,o),
(283,506,cs),
(283,194,l),
(283,96,o),
(258,50,o),
(206,50,c)
);
},
{
closed = 1;
nodes = (
(300,802,l),
(300,868,l),
(110,868,l),
(110,802,l,{
name = hr00;
})
);
}
);
};
layerId = master01;
shapes = (
{
ref = O;
},
{
pos = (79,160);
ref = macroncomb;
}
);
width = 411;
}
);
unicode = 332;
},
{
glyphname = Oslash;
lastChange = "2023-03-10 12:30:02 +0000";
layers = (
{
background = {
shapes = (
{
closed = 1;
nodes = (
(314,-15,o),
(362,54,o),
(362,209,cs),
(362,491,l),
(362,646,o),
(314,715,o),
(206,715,cs),
(97,715,o),
(49,647,o),
(49,491,cs),
(49,209,ls),
(49,53,o),
(97,-15,o),
(206,-15,c,{
name = hr00;
})
);
},
{
closed = 1;
nodes = (
(152,50,o),
(128,95,o),
(128,194,cs),
(128,506,ls),
(128,605,o),
(152,650,o),
(206,650,cs),
(258,650,o),
(283,604,o),
(283,506,cs),
(283,194,l),
(283,96,o),
(258,50,o),
(206,50,c)
);
},
{
closed = 1;
nodes = (
(146,-52,l),
(318,752,l),
(266,752,l),
(94,-52,l,{
name = hr00;
})
);
}
);
};
layerId = master01;
shapes = (
{
ref = O;
},
{
pos = (61,0);
ref = slash;
}
);
width = 411;
}
);
unicode = 216;
},
{
glyphname = Oslashacute;
lastChange = "2023-03-10 12:36:08 +0000";
layers = (
{
background = {
shapes = (
{
closed = 1;
nodes = (
(146,762,l),
(289,849,l),
(254,916,l),
(124,798,l,{
name = hr00;
})
);
},
{
closed = 1;
nodes = (
(314,-15,o),
(362,54,o),
(362,209,cs),
(362,491,l),
(362,646,o),
(314,715,o),
(206,715,cs),
(97,715,o),
(49,647,o),
(49,491,cs),
(49,209,ls),
(49,53,o),
(97,-15,o),
(206,-15,c,{
name = hr00;
})
);
},
{
closed = 1;
nodes = (
(152,50,o),
(128,95,o),
(128,194,cs),
(128,506,ls),
(128,605,o),
(152,650,o),
(206,650,cs),
(258,650,o),
(283,604,o),
(283,506,cs),
(283,194,l),
(283,96,o),
(258,50,o),
(206,50,c)
);
},
{
closed = 1;
nodes = (
(146,-52,l),
(318,752,l),
(266,752,l),
(94,-52,l,{
name = hr00;
})
);
}
);
};
layerId = master01;
shapes = (
{
ref = Oslash;
},
{
pos = (61,160);
ref = acutecomb;
}
);
width = 411;
}
);
unicode = 510;
},
{
glyphname = Otilde;
lastChange = "2023-03-10 12:36:08 +0000";
layers = (
{
background = {
shapes = (
{
closed = 1;
nodes = (
(314,-15,o),
(362,54,o),
(362,209,cs),
(362,491,l),
(362,646,o),
(314,715,o),
(206,715,cs),
(97,715,o),
(49,647,o),
(49,491,cs),
(49,209,ls),
(49,53,o),
(97,-15,o),
(206,-15,c,{
name = hr00;
})
);
},
{
closed = 1;
nodes = (
(152,50,o),
(128,95,o),
(128,194,cs),
(128,506,ls),
(128,605,o),
(152,650,o),
(206,650,cs),
(258,650,o),
(283,604,o),
(283,506,cs),
(283,194,l),
(283,96,o),
(258,50,o),
(206,50,c)
);
},
{
closed = 1;
nodes = (
(274,867,o),
(261,860,o),
(247,860,cs),
(223,860,o),
(197,888,o),
(170,888,cs,{
name = hr01;
}),
(134,888,o),
(110,850,o),
(97,825,c),
(120,787,l),
(138,810,o),
(151,818,o),
(165,818,cs),
(189,818,o),
(215,789,o),
(242,789,cs,{
name = hr02;
}),
(278,789,o),
(301,828,o),
(315,852,c),
(291,890,l)
);
}
);
};
layerId = master01;
shapes = (
{
ref = O;
},
{
pos = (56,160);
ref = tildecomb;
}
);
width = 411;
}
);
unicode = 213;
},
{
glyphname = OE;
lastChange = "2023-03-10 12:30:02 +0000";
layers = (
{
background = {
shapes = (
{
closed = 1;
nodes = (
(533,636,l),
(533,700,l),
(264,700,l),
(264,636,l,{
name = hr00;
})
);
},
{
closed = 1;
nodes = (
(537,0,l),
(537,64,l),
(264,64,l),
(264,0,l)
);
},
{
closed = 1;
nodes = (
(519,317,l),
(519,381,l),
(361,381,l),
(361,317,l)
);
},
{
closed = 1;
nodes = (
(314,-15,o),
(362,54,o),
(362,209,cs),
(362,491,l),
(362,646,o),
(314,715,o),
(206,715,cs),
(97,715,o),
(49,647,o),
(49,491,cs),
(49,209,ls),
(49,53,o),
(97,-15,o),
(206,-15,c,{
name = hr00;
})
);
},
{
closed = 1;
nodes = (
(152,50,o),
(128,95,o),
(128,194,cs),
(128,506,ls),
(128,605,o),
(152,650,o),
(206,650,cs),
(258,650,o),
(283,604,o),
(283,506,cs),
(283,194,l),
(283,96,o),
(258,50,o),
(206,50,c)
);
}
);
};
layerId = master01;
shapes = (
{
closed = 1;
nodes = (
(533,636,l),
(533,700,l),
(264,700,l),
(264,636,l,{
name = hr00;
})
);
},
{
closed = 1;
nodes = (
(537,0,l),
(537,64,l),
(264,64,l),
(264,0,l)
);
},
{
closed = 1;
nodes = (
(519,317,l),
(519,381,l),
(361,381,l),
(361,317,l)
);
},
{
ref = O;
}
);
width = 580;
}
);
unicode = 338;
},
{
glyphname = P;
lastChange = "2023-03-10 12:35:58 +0000";
layers = (
{
anchors = (
{
name = bottom;
pos = (182,0);
},
{
name = top;
pos = (182,700);
}
);
background = {
shapes = (
{
closed = 1;
nodes = (
(143,0,l),
(143,248,l),
(187,248,ls),
(295,248,o),
(343,316,o),
(343,471,cs),
(343,476,ls),
(343,631,o),
(295,700,o),
(187,700,cs),
(63,700,l),
(63,0,l,{
name = hr00;
})
);
},
{
closed = 1;
nodes = (
(143,636,l),
(187,636,ls),
(239,636,o),
(264,589,o),
(264,489,cs),
(264,458,ls),
(264,358,o),
(239,311,o),
(187,311,cs),
(143,311,l)
);
}
);
};
layerId = master01;
shapes = (
{
closed = 1;
nodes = (
(143,0,l),
(143,248,l),
(187,248,ls),
(295,248,o),
(343,316,o),
(343,471,cs),
(343,476,ls),
(343,631,o),
(295,700,o),
(187,700,cs),
(63,700,l),
(63,0,l,{
name = hr00;
})
);
},
{
closed = 1;
nodes = (
(143,636,l),
(187,636,ls),
(239,636,o),
(264,589,o),
(264,489,cs),
(264,458,ls),
(264,358,o),
(239,311,o),
(187,311,cs),
(143,311,l)
);
}
);
width = 363;
}
);
unicode = 80;
},
{
glyphname = Thorn;
lastChange = "2023-03-10 12:35:58 +0000";
layers = (
{
anchors = (
{
name = bottom;
pos = (182,0);
},
{
name = top;
pos = (182,700);
}
);
background = {
shapes = (
{
closed = 1;
nodes = (
(143,0,l),
(143,124,l),
(187,124,ls),
(295,124,o),
(343,192,o),
(343,347,cs),
(343,352,ls),
(343,507,o),
(295,576,o),
(187,576,cs),
(143,576,l),
(143,700,l),
(63,700,l),
(63,0,l,{
name = hr00;
})
);
},
{
closed = 1;
nodes = (
(143,512,l),
(187,512,ls),
(239,512,o),
(264,465,o),
(264,365,cs),
(264,334,ls),
(264,234,o),
(239,187,o),
(187,187,cs),
(143,187,l)
);
}
);
};
layerId = master01;
shapes = (
{
closed = 1;
nodes = (
(143,0,l),
(143,124,l),
(187,124,ls),
(295,124,o),
(343,192,o),
(343,347,cs),
(343,352,ls),
(343,507,o),
(295,576,o),
(187,576,cs),
(143,576,l),
(143,700,l),
(63,700,l),
(63,0,l,{
name = hr00;
})
);
},
{
closed = 1;
nodes = (
(143,512,l),
(187,512,ls),
(239,512,o),
(264,465,o),
(264,365,cs),
(264,334,ls),
(264,234,o),
(239,187,o),
(187,187,cs),
(143,187,l)
);
}
);
width = 363;
}
);
unicode = 222;
},
{
glyphname = Q;
lastChange = "2023-03-10 12:35:58 +0000";
layers = (
{
anchors = (
{
name = bottom;
pos = (206,0);
},
{
name = top;
pos = (206,700);
}
);
background = {
shapes = (
{
closed = 1;
nodes = (
(340,-56,l),
(299,61,l),
(341,94,o),
(362,159,o),
(362,259,cs),
(362,491,ls),
(362,646,o),
(314,715,o),
(206,715,cs),
(97,715,o),
(49,647,o),
(49,491,cs),
(49,259,ls),
(49,103,o),
(97,35,o),
(206,35,cs),
(221,35,o),
(228,35,o),
(236,37,c),
(268,-56,l,{
name = hr00;
})
);
},
{
closed = 1;
nodes = (
(152,100,o),
(128,145,o),
(128,244,cs),
(128,506,ls),
(128,605,o),
(152,650,o),
(206,650,cs),
(258,650,o),
(283,604,o),
(283,506,cs),
(283,244,ls),
(283,201,o),
(278,169,o),
(269,146,c),
(232,254,l),
(162,254,l),
(214,100,l),
(206,100,ls)
);
}
);
};
layerId = master01;
shapes = (
{
closed = 1;
nodes = (
(340,-56,l),
(299,61,l),
(341,94,o),
(362,159,o),
(362,259,cs),
(362,491,ls),
(362,646,o),
(314,715,o),
(206,715,cs),
(97,715,o),
(49,647,o),
(49,491,cs),
(49,259,ls),
(49,103,o),
(97,35,o),
(206,35,cs),
(221,35,o),
(228,35,o),
(236,37,c),
(268,-56,l,{
name = hr00;
})
);
},
{
closed = 1;
nodes = (
(152,100,o),
(128,145,o),
(128,244,cs),
(128,506,ls),
(128,605,o),
(152,650,o),
(206,650,cs),
(258,650,o),
(283,604,o),
(283,506,cs),
(283,244,ls),
(283,201,o),
(278,169,o),
(269,146,c),
(232,254,l),
(162,254,l),
(214,100,l),
(206,100,ls)
);
}
);
width = 411;
}
);
unicode = 81;
},
{
glyphname = R;
lastChange = "2023-03-10 12:35:58 +0000";
layers = (
{
anchors = (
{
name = bottom;
pos = (193,0);
},
{
name = top;
pos = (193,700);
}
);
background = {
shapes = (
{
closed = 1;
nodes = (
(143,0,l),
(143,268,l),
(192,268,l),
(270,0,l),
(352,0,l),
(269,286,l),
(319,314,o),
(343,376,o),
(343,479,cs),
(343,484,ls),
(343,633,o),
(294,700,o),
(187,700,cs),
(63,700,l),
(63,0,l,{
name = hr00;
})
);
},
{
closed = 1;
nodes = (
(143,636,l),
(187,636,ls),
(239,636,o),
(264,592,o),
(264,499,cs),
(264,469,ls),
(264,375,o),
(239,331,o),
(187,331,cs),
(143,331,l)
);
}
);
};
layerId = master01;
shapes = (
{
closed = 1;
nodes = (
(143,0,l),
(143,268,l),
(192,268,l),
(270,0,l),
(352,0,l),
(269,286,l),
(319,314,o),
(343,376,o),
(343,479,cs),
(343,484,ls),
(343,633,o),
(294,700,o),
(187,700,cs),
(63,700,l),
(63,0,l,{
name = hr00;
})
);
},
{
closed = 1;
nodes = (
(143,636,l),
(187,636,ls),
(239,636,o),
(264,592,o),
(264,499,cs),
(264,469,ls),
(264,375,o),
(239,331,o),
(187,331,cs),
(143,331,l)
);
}
);
width = 386;
}
);
unicode = 82;
},
{
glyphname = Racute;
lastChange = "2023-03-10 12:36:08 +0000";
layers = (
{
background = {
shapes = (
{
closed = 1;
nodes = (
(143,0,l),
(143,268,l),
(192,268,l),
(270,0,l),
(352,0,l),
(269,286,l),
(319,314,o),
(343,376,o),
(343,479,cs),
(343,484,ls),
(343,633,o),
(294,700,o),
(187,700,cs),
(63,700,l),
(63,0,l,{
name = hr00;
})
);
},
{
closed = 1;
nodes = (
(143,636,l),
(187,636,ls),
(239,636,o),
(264,592,o),
(264,499,cs),
(264,469,ls),
(264,375,o),
(239,331,o),
(187,331,cs),
(143,331,l)
);
},
{
closed = 1;
nodes = (
(132,762,l),
(275,849,l),
(240,916,l),
(110,798,l,{
name = hr00;
})
);
}
);
};
layerId = master01;
shapes = (
{
ref = R;
},
{
pos = (48,160);
ref = acutecomb;
}
);
width = 386;
}
);
unicode = 340;
},
{
glyphname = Rcaron;
lastChange = "2023-03-10 12:36:08 +0000";
layers = (
{
background = {
shapes = (
{
closed = 1;
nodes = (
(143,0,l),
(143,268,l),
(192,268,l),
(270,0,l),
(352,0,l),
(269,286,l),
(319,314,o),
(343,376,o),
(343,479,cs),
(343,484,ls),
(343,633,o),
(294,700,o),
(187,700,cs),
(63,700,l),
(63,0,l,{
name = hr00;
})
);
},
{
closed = 1;
nodes = (
(143,636,l),
(187,636,ls),
(239,636,o),
(264,592,o),
(264,499,cs),
(264,469,ls),
(264,375,o),
(239,331,o),
(187,331,cs),
(143,331,l)
);
},
{
closed = 1;
nodes = (
(201,760,l),
(293,875,l),
(269,910,l),
(192,840,l),
(115,910,l),
(92,875,l),
(182,760,l,{
name = hr00;
})
);
}
);
};
layerId = master01;
shapes = (
{
ref = R;
},
{
pos = (61,160);
ref = caroncomb;
}
);
width = 386;
}
);
unicode = 344;
},
{
glyphname = Rcommaaccent;
lastChange = "2023-03-10 12:36:08 +0000";
layers = (
{
background = {
shapes = (
{
closed = 1;
nodes = (
(143,0,l),
(143,268,l),
(192,268,l),
(270,0,l),
(352,0,l),
(269,286,l),
(319,314,o),
(343,376,o),
(343,479,cs),
(343,484,ls),
(343,633,o),
(294,700,o),
(187,700,cs),
(63,700,l),
(63,0,l,{
name = hr00;
})
);
},
{
closed = 1;
nodes = (
(143,636,l),
(187,636,ls),
(239,636,o),
(264,592,o),
(264,499,cs),
(264,469,ls),
(264,375,o),
(239,331,o),
(187,331,cs),
(143,331,l)
);
},
{
closed = 1;
nodes = (
(186,-132,l),
(174,-216,l),
(204,-222,l),
(243,-128,l),
(243,-50,l),
(164,-50,l),
(164,-132,l,{
name = hr00;
})
);
}
);
};
layerId = master01;
shapes = (
{
ref = R;
},
{
pos = (111,0);
ref = commaaccentcomb;
}
);
width = 386;
}
);
unicode = 342;
},
{
glyphname = S;
lastChange = "2023-03-10 12:35:58 +0000";
layers = (
{
anchors = (
{
name = bottom;
pos = (199,0);
},
{
name = top;
pos = (199,700);
}
);
background = {
shapes = (
{
closed = 1;
nodes = (
(305,-15,o),
(356,41,o),
(356,159,cs),
(356,245,o),
(329,300,o),
(263,348,cs),
(184,407,ls),
(145,436,o),
(133,471,o),
(133,539,cs),
(133,612,o),
(156,648,o),
(203,648,cs),
(250,648,o),
(275,606,o),
(278,520,c),
(354,537,l),
(343,662,o),
(299,715,o),
(204,715,cs,{
name = hr01;
}),
(101,715,o),
(54,656,o),
(54,528,cs),
(54,442,o),
(84,383,o),
(144,339,cs),
(224,280,ls),
(263,251,o),
(278,212,o),
(278,157,cs),
(278,87,o),
(251,51,o),
(199,51,cs),
(148,51,o),
(122,100,o),
(117,208,c),
(42,195,l),
(53,49,o),
(101,-15,o),
(199,-15,c)
);
}
);
};
layerId = master01;
shapes = (
{
closed = 1;
nodes = (
(305,-15,o),
(356,41,o),
(356,159,cs),
(356,245,o),
(329,300,o),
(263,348,cs),
(184,407,ls),
(145,436,o),
(133,471,o),
(133,539,cs),
(133,612,o),
(156,648,o),
(203,648,cs),
(250,648,o),
(275,606,o),
(278,520,c),
(354,537,l),
(343,662,o),
(299,715,o),
(204,715,cs,{
name = hr01;
}),
(101,715,o),
(54,656,o),
(54,528,cs),
(54,442,o),
(84,383,o),
(144,339,cs),
(224,280,ls),
(263,251,o),
(278,212,o),
(278,157,cs),
(278,87,o),
(251,51,o),
(199,51,cs),
(148,51,o),
(122,100,o),
(117,208,c),
(42,195,l),
(53,49,o),
(101,-15,o),
(199,-15,c)
);
}
);
width = 398;
}
);
unicode = 83;
},
{
glyphname = Sacute;
lastChange = "2023-03-10 12:36:08 +0000";
layers = (
{
background = {
shapes = (
{
closed = 1;
nodes = (
(305,-15,o),
(356,41,o),
(356,159,cs),
(356,245,o),
(329,300,o),
(263,348,cs),
(184,407,ls),
(145,436,o),
(133,471,o),
(133,539,cs),
(133,612,o),
(156,648,o),
(203,648,cs),
(250,648,o),
(275,606,o),
(278,520,c),
(354,537,l),
(343,662,o),
(299,715,o),
(204,715,cs,{
name = hr01;
}),
(101,715,o),
(54,656,o),
(54,528,cs),
(54,442,o),
(84,383,o),
(144,339,cs),
(224,280,ls),
(263,251,o),
(278,212,o),
(278,157,cs),
(278,87,o),
(251,51,o),
(199,51,cs),
(148,51,o),
(122,100,o),
(117,208,c),
(42,195,l),
(53,49,o),
(101,-15,o),
(199,-15,c)
);
},
{
closed = 1;
nodes = (
(138,762,l),
(281,849,l),
(246,916,l),
(116,798,l,{
name = hr00;
})
);
}
);
};
layerId = master01;
shapes = (
{
ref = S;
},
{
pos = (54,160);
ref = acutecomb;
}
);
width = 398;
}
);
unicode = 346;
},
{
glyphname = Scaron;
lastChange = "2023-03-10 12:36:08 +0000";
layers = (
{
background = {
shapes = (
{
closed = 1;
nodes = (
(305,-15,o),
(356,41,o),
(356,159,cs),
(356,245,o),
(329,300,o),
(263,348,cs),
(184,407,ls),
(145,436,o),
(133,471,o),
(133,539,cs),
(133,612,o),
(156,648,o),
(203,648,cs),
(250,648,o),
(275,606,o),
(278,520,c),
(354,537,l),
(343,662,o),
(299,715,o),
(204,715,cs,{
name = hr01;
}),
(101,715,o),
(54,656,o),
(54,528,cs),
(54,442,o),
(84,383,o),
(144,339,cs),
(224,280,ls),
(263,251,o),
(278,212,o),
(278,157,cs),
(278,87,o),
(251,51,o),
(199,51,cs),
(148,51,o),
(122,100,o),
(117,208,c),
(42,195,l),
(53,49,o),
(101,-15,o),
(199,-15,c)
);
},
{
closed = 1;
nodes = (
(215,760,l),
(307,875,l),
(283,910,l),
(206,840,l),
(129,910,l),
(106,875,l),
(196,760,l,{
name = hr00;
})
);
}
);
};
layerId = master01;
shapes = (
{
ref = S;
},
{
pos = (67,160);
ref = caroncomb;
}
);
width = 398;
}
);
unicode = 352;
},
{
glyphname = Scedilla;
lastChange = "2023-03-10 12:36:08 +0000";
layers = (
{
background = {
shapes = (
{
closed = 1;
nodes = (
(305,-15,o),
(356,41,o),
(356,159,cs),
(356,245,o),
(329,300,o),
(263,348,cs),
(184,407,ls),
(145,436,o),
(133,471,o),
(133,539,cs),
(133,612,o),
(156,648,o),
(203,648,cs),
(250,648,o),
(275,606,o),
(278,520,c),
(354,537,l),
(343,662,o),
(299,715,o),
(204,715,cs,{
name = hr01;
}),
(101,715,o),
(54,656,o),
(54,528,cs),
(54,442,o),
(84,383,o),
(144,339,cs),
(224,280,ls),
(263,251,o),
(278,212,o),
(278,157,cs),
(278,87,o),
(251,51,o),
(199,51,cs),
(148,51,o),
(122,100,o),
(117,208,c),
(42,195,l),
(53,49,o),
(101,-15,o),
(199,-15,c)
);
},
{
closed = 1;
nodes = (
(241,-195,o),
(262,-171,o),
(262,-122,cs),
(262,-83,o),
(246,-61,o),
(207,-49,c),
(212,0,l),
(181,0,l),
(171,-71,l),
(202,-80,o),
(215,-93,o),
(215,-114,cs),
(215,-124,ls),
(215,-146,o),
(210,-154,o),
(196,-154,cs),
(183,-154,o),
(178,-146,o),
(176,-120,c),
(135,-128,l),
(139,-173,o),
(159,-195,o),
(196,-195,c,{
name = hr00;
})
);
}
);
};
layerId = master01;
shapes = (
{
ref = S;
},
{
pos = (112,0);
ref = cedillacomb;
}
);
width = 398;
}
);
unicode = 350;
},
{
glyphname = Scircumflex;
lastChange = "2023-03-10 12:36:08 +0000";
layers = (
{
background = {
shapes = (
{
closed = 1;
nodes = (
(305,-15,o),
(356,41,o),
(356,159,cs),
(356,245,o),
(329,300,o),
(263,348,cs),
(184,407,ls),
(145,436,o),
(133,471,o),
(133,539,cs),
(133,612,o),
(156,648,o),
(203,648,cs),
(250,648,o),
(275,606,o),
(278,520,c),
(354,537,l),
(343,662,o),
(299,715,o),
(204,715,cs,{
name = hr01;
}),
(101,715,o),
(54,656,o),
(54,528,cs),
(54,442,o),
(84,383,o),
(144,339,cs),
(224,280,ls),
(263,251,o),
(278,212,o),
(278,157,cs),
(278,87,o),
(251,51,o),
(199,51,cs),
(148,51,o),
(122,100,o),
(117,208,c),
(42,195,l),
(53,49,o),
(101,-15,o),
(199,-15,c)
);
},
{
closed = 1;
nodes = (
(188,910,l),
(98,794,l),
(121,760,l),
(198,830,l),
(275,760,l),
(299,794,l),
(207,910,l,{
name = hr00;
})
);
}
);
};
layerId = master01;
shapes = (
{
ref = S;
},
{
pos = (67,160);
ref = circumflexcomb;
}
);
width = 398;
}
);
unicode = 348;
},
{
glyphname = Scommaaccent;
lastChange = "2023-03-10 12:36:08 +0000";
layers = (
{
background = {
shapes = (
{
closed = 1;
nodes = (
(305,-15,o),
(356,41,o),
(356,159,cs),
(356,245,o),
(329,300,o),
(263,348,cs),
(184,407,ls),
(145,436,o),
(133,471,o),
(133,539,cs),
(133,612,o),
(156,648,o),
(203,648,cs),
(250,648,o),
(275,606,o),
(278,520,c),
(354,537,l),
(343,662,o),
(299,715,o),
(204,715,cs,{
name = hr01;
}),
(101,715,o),
(54,656,o),
(54,528,cs),
(54,442,o),
(84,383,o),
(144,339,cs),
(224,280,ls),
(263,251,o),
(278,212,o),
(278,157,cs),
(278,87,o),
(251,51,o),
(199,51,cs),
(148,51,o),
(122,100,o),
(117,208,c),
(42,195,l),
(53,49,o),
(101,-15,o),
(199,-15,c)
);
},
{
closed = 1;
nodes = (
(182,-132,l),
(170,-216,l),
(200,-222,l),
(239,-128,l),
(239,-50,l),
(160,-50,l),
(160,-132,l,{
name = hr00;
})
);
}
);
};
layerId = master01;
shapes = (
{
ref = S;
},
{
pos = (117,0);
ref = commaaccentcomb;
}
);
width = 398;
}
);
unicode = 536;
},
{
glyphname = T;
lastChange = "2023-03-10 12:35:58 +0000";
layers = (
{
anchors = (
{
name = bottom;
pos = (150,0);
},
{
name = center;
pos = (150,350);
},
{
name = top;
pos = (150,700);
}
);
background = {
shapes = (
{
closed = 1;
nodes = (
(110,636,l),
(110,0,l),
(189,0,l),
(189,636,l),
(286,636,l),
(286,700,l),
(13,700,l),
(13,636,l,{
name = hr00;
})
);
}
);
};
layerId = master01;
shapes = (
{
closed = 1;
nodes = (
(110,636,l),
(110,0,l),
(189,0,l),
(189,636,l),
(286,636,l),
(286,700,l),
(13,700,l),
(13,636,l,{
name = hr00;
})
);
}
);
width = 299;
}
);
unicode = 84;
},
{
glyphname = Tbar;
lastChange = "2023-03-10 12:30:02 +0000";
layers = (
{
background = {
shapes = (
{
closed = 1;
nodes = (
(110,636,l),
(110,0,l),
(189,0,l),
(189,636,l),
(286,636,l),
(286,700,l),
(13,700,l),
(13,636,l,{
name = hr00;
})
);
},
{
closed = 1;
nodes = (
(270,367,l),
(28,367,l),
(28,317,l),
(270,317,l,{
name = hr00;
})
);
}
);
};
layerId = master01;
shapes = (
{
alignment = -1;
ref = T;
},
{
alignment = -1;
pos = (-42,0);
ref = barra;
}
);
width = 299;
}
);
unicode = 358;
},
{
glyphname = Tcaron;
lastChange = "2023-03-10 12:36:08 +0000";
layers = (
{
background = {
shapes = (
{
closed = 1;
nodes = (
(110,636,l),
(110,0,l),
(189,0,l),
(189,636,l),
(286,636,l),
(286,700,l),
(13,700,l),
(13,636,l,{
name = hr00;
})
);
},
{
closed = 1;
nodes = (
(158,760,l),
(250,875,l),
(226,910,l),
(149,840,l),
(72,910,l),
(49,875,l),
(139,760,l,{
name = hr00;
})
);
}
);
};
layerId = master01;
shapes = (
{
ref = T;
},
{
pos = (18,160);
ref = caroncomb;
}
);
width = 299;
}
);
unicode = 356;
},
{
glyphname = Tcedilla;
lastChange = "2023-03-10 12:36:08 +0000";
layers = (
{
background = {
shapes = (
{
closed = 1;
nodes = (
(110,636,l),
(110,0,l),
(189,0,l),
(189,636,l),
(286,636,l),
(286,700,l),
(13,700,l),
(13,636,l,{
name = hr00;
})
);
},
{
closed = 1;
nodes = (
(192,-195,o),
(213,-171,o),
(213,-122,cs),
(213,-83,o),
(197,-61,o),
(158,-49,c),
(163,0,l),
(132,0,l),
(122,-71,l),
(153,-80,o),
(166,-93,o),
(166,-114,cs),
(166,-124,ls),
(166,-146,o),
(161,-154,o),
(147,-154,cs),
(134,-154,o),
(129,-146,o),
(127,-120,c),
(86,-128,l),
(90,-173,o),
(110,-195,o),
(147,-195,c,{
name = hr00;
})
);
}
);
};
layerId = master01;
shapes = (
{
ref = T;
},
{
pos = (63,0);
ref = cedillacomb;
}
);
width = 299;
}
);
unicode = 354;
},
{
glyphname = Tcommaaccent;
lastChange = "2023-03-10 12:36:08 +0000";
layers = (
{
background = {
shapes = (
{
closed = 1;
nodes = (
(110,636,l),
(110,0,l),
(189,0,l),
(189,636,l),
(286,636,l),
(286,700,l),
(13,700,l),
(13,636,l,{
name = hr00;
})
);
},
{
closed = 1;
nodes = (
(132,-132,l),
(120,-216,l),
(150,-222,l),
(189,-128,l),
(189,-50,l),
(110,-50,l),
(110,-132,l,{
name = hr00;
})
);
}
);
};
layerId = master01;
shapes = (
{
ref = T;
},
{
pos = (68,0);
ref = commaaccentcomb;
}
);
width = 299;
}
);
unicode = 538;
},
{
glyphname = U;
lastChange = "2023-03-10 12:35:58 +0000";
layers = (
{
anchors = (
{
name = bottom;
pos = (211,0);
},
{
name = ogonek;
pos = (380,10);
},
{
name = top;
pos = (211,700);
},
{
name = topright;
pos = (402,700);
}
);
background = {
shapes = (
{
closed = 1;
nodes = (
(318,-15,o),
(366,53,o),
(366,209,cs),
(366,700,l),
(287,700,l),
(287,194,ls),
(287,95,o),
(263,50,o),
(210,50,cs),
(159,50,o),
(135,96,o),
(135,194,cs),
(135,700,l),
(56,700,l),
(56,209,ls),
(56,55,o),
(104,-15,o),
(210,-15,c,{
name = hr00;
})
);
}
);
};
layerId = master01;
shapes = (
{
closed = 1;
nodes = (
(318,-15,o),
(366,53,o),
(366,209,cs),
(366,700,l),
(287,700,l),
(287,194,ls),
(287,95,o),
(263,50,o),
(210,50,cs),
(159,50,o),
(135,96,o),
(135,194,cs),
(135,700,l),
(56,700,l),
(56,209,ls),
(56,55,o),
(104,-15,o),
(210,-15,c,{
name = hr00;
})
);
}
);
width = 422;
}
);
unicode = 85;
},
{
glyphname = Uacute;
lastChange = "2023-03-10 12:36:08 +0000";
layers = (
{
background = {
shapes = (
{
closed = 1;
nodes = (
(318,-15,o),
(366,53,o),
(366,209,cs),
(366,700,l),
(287,700,l),
(287,194,ls),
(287,95,o),
(263,50,o),
(210,50,cs),
(159,50,o),
(135,96,o),
(135,194,cs),
(135,700,l),
(56,700,l),
(56,209,ls),
(56,55,o),
(104,-15,o),
(210,-15,c,{
name = hr00;
})
);
},
{
closed = 1;
nodes = (
(162,762,l),
(305,849,l),
(270,916,l),
(140,798,l,{
name = hr00;
})
);
}
);
};
layerId = master01;
shapes = (
{
ref = U;
},
{
pos = (66,160);
ref = acutecomb;
}
);
width = 422;
}
);
unicode = 218;
},
{
glyphname = Ubreve;
lastChange = "2023-03-10 12:36:08 +0000";
layers = (
{
background = {
shapes = (
{
closed = 1;
nodes = (
(318,-15,o),
(366,53,o),
(366,209,cs),
(366,700,l),
(287,700,l),
(287,194,ls),
(287,95,o),
(263,50,o),
(210,50,cs),
(159,50,o),
(135,96,o),
(135,194,cs),
(135,700,l),
(56,700,l),
(56,209,ls),
(56,55,o),
(104,-15,o),
(210,-15,c,{
name = hr00;
})
);
},
{
closed = 1;
nodes = (
(220,773,ls),
(279,773,o),
(304,807,o),
(304,888,c),
(262,888,l),
(262,857,o),
(247,841,o),
(218,841,cs),
(204,841,ls),
(171,841,o),
(159,854,o),
(159,888,c),
(118,888,l),
(118,807,o),
(142,773,o),
(201,773,cs,{
name = hr00;
})
);
}
);
};
layerId = master01;
shapes = (
{
ref = U;
},
{
pos = (76,160);
ref = brevecomb;
}
);
width = 422;
}
);
unicode = 364;
},
{
glyphname = Ucircumflex;
lastChange = "2023-03-10 12:36:08 +0000";
layers = (
{
background = {
shapes = (
{
closed = 1;
nodes = (
(318,-15,o),
(366,53,o),
(366,209,cs),
(366,700,l),
(287,700,l),
(287,194,ls),
(287,95,o),
(263,50,o),
(210,50,cs),
(159,50,o),
(135,96,o),
(135,194,cs),
(135,700,l),
(56,700,l),
(56,209,ls),
(56,55,o),
(104,-15,o),
(210,-15,c,{
name = hr00;
})
);
},
{
closed = 1;
nodes = (
(201,910,l),
(111,794,l),
(134,760,l),
(211,830,l),
(288,760,l),
(312,794,l),
(220,910,l,{
name = hr00;
})
);
}
);
};
layerId = master01;
shapes = (
{
ref = U;
},
{
pos = (79,160);
ref = circumflexcomb;
}
);
width = 422;
}
);
unicode = 219;
},
{
glyphname = Udieresis;
lastChange = "2023-03-10 12:36:08 +0000";
layers = (
{
background = {
shapes = (
{
closed = 1;
nodes = (
(318,-15,o),
(366,53,o),
(366,209,cs),
(366,700,l),
(287,700,l),
(287,194,ls),
(287,95,o),
(263,50,o),
(210,50,cs),
(159,50,o),
(135,96,o),
(135,194,cs),
(135,700,l),
(56,700,l),
(56,209,ls),
(56,55,o),
(104,-15,o),
(210,-15,c,{
name = hr00;
})
);
},
{
closed = 1;
nodes = (
(181,806,l),
(181,900,l),
(100,900,l),
(100,806,l,{
name = hr00;
})
);
},
{
closed = 1;
nodes = (
(320,806,l),
(320,900,l),
(240,900,l),
(240,806,l)
);
}
);
};
layerId = master01;
shapes = (
{
ref = U;
},
{
pos = (47,160);
ref = dieresiscomb;
}
);
width = 422;
}
);
unicode = 220;
},
{
glyphname = Ugrave;
lastChange = "2023-03-10 12:36:08 +0000";
layers = (
{
background = {
shapes = (
{
closed = 1;
nodes = (
(318,-15,o),
(366,53,o),
(366,209,cs),
(366,700,l),
(287,700,l),
(287,194,ls),
(287,95,o),
(263,50,o),
(210,50,cs),
(159,50,o),
(135,96,o),
(135,194,cs),
(135,700,l),
(56,700,l),
(56,209,ls),
(56,55,o),
(104,-15,o),
(210,-15,c,{
name = hr00;
})
);
},
{
closed = 1;
nodes = (
(273,762,l),
(130,849,l),
(165,916,l),
(295,798,l,{
name = hr00;
})
);
}
);
};
layerId = master01;
shapes = (
{
ref = U;
},
{
pos = (66,160);
ref = gravecomb;
}
);
width = 422;
}
);
unicode = 217;
},
{
glyphname = Uhungarumlaut;
lastChange = "2023-03-10 12:36:08 +0000";
layers = (
{
background = {
shapes = (
{
closed = 1;
nodes = (
(318,-15,o),
(366,53,o),
(366,209,cs),
(366,700,l),
(287,700,l),
(287,194,ls),
(287,95,o),
(263,50,o),
(210,50,cs),
(159,50,o),
(135,96,o),
(135,194,cs),
(135,700,l),
(56,700,l),
(56,209,ls),
(56,55,o),
(104,-15,o),
(210,-15,c,{
name = hr00;
})
);
},
{
closed = 1;
nodes = (
(122,762,l),
(231,858,l),
(187,918,l),
(93,794,l,{
name = hr00;
})
);
},
{
closed = 1;
nodes = (
(259,762,l),
(368,858,l),
(324,918,l),
(230,794,l)
);
}
);
};
layerId = master01;
shapes = (
{
ref = U;
},
{
pos = (10,160);
ref = hungarumlautcomb;
}
);
width = 422;
}
);
unicode = 368;
},
{
glyphname = Umacron;
lastChange = "2023-03-10 12:36:08 +0000";
layers = (
{
background = {
shapes = (
{
closed = 1;
nodes = (
(318,-15,o),
(366,53,o),
(366,209,cs),
(366,700,l),
(287,700,l),
(287,194,ls),
(287,95,o),
(263,50,o),
(210,50,cs),
(159,50,o),
(135,96,o),
(135,194,cs),
(135,700,l),
(56,700,l),
(56,209,ls),
(56,55,o),
(104,-15,o),
(210,-15,c,{
name = hr00;
})
);
},
{
closed = 1;
nodes = (
(306,802,l),
(306,868,l),
(116,868,l),
(116,802,l,{
name = hr00;
})
);
}
);
};
layerId = master01;
shapes = (
{
ref = U;
},
{
pos = (84,160);
ref = macroncomb;
}
);
width = 422;
}
);
unicode = 362;
},
{
glyphname = Uogonek;
lastChange = "2023-03-10 12:36:08 +0000";
layers = (
{
background = {
shapes = (
{
closed = 1;
nodes = (
(318,-15,o),
(366,53,o),
(366,209,cs),
(366,700,l),
(287,700,l),
(287,194,ls),
(287,95,o),
(263,50,o),
(210,50,cs),
(159,50,o),
(135,96,o),
(135,194,cs),
(135,700,l),
(56,700,l),
(56,209,ls),
(56,55,o),
(104,-15,o),
(210,-15,c,{
name = hr00;
})
);
},
{
closed = 1;
nodes = (
(255,-198,o),
(284,-163,o),
(302,-90,c),
(261,-81,l),
(248,-126,o),
(235,-144,o),
(217,-144,cs),
(205,-144,o),
(200,-133,o),
(200,-108,cs),
(200,-77,o),
(220,-32,o),
(247,0,c),
(200,0,l),
(162,-38,o),
(141,-79,o),
(141,-117,cs),
(141,-170,o),
(165,-198,o),
(210,-198,c,{
name = hr00;
})
);
}
);
};
layerId = master01;
shapes = (
{
ref = U;
},
{
pos = (177,10);
ref = ogonekcomb;
}
);
width = 422;
}
);
unicode = 370;
},
{
glyphname = Uring;
lastChange = "2023-03-10 12:36:08 +0000";
layers = (
{
background = {
shapes = (
{
closed = 1;
nodes = (
(318,-15,o),
(366,53,o),
(366,209,cs),
(366,700,l),
(287,700,l),
(287,194,ls),
(287,95,o),
(263,50,o),
(210,50,cs),
(159,50,o),
(135,96,o),
(135,194,cs),
(135,700,l),
(56,700,l),
(56,209,ls),
(56,55,o),
(104,-15,o),
(210,-15,c,{
name = hr00;
})
);
},
{
closed = 1;
nodes = (
(264,746,o),
(287,776,o),
(287,843,cs),
(287,857,l),
(287,924,o),
(264,954,o),
(211,954,cs),
(158,954,o),
(135,924,o),
(135,857,cs),
(135,843,ls),
(135,776,o),
(158,746,o),
(211,746,c,{
name = hr00;
})
);
},
{
closed = 1;
nodes = (
(238,804,o),
(229,788,o),
(211,788,cs),
(193,788,o),
(184,804,o),
(184,837,cs),
(184,863,ls),
(184,896,o),
(193,912,o),
(211,912,cs),
(229,912,o),
(238,896,o),
(238,863,cs),
(238,837,l)
);
}
);
};
layerId = master01;
shapes = (
{
ref = U;
},
{
pos = (111,160);
ref = ringcomb;
}
);
width = 422;
}
);
unicode = 366;
},
{
glyphname = Utilde;
lastChange = "2023-03-10 12:36:08 +0000";
layers = (
{
background = {
shapes = (
{
closed = 1;
nodes = (
(318,-15,o),
(366,53,o),
(366,209,cs),
(366,700,l),
(287,700,l),
(287,194,ls),
(287,95,o),
(263,50,o),
(210,50,cs),
(159,50,o),
(135,96,o),
(135,194,cs),
(135,700,l),
(56,700,l),
(56,209,ls),
(56,55,o),
(104,-15,o),
(210,-15,c,{
name = hr00;
})
);
},
{
closed = 1;
nodes = (
(279,867,o),
(266,860,o),
(252,860,cs),
(228,860,o),
(202,888,o),
(175,888,cs,{
name = hr01;
}),
(139,888,o),
(115,850,o),
(102,825,c),
(125,787,l),
(143,810,o),
(156,818,o),
(170,818,cs),
(194,818,o),
(220,789,o),
(247,789,cs,{
name = hr02;
}),
(283,789,o),
(306,828,o),
(320,852,c),
(296,890,l)
);
}
);
};
layerId = master01;
shapes = (
{
ref = U;
},
{
pos = (61,160);
ref = tildecomb;
}
);
width = 422;
}
);
unicode = 360;
},
{
glyphname = V;
lastChange = "2023-03-10 12:35:58 +0000";
layers = (
{
anchors = (
{
name = bottom;
pos = (196,0);
},
{
name = top;
pos = (196,700);
}
);
background = {
shapes = (
{
closed = 1;
nodes = (
(16,700,l),
(146,0,l),
(246,0,l),
(376,700,l),
(296,700,l),
(196,116,l),
(96,700,l,{
name = hr00;
})
);
}
);
};
layerId = master01;
shapes = (
{
closed = 1;
nodes = (
(16,700,l),
(146,0,l),
(246,0,l),
(376,700,l),
(296,700,l),
(196,116,l),
(96,700,l,{
name = hr00;
})
);
}
);
width = 392;
}
);
unicode = 86;
},
{
glyphname = W;
lastChange = "2023-03-10 12:35:58 +0000";
layers = (
{
anchors = (
{
name = bottom;
pos = (289,0);
},
{
name = top;
pos = (289,700);
}
);
background = {
shapes = (
{
closed = 1;
nodes = (
(454,0,l),
(559,700,l),
(479,700,l),
(406,165,l),
(321,700,l),
(259,700,l),
(171,164,l),
(99,700,l),
(19,700,l),
(124,0,l),
(206,0,l),
(289,509,l),
(372,0,l,{
name = hr00;
})
);
}
);
};
layerId = master01;
shapes = (
{
closed = 1;
nodes = (
(454,0,l),
(559,700,l),
(479,700,l),
(406,165,l),
(321,700,l),
(259,700,l),
(171,164,l),
(99,700,l),
(19,700,l),
(124,0,l),
(206,0,l),
(289,509,l),
(372,0,l,{
name = hr00;
})
);
}
);
width = 578;
}
);
unicode = 87;
},
{
glyphname = Wacute;
lastChange = "2023-03-10 12:36:08 +0000";
layers = (
{
background = {
shapes = (
{
closed = 1;
nodes = (
(454,0,l),
(559,700,l),
(479,700,l),
(406,165,l),
(321,700,l),
(259,700,l),
(171,164,l),
(99,700,l),
(19,700,l),
(124,0,l),
(206,0,l),
(289,509,l),
(372,0,l,{
name = hr00;
})
);
},
{
closed = 1;
nodes = (
(238,762,l),
(381,849,l),
(346,916,l),
(216,798,l,{
name = hr00;
})
);
}
);
};
layerId = master01;
shapes = (
{
ref = W;
},
{
pos = (144,160);
ref = acutecomb;
}
);
width = 578;
}
);
unicode = 7810;
},
{
glyphname = Wcircumflex;
lastChange = "2023-03-10 12:36:08 +0000";
layers = (
{
background = {
shapes = (
{
closed = 1;
nodes = (
(454,0,l),
(559,700,l),
(479,700,l),
(406,165,l),
(321,700,l),
(259,700,l),
(171,164,l),
(99,700,l),
(19,700,l),
(124,0,l),
(206,0,l),
(289,509,l),
(372,0,l,{
name = hr00;
})
);
},
{
closed = 1;
nodes = (
(278,910,l),
(188,794,l),
(211,760,l),
(288,830,l),
(365,760,l),
(389,794,l),
(297,910,l,{
name = hr00;
})
);
}
);
};
layerId = master01;
shapes = (
{
ref = W;
},
{
pos = (157,160);
ref = circumflexcomb;
}
);
width = 578;
}
);
unicode = 372;
},
{
glyphname = Wdieresis;
lastChange = "2023-03-10 12:36:08 +0000";
layers = (
{
background = {
shapes = (
{
closed = 1;
nodes = (
(454,0,l),
(559,700,l),
(479,700,l),
(406,165,l),
(321,700,l),
(259,700,l),
(171,164,l),
(99,700,l),
(19,700,l),
(124,0,l),
(206,0,l),
(289,509,l),
(372,0,l,{
name = hr00;
})
);
},
{
closed = 1;
nodes = (
(260,806,l),
(260,900,l),
(179,900,l),
(179,806,l,{
name = hr00;
})
);
},
{
closed = 1;
nodes = (
(399,806,l),
(399,900,l),
(319,900,l),
(319,806,l)
);
}
);
};
layerId = master01;
shapes = (
{
ref = W;
},
{
pos = (125,160);
ref = dieresiscomb;
}
);
width = 578;
}
);
unicode = 7812;
},
{
glyphname = Wgrave;
lastChange = "2023-03-10 12:36:08 +0000";
layers = (
{
background = {
shapes = (
{
closed = 1;
nodes = (
(454,0,l),
(559,700,l),
(479,700,l),
(406,165,l),
(321,700,l),
(259,700,l),
(171,164,l),
(99,700,l),
(19,700,l),
(124,0,l),
(206,0,l),
(289,509,l),
(372,0,l,{
name = hr00;
})
);
},
{
closed = 1;
nodes = (
(349,762,l),
(206,849,l),
(241,916,l),
(371,798,l,{
name = hr00;
})
);
}
);
};
layerId = master01;
shapes = (
{
ref = W;
},
{
pos = (144,160);
ref = gravecomb;
}
);
width = 578;
}
);
unicode = 7808;
},
{
glyphname = X;
lastChange = "2023-03-10 12:35:58 +0000";
layers = (
{
anchors = (
{
name = bottom;
pos = (191,0);
},
{
name = top;
pos = (191,700);
}
);
background = {
shapes = (
{
closed = 1;
nodes = (
(24,700,l),
(153,355,l),
(16,0,l),
(92,0,l),
(189,259,l),
(287,0,l),
(365,0,l),
(231,356,l),
(365,700,l),
(289,700,l),
(196,449,l),
(102,700,l,{
name = hr00;
})
);
}
);
};
layerId = master01;
shapes = (
{
closed = 1;
nodes = (
(24,700,l),
(153,355,l),
(16,0,l),
(92,0,l),
(189,259,l),
(287,0,l),
(365,0,l),
(231,356,l),
(365,700,l),
(289,700,l),
(196,449,l),
(102,700,l,{
name = hr00;
})
);
}
);
width = 381;
}
);
unicode = 88;
},
{
glyphname = Y;
lastChange = "2023-03-10 12:35:58 +0000";
layers = (
{
anchors = (
{
name = bottom;
pos = (187,0);
},
{
name = top;
pos = (187,700);
},
{
name = topleft;
pos = (20,700);
}
);
background = {
shapes = (
{
closed = 1;
nodes = (
(16,700,l),
(148,234,l),
(148,0,l),
(226,0,l),
(226,234,l),
(357,700,l),
(279,700,l),
(187,339,l),
(94,700,l,{
name = hr00;
})
);
}
);
};
layerId = master01;
shapes = (
{
closed = 1;
nodes = (
(16,700,l),
(148,234,l),
(148,0,l),
(226,0,l),
(226,234,l),
(357,700,l),
(279,700,l),
(187,339,l),
(94,700,l,{
name = hr00;
})
);
}
);
width = 374;
}
);
unicode = 89;
},
{
glyphname = Yacute;
lastChange = "2023-03-10 12:36:08 +0000";
layers = (
{
background = {
shapes = (
{
closed = 1;
nodes = (
(16,700,l),
(148,234,l),
(148,0,l),
(226,0,l),
(226,234,l),
(357,700,l),
(279,700,l),
(187,339,l),
(94,700,l,{
name = hr00;
})
);
},
{
closed = 1;
nodes = (
(139,762,l),
(282,849,l),
(247,916,l),
(117,798,l,{
name = hr00;
})
);
}
);
};
layerId = master01;
shapes = (
{
ref = Y;
},
{
pos = (42,160);
ref = acutecomb;
}
);
width = 374;
}
);
unicode = 221;
},
{
glyphname = Ycircumflex;
lastChange = "2023-03-10 12:36:08 +0000";
layers = (
{
background = {
shapes = (
{
closed = 1;
nodes = (
(16,700,l),
(148,234,l),
(148,0,l),
(226,0,l),
(226,234,l),
(357,700,l),
(279,700,l),
(187,339,l),
(94,700,l,{
name = hr00;
})
);
},
{
closed = 1;
nodes = (
(176,910,l),
(86,794,l),
(109,760,l),
(186,830,l),
(263,760,l),
(287,794,l),
(195,910,l,{
name = hr00;
})
);
}
);
};
layerId = master01;
shapes = (
{
ref = Y;
},
{
pos = (55,160);
ref = circumflexcomb;
}
);
width = 374;
}
);
unicode = 374;
},
{
glyphname = Ydieresis;
lastChange = "2023-03-10 12:36:08 +0000";
layers = (
{
background = {
shapes = (
{
closed = 1;
nodes = (
(16,700,l),
(148,234,l),
(148,0,l),
(226,0,l),
(226,234,l),
(357,700,l),
(279,700,l),
(187,339,l),
(94,700,l,{
name = hr00;
})
);
},
{
closed = 1;
nodes = (
(158,806,l),
(158,900,l),
(77,900,l),
(77,806,l,{
name = hr00;
})
);
},
{
closed = 1;
nodes = (
(297,806,l),
(297,900,l),
(217,900,l),
(217,806,l)
);
}
);
};
layerId = master01;
shapes = (
{
ref = Y;
},
{
pos = (23,160);
ref = dieresiscomb;
}
);
width = 374;
}
);
unicode = 376;
},
{
glyphname = Ygrave;
lastChange = "2023-03-10 12:36:08 +0000";
layers = (
{
background = {
shapes = (
{
closed = 1;
nodes = (
(16,700,l),
(148,234,l),
(148,0,l),
(226,0,l),
(226,234,l),
(357,700,l),
(279,700,l),
(187,339,l),
(94,700,l,{
name = hr00;
})
);
},
{
closed = 1;
nodes = (
(248,762,l),
(105,849,l),
(140,916,l),
(270,798,l,{
name = hr00;
})
);
}
);
};
layerId = master01;
shapes = (
{
ref = Y;
},
{
pos = (42,160);
ref = gravecomb;
}
);
width = 374;
}
);
unicode = 7922;
},
{
glyphname = Z;
lastChange = "2023-03-10 12:35:58 +0000";
layers = (
{
anchors = (
{
name = bottom;
pos = (176,0);
},
{
name = center;
pos = (176,350);
},
{
name = top;
pos = (176,700);
}
);
background = {
shapes = (
{
closed = 1;
nodes = (
(328,0,l),
(328,64,l),
(106,64,l),
(328,662,l),
(328,700,l),
(42,700,l),
(42,636,l),
(245,636,l),
(23,38,l),
(23,0,l,{
name = hr00;
})
);
}
);
};
layerId = master01;
shapes = (
{
closed = 1;
nodes = (
(328,0,l),
(328,64,l),
(106,64,l),
(328,662,l),
(328,700,l),
(42,700,l),
(42,636,l),
(245,636,l),
(23,38,l),
(23,0,l,{
name = hr00;
})
);
}
);
width = 351;
}
);
unicode = 90;
},
{
glyphname = Zacute;
lastChange = "2023-03-10 12:36:08 +0000";
layers = (
{
background = {
shapes = (
{
closed = 1;
nodes = (
(328,0,l),
(328,64,l),
(106,64,l),
(328,662,l),
(328,700,l),
(42,700,l),
(42,636,l),
(245,636,l),
(23,38,l),
(23,0,l,{
name = hr00;
})
);
},
{
closed = 1;
nodes = (
(125,762,l),
(268,849,l),
(233,916,l),
(103,798,l,{
name = hr00;
})
);
}
);
};
layerId = master01;
shapes = (
{
ref = Z;
},
{
pos = (31,160);
ref = acutecomb;
}
);
width = 351;
}
);
unicode = 377;
},
{
glyphname = Zcaron;
lastChange = "2023-03-10 12:36:08 +0000";
layers = (
{
background = {
shapes = (
{
closed = 1;
nodes = (
(328,0,l),
(328,64,l),
(106,64,l),
(328,662,l),
(328,700,l),
(42,700,l),
(42,636,l),
(245,636,l),
(23,38,l),
(23,0,l,{
name = hr00;
})
);
},
{
closed = 1;
nodes = (
(198,760,l),
(290,875,l),
(266,910,l),
(189,840,l),
(112,910,l),
(89,875,l),
(179,760,l,{
name = hr00;
})
);
}
);
};
layerId = master01;
shapes = (
{
ref = Z;
},
{
pos = (44,160);
ref = caroncomb;
}
);
width = 351;
}
);
unicode = 381;
},
{
glyphname = Zdotaccent;
lastChange = "2023-03-10 12:36:08 +0000";
layers = (
{
background = {
shapes = (
{
closed = 1;
nodes = (
(328,0,l),
(328,64,l),
(106,64,l),
(328,662,l),
(328,700,l),
(42,700,l),
(42,636,l),
(245,636,l),
(23,38,l),
(23,0,l,{
name = hr00;
})
);
},
{
closed = 1;
nodes = (
(227,806,l),
(227,900,l),
(144,900,l),
(144,806,l,{
name = hr00;
})
);
}
);
};
layerId = master01;
shapes = (
{
ref = Z;
},
{
pos = (74,160);
ref = dotaccentcomb;
}
);
width = 351;
}
);
unicode = 379;
},
{
glyphname = a;
lastChange = "2023-03-10 12:35:58 +0000";
layers = (
{
anchors = (
{
name = bottom;
pos = (184,0);
},
{
name = ogonek;
pos = (331,10);
},
{
name = top;
pos = (184,540);
}
);
background = {
shapes = (
{
closed = 1;
nodes = (
(200,-15,o),
(235,15,o),
(249,65,c),
(265,0,l),
(312,0,l),
(312,379,ls),
(312,498,o),
(270,555,o),
(182,555,cs,{
name = hr01;
}),
(136,555,o),
(84,529,o),
(51,489,c),
(78,433,l),
(107,470,o),
(143,492,o),
(175,492,cs),
(215,492,o),
(235,460,o),
(235,396,cs),
(235,291,l),
(216,317,o),
(187,331,o),
(155,331,cs),
(77,331,o),
(45,283,o),
(45,167,cs),
(45,149,ls),
(45,33,o),
(77,-15,o),
(155,-15,c)
);
},
{
closed = 1;
nodes = (
(137,48,o),
(121,78,o),
(121,143,cs),
(121,182,ls),
(121,247,o),
(137,277,o),
(171,277,cs),
(213,277,o),
(235,242,o),
(235,172,cs),
(235,145,ls),
(235,80,o),
(214,48,o),
(171,48,cs,{
name = hr02;
})
);
}
);
};
layerId = master01;
shapes = (
{
closed = 1;
nodes = (
(200,-15,o),
(235,15,o),
(249,65,c),
(265,0,l),
(312,0,l),
(312,379,ls),
(312,498,o),
(270,555,o),
(182,555,cs,{
name = hr01;
}),
(136,555,o),
(84,529,o),
(51,489,c),
(78,433,l),
(107,470,o),
(143,492,o),
(175,492,cs),
(215,492,o),
(235,460,o),
(235,396,cs),
(235,291,l),
(216,317,o),
(187,331,o),
(155,331,cs),
(77,331,o),
(45,283,o),
(45,167,cs),
(45,149,ls),
(45,33,o),
(77,-15,o),
(155,-15,c)
);
},
{
closed = 1;
nodes = (
(137,48,o),
(121,78,o),
(121,143,cs),
(121,182,ls),
(121,247,o),
(137,277,o),
(171,277,cs),
(213,277,o),
(235,242,o),
(235,172,cs),
(235,145,ls),
(235,80,o),
(214,48,o),
(171,48,cs,{
name = hr02;
})
);
}
);
width = 368;
}
);
unicode = 97;
},
{
glyphname = aacute;
lastChange = "2023-03-10 12:36:08 +0000";
layers = (
{
background = {
shapes = (
{
closed = 1;
nodes = (
(200,-15,o),
(235,15,o),
(249,65,c),
(265,0,l),
(312,0,l),
(312,379,ls),
(312,498,o),
(270,555,o),
(182,555,cs,{
name = hr01;
}),
(136,555,o),
(84,529,o),
(51,489,c),
(78,433,l),
(107,470,o),
(143,492,o),
(175,492,cs),
(215,492,o),
(235,460,o),
(235,396,cs),
(235,291,l),
(216,317,o),
(187,331,o),
(155,331,cs),
(77,331,o),
(45,283,o),
(45,167,cs),
(45,149,ls),
(45,33,o),
(77,-15,o),
(155,-15,c)
);
},
{
closed = 1;
nodes = (
(137,48,o),
(121,78,o),
(121,143,cs),
(121,182,ls),
(121,247,o),
(137,277,o),
(171,277,cs),
(213,277,o),
(235,242,o),
(235,172,cs),
(235,145,ls),
(235,80,o),
(214,48,o),
(171,48,cs,{
name = hr02;
})
);
},
{
closed = 1;
nodes = (
(146,602,l),
(289,689,l),
(254,756,l),
(124,638,l,{
name = hr00;
})
);
}
);
};
layerId = master01;
shapes = (
{
ref = a;
},
{
pos = (39,0);
ref = acutecomb;
}
);
width = 368;
}
);
unicode = 225;
},
{
glyphname = abreve;
lastChange = "2023-03-10 12:36:08 +0000";
layers = (
{
background = {
shapes = (
{
closed = 1;
nodes = (
(200,-15,o),
(235,15,o),
(249,65,c),
(265,0,l),
(312,0,l),
(312,379,ls),
(312,498,o),
(270,555,o),
(182,555,cs,{
name = hr01;
}),
(136,555,o),
(84,529,o),
(51,489,c),
(78,433,l),
(107,470,o),
(143,492,o),
(175,492,cs),
(215,492,o),
(235,460,o),
(235,396,cs),
(235,291,l),
(216,317,o),
(187,331,o),
(155,331,cs),
(77,331,o),
(45,283,o),
(45,167,cs),
(45,149,ls),
(45,33,o),
(77,-15,o),
(155,-15,c)
);
},
{
closed = 1;
nodes = (
(137,48,o),
(121,78,o),
(121,143,cs),
(121,182,ls),
(121,247,o),
(137,277,o),
(171,277,cs),
(213,277,o),
(235,242,o),
(235,172,cs),
(235,145,ls),
(235,80,o),
(214,48,o),
(171,48,cs,{
name = hr02;
})
);
},
{
closed = 1;
nodes = (
(193,613,ls),
(252,613,o),
(277,647,o),
(277,728,c),
(235,728,l),
(235,697,o),
(220,681,o),
(191,681,cs),
(177,681,ls),
(144,681,o),
(132,694,o),
(132,728,c),
(91,728,l),
(91,647,o),
(115,613,o),
(174,613,cs,{
name = hr00;
})
);
}
);
};
layerId = master01;
shapes = (
{
ref = a;
},
{
pos = (49,0);
ref = brevecomb;
}
);
width = 368;
}
);
unicode = 259;
},
{
glyphname = acircumflex;
lastChange = "2023-03-10 12:36:08 +0000";
layers = (
{
background = {
shapes = (
{
closed = 1;
nodes = (
(200,-15,o),
(235,15,o),
(249,65,c),
(265,0,l),
(312,0,l),
(312,379,ls),
(312,498,o),
(270,555,o),
(182,555,cs,{
name = hr01;
}),
(136,555,o),
(84,529,o),
(51,489,c),
(78,433,l),
(107,470,o),
(143,492,o),
(175,492,cs),
(215,492,o),
(235,460,o),
(235,396,cs),
(235,291,l),
(216,317,o),
(187,331,o),
(155,331,cs),
(77,331,o),
(45,283,o),
(45,167,cs),
(45,149,ls),
(45,33,o),
(77,-15,o),
(155,-15,c)
);
},
{
closed = 1;
nodes = (
(137,48,o),
(121,78,o),
(121,143,cs),
(121,182,ls),
(121,247,o),
(137,277,o),
(171,277,cs),
(213,277,o),
(235,242,o),
(235,172,cs),
(235,145,ls),
(235,80,o),
(214,48,o),
(171,48,cs,{
name = hr02;
})
);
},
{
closed = 1;
nodes = (
(174,750,l),
(84,634,l),
(107,600,l),
(184,670,l),
(261,600,l),
(285,634,l),
(193,750,l,{
name = hr00;
})
);
}
);
};
layerId = master01;
shapes = (
{
ref = a;
},
{
pos = (52,0);
ref = circumflexcomb;
}
);
width = 368;
}
);
unicode = 226;
},
{
glyphname = adieresis;
lastChange = "2023-03-10 12:36:08 +0000";
layers = (
{
background = {
shapes = (
{
closed = 1;
nodes = (
(200,-15,o),
(235,15,o),
(249,65,c),
(265,0,l),
(312,0,l),
(312,379,ls),
(312,498,o),
(270,555,o),
(182,555,cs,{
name = hr01;
}),
(136,555,o),
(84,529,o),
(51,489,c),
(78,433,l),
(107,470,o),
(143,492,o),
(175,492,cs),
(215,492,o),
(235,460,o),
(235,396,cs),
(235,291,l),
(216,317,o),
(187,331,o),
(155,331,cs),
(77,331,o),
(45,283,o),
(45,167,cs),
(45,149,ls),
(45,33,o),
(77,-15,o),
(155,-15,c)
);
},
{
closed = 1;
nodes = (
(137,48,o),
(121,78,o),
(121,143,cs),
(121,182,ls),
(121,247,o),
(137,277,o),
(171,277,cs),
(213,277,o),
(235,242,o),
(235,172,cs),
(235,145,ls),
(235,80,o),
(214,48,o),
(171,48,cs,{
name = hr02;
})
);
},
{
closed = 1;
nodes = (
(156,646,l),
(156,740,l),
(75,740,l),
(75,646,l,{
name = hr00;
})
);
},
{
closed = 1;
nodes = (
(295,646,l),
(295,740,l),
(215,740,l),
(215,646,l)
);
}
);
};
layerId = master01;
shapes = (
{
ref = a;
},
{
pos = (20,0);
ref = dieresiscomb;
}
);
width = 368;
}
);
unicode = 228;
},
{
glyphname = agrave;
lastChange = "2023-03-10 12:36:08 +0000";
layers = (
{
background = {
shapes = (
{
closed = 1;
nodes = (
(200,-15,o),
(235,15,o),
(249,65,c),
(265,0,l),
(312,0,l),
(312,379,ls),
(312,498,o),
(270,555,o),
(182,555,cs,{
name = hr01;
}),
(136,555,o),
(84,529,o),
(51,489,c),
(78,433,l),
(107,470,o),
(143,492,o),
(175,492,cs),
(215,492,o),
(235,460,o),
(235,396,cs),
(235,291,l),
(216,317,o),
(187,331,o),
(155,331,cs),
(77,331,o),
(45,283,o),
(45,167,cs),
(45,149,ls),
(45,33,o),
(77,-15,o),
(155,-15,c)
);
},
{
closed = 1;
nodes = (
(137,48,o),
(121,78,o),
(121,143,cs),
(121,182,ls),
(121,247,o),
(137,277,o),
(171,277,cs),
(213,277,o),
(235,242,o),
(235,172,cs),
(235,145,ls),
(235,80,o),
(214,48,o),
(171,48,cs,{
name = hr02;
})
);
},
{
closed = 1;
nodes = (
(245,602,l),
(102,689,l),
(137,756,l),
(267,638,l,{
name = hr00;
})
);
}
);
};
layerId = master01;
shapes = (
{
ref = a;
},
{
pos = (39,0);
ref = gravecomb;
}
);
width = 368;
}
);
unicode = 224;
},
{
glyphname = amacron;
lastChange = "2023-03-10 12:36:08 +0000";
layers = (
{
background = {
shapes = (
{
closed = 1;
nodes = (
(200,-15,o),
(235,15,o),
(249,65,c),
(265,0,l),
(312,0,l),
(312,379,ls),
(312,498,o),
(270,555,o),
(182,555,cs,{
name = hr01;
}),
(136,555,o),
(84,529,o),
(51,489,c),
(78,433,l),
(107,470,o),
(143,492,o),
(175,492,cs),
(215,492,o),
(235,460,o),
(235,396,cs),
(235,291,l),
(216,317,o),
(187,331,o),
(155,331,cs),
(77,331,o),
(45,283,o),
(45,167,cs),
(45,149,ls),
(45,33,o),
(77,-15,o),
(155,-15,c)
);
},
{
closed = 1;
nodes = (
(137,48,o),
(121,78,o),
(121,143,cs),
(121,182,ls),
(121,247,o),
(137,277,o),
(171,277,cs),
(213,277,o),
(235,242,o),
(235,172,cs),
(235,145,ls),
(235,80,o),
(214,48,o),
(171,48,cs,{
name = hr02;
})
);
},
{
closed = 1;
nodes = (
(279,642,l),
(279,708,l),
(89,708,l),
(89,642,l,{
name = hr00;
})
);
}
);
};
layerId = master01;
shapes = (
{
ref = a;
},
{
pos = (57,0);
ref = macroncomb;
}
);
width = 368;
}
);
unicode = 257;
},
{
glyphname = aogonek;
lastChange = "2023-03-10 12:36:08 +0000";
layers = (
{
background = {
shapes = (
{
closed = 1;
nodes = (
(200,-15,o),
(235,15,o),
(249,65,c),
(265,0,l),
(312,0,l),
(312,379,ls),
(312,498,o),
(270,555,o),
(182,555,cs,{
name = hr01;
}),
(136,555,o),
(84,529,o),
(51,489,c),
(78,433,l),
(107,470,o),
(143,492,o),
(175,492,cs),
(215,492,o),
(235,460,o),
(235,396,cs),
(235,291,l),
(216,317,o),
(187,331,o),
(155,331,cs),
(77,331,o),
(45,283,o),
(45,167,cs),
(45,149,ls),
(45,33,o),
(77,-15,o),
(155,-15,c)
);
},
{
closed = 1;
nodes = (
(137,48,o),
(121,78,o),
(121,143,cs),
(121,182,ls),
(121,247,o),
(137,277,o),
(171,277,cs),
(213,277,o),
(235,242,o),
(235,172,cs),
(235,145,ls),
(235,80,o),
(214,48,o),
(171,48,cs,{
name = hr02;
})
);
},
{
closed = 1;
nodes = (
(320,-198,o),
(349,-163,o),
(367,-90,c),
(326,-81,l),
(313,-126,o),
(300,-144,o),
(282,-144,cs),
(270,-144,o),
(265,-133,o),
(265,-108,cs),
(265,-77,o),
(285,-32,o),
(312,0,c),
(265,0,l),
(227,-38,o),
(206,-79,o),
(206,-117,cs),
(206,-170,o),
(230,-198,o),
(275,-198,c,{
name = hr00;
})
);
}
);
};
layerId = master01;
shapes = (
{
ref = a;
},
{
pos = (128,10);
ref = ogonekcomb;
}
);
width = 368;
}
);
unicode = 261;
},
{
glyphname = aring;
lastChange = "2023-03-10 12:36:08 +0000";
layers = (
{
background = {
shapes = (
{
closed = 1;
nodes = (
(200,-15,o),
(235,15,o),
(249,65,c),
(265,0,l),
(312,0,l),
(312,379,ls),
(312,498,o),
(270,555,o),
(182,555,cs,{
name = hr01;
}),
(136,555,o),
(84,529,o),
(51,489,c),
(78,433,l),
(107,470,o),
(143,492,o),
(175,492,cs),
(215,492,o),
(235,460,o),
(235,396,cs),
(235,291,l),
(216,317,o),
(187,331,o),
(155,331,cs),
(77,331,o),
(45,283,o),
(45,167,cs),
(45,149,ls),
(45,33,o),
(77,-15,o),
(155,-15,c)
);
},
{
closed = 1;
nodes = (
(137,48,o),
(121,78,o),
(121,143,cs),
(121,182,ls),
(121,247,o),
(137,277,o),
(171,277,cs),
(213,277,o),
(235,242,o),
(235,172,cs),
(235,145,ls),
(235,80,o),
(214,48,o),
(171,48,cs,{
name = hr02;
})
);
},
{
closed = 1;
nodes = (
(252,586,o),
(275,616,o),
(275,683,cs),
(275,697,l),
(275,764,o),
(252,794,o),
(199,794,cs),
(146,794,o),
(123,764,o),
(123,697,cs),
(123,683,ls),
(123,616,o),
(146,586,o),
(199,586,c,{
name = hr00;
})
);
},
{
closed = 1;
nodes = (
(226,644,o),
(217,628,o),
(199,628,cs),
(181,628,o),
(172,644,o),
(172,677,cs),
(172,703,ls),
(172,736,o),
(181,752,o),
(199,752,cs),
(217,752,o),
(226,736,o),
(226,703,cs),
(226,677,l)
);
}
);
};
layerId = master01;
shapes = (
{
ref = a;
},
{
pos = (84,0);
ref = ringcomb;
}
);
width = 368;
}
);
unicode = 229;
},
{
glyphname = aringacute;
lastChange = "2023-03-10 12:36:08 +0000";
layers = (
{
background = {
shapes = (
{
closed = 1;
nodes = (
(200,-15,o),
(235,15,o),
(249,65,c),
(265,0,l),
(312,0,l),
(312,379,ls),
(312,498,o),
(270,555,o),
(182,555,cs,{
name = hr01;
}),
(136,555,o),
(84,529,o),
(51,489,c),
(78,433,l),
(107,470,o),
(143,492,o),
(175,492,cs),
(215,492,o),
(235,460,o),
(235,396,cs),
(235,291,l),
(216,317,o),
(187,331,o),
(155,331,cs),
(77,331,o),
(45,283,o),
(45,167,cs),
(45,149,ls),
(45,33,o),
(77,-15,o),
(155,-15,c)
);
},
{
closed = 1;
nodes = (
(137,48,o),
(121,78,o),
(121,143,cs),
(121,182,ls),
(121,247,o),
(137,277,o),
(171,277,cs),
(213,277,o),
(235,242,o),
(235,172,cs),
(235,145,ls),
(235,80,o),
(214,48,o),
(171,48,cs,{
name = hr02;
})
);
},
{
closed = 1;
nodes = (
(238,586,o),
(261,616,o),
(261,683,cs),
(261,697,ls),
(261,716,o),
(260,729,o),
(257,740,c),
(350,787,l),
(319,844,l),
(235,779,l),
(223,789,o),
(206,794,o),
(185,794,cs),
(132,794,o),
(109,764,o),
(109,697,cs),
(109,683,ls),
(109,616,o),
(132,586,o),
(185,586,c,{
name = hr00;
})
);
},
{
closed = 1;
nodes = (
(212,644,o),
(203,628,o),
(185,628,cs),
(167,628,o),
(158,644,o),
(158,677,cs),
(158,703,ls),
(158,736,o),
(167,752,o),
(185,752,cs),
(203,752,o),
(212,736,o),
(212,703,cs),
(212,677,ls)
);
}
);
};
layerId = master01;
shapes = (
{
ref = a;
},
{
pos = (84,0);
ref = ringcomb;
},
{
pos = (39,254);
ref = acutecomb;
}
);
width = 368;
}
);
unicode = 507;
},
{
glyphname = atilde;
lastChange = "2023-03-10 12:36:08 +0000";
layers = (
{
background = {
shapes = (
{
closed = 1;
nodes = (
(200,-15,o),
(235,15,o),
(249,65,c),
(265,0,l),
(312,0,l),
(312,379,ls),
(312,498,o),
(270,555,o),
(182,555,cs,{
name = hr01;
}),
(136,555,o),
(84,529,o),
(51,489,c),
(78,433,l),
(107,470,o),
(143,492,o),
(175,492,cs),
(215,492,o),
(235,460,o),
(235,396,cs),
(235,291,l),
(216,317,o),
(187,331,o),
(155,331,cs),
(77,331,o),
(45,283,o),
(45,167,cs),
(45,149,ls),
(45,33,o),
(77,-15,o),
(155,-15,c)
);
},
{
closed = 1;
nodes = (
(137,48,o),
(121,78,o),
(121,143,cs),
(121,182,ls),
(121,247,o),
(137,277,o),
(171,277,cs),
(213,277,o),
(235,242,o),
(235,172,cs),
(235,145,ls),
(235,80,o),
(214,48,o),
(171,48,cs,{
name = hr02;
})
);
},
{
closed = 1;
nodes = (
(261,707,o),
(248,700,o),
(234,700,cs),
(210,700,o),
(184,728,o),
(157,728,cs,{
name = hr01;
}),
(121,728,o),
(97,690,o),
(84,665,c),
(107,627,l),
(125,650,o),
(138,658,o),
(152,658,cs),
(176,658,o),
(202,629,o),
(229,629,cs,{
name = hr02;
}),
(265,629,o),
(288,668,o),
(302,692,c),
(278,730,l)
);
}
);
};
layerId = master01;
shapes = (
{
ref = a;
},
{
pos = (34,0);
ref = tildecomb;
}
);
width = 368;
}
);
unicode = 227;
},
{
glyphname = ae;
lastChange = "2023-03-10 12:35:58 +0000";
layers = (
{
anchors = (
{
name = bottom;
pos = (284,0);
},
{
name = top;
pos = (284,540);
}
);
background = {
shapes = (
{
closed = 1;
nodes = (
(203,-15,o),
(239,16,o),
(252,68,c),
(273,11,o),
(312,-15,o),
(379,-15,cs),
(465,-15,o),
(505,30,o),
(515,140,c),
(447,151,l),
(440,78,o),
(419,47,o),
(377,47,cs),
(333,47,o),
(312,89,o),
(312,181,cs),
(312,243,l),
(518,243,l),
(518,345,ls),
(518,492,o),
(476,555,o),
(379,555,cs),
(333,555,o),
(300,542,o),
(277,515,c),
(256,542,o),
(224,555,o),
(182,555,cs),
(136,555,o),
(84,529,o),
(51,489,c),
(78,433,l),
(107,470,o),
(143,492,o),
(175,492,cs),
(215,492,o),
(235,460,o),
(235,396,cs),
(235,307,l),
(155,307,ls),
(77,307,o),
(45,263,o),
(45,157,cs),
(45,135,ls),
(45,29,o),
(77,-15,o),
(155,-15,c,{
name = hr00;
})
);
},
{
closed = 1;
nodes = (
(137,48,o),
(121,73,o),
(121,127,cs),
(121,163,ls),
(121,218,o),
(137,243,o),
(171,243,c),
(235,243,l),
(235,139,ls),
(235,76,o),
(215,48,o),
(171,48,c)
);
},
{
closed = 1;
nodes = (
(312,359,ls),
(312,451,o),
(333,493,o),
(377,493,cs),
(421,493,o),
(441,450,o),
(441,359,cs),
(441,307,l),
(312,307,l)
);
}
);
};
layerId = master01;
shapes = (
{
closed = 1;
nodes = (
(203,-15,o),
(239,16,o),
(252,68,c),
(273,11,o),
(312,-15,o),
(379,-15,cs),
(465,-15,o),
(505,30,o),
(515,140,c),
(447,151,l),
(440,78,o),
(419,47,o),
(377,47,cs),
(333,47,o),
(312,89,o),
(312,181,cs),
(312,243,l),
(518,243,l),
(518,345,ls),
(518,492,o),
(476,555,o),
(379,555,cs),
(333,555,o),
(300,542,o),
(277,515,c),
(256,542,o),
(224,555,o),
(182,555,cs),
(136,555,o),
(84,529,o),
(51,489,c),
(78,433,l),
(107,470,o),
(143,492,o),
(175,492,cs),
(215,492,o),
(235,460,o),
(235,396,cs),
(235,307,l),
(155,307,ls),
(77,307,o),
(45,263,o),
(45,157,cs),
(45,135,ls),
(45,29,o),
(77,-15,o),
(155,-15,c,{
name = hr00;
})
);
},
{
closed = 1;
nodes = (
(137,48,o),
(121,73,o),
(121,127,cs),
(121,163,ls),
(121,218,o),
(137,243,o),
(171,243,c),
(235,243,l),
(235,139,ls),
(235,76,o),
(215,48,o),
(171,48,c)
);
},
{
closed = 1;
nodes = (
(312,359,ls),
(312,451,o),
(333,493,o),
(377,493,cs),
(421,493,o),
(441,450,o),
(441,359,cs),
(441,307,l),
(312,307,l)
);
}
);
width = 567;
}
);
unicode = 230;
},
{
glyphname = aeacute;
lastChange = "2023-03-10 12:36:08 +0000";
layers = (
{
background = {
shapes = (
{
closed = 1;
nodes = (
(203,-15,o),
(239,16,o),
(252,68,c),
(273,11,o),
(312,-15,o),
(379,-15,cs),
(465,-15,o),
(505,30,o),
(515,140,c),
(447,151,l),
(440,78,o),
(419,47,o),
(377,47,cs),
(333,47,o),
(312,89,o),
(312,181,cs),
(312,243,l),
(518,243,l),
(518,345,ls),
(518,492,o),
(476,555,o),
(379,555,cs),
(333,555,o),
(300,542,o),
(277,515,c),
(256,542,o),
(224,555,o),
(182,555,cs),
(136,555,o),
(84,529,o),
(51,489,c),
(78,433,l),
(107,470,o),
(143,492,o),
(175,492,cs),
(215,492,o),
(235,460,o),
(235,396,cs),
(235,307,l),
(155,307,ls),
(77,307,o),
(45,263,o),
(45,157,cs),
(45,135,ls),
(45,29,o),
(77,-15,o),
(155,-15,c,{
name = hr00;
})
);
},
{
closed = 1;
nodes = (
(137,48,o),
(121,73,o),
(121,127,cs),
(121,163,ls),
(121,218,o),
(137,243,o),
(171,243,c),
(235,243,l),
(235,139,ls),
(235,76,o),
(215,48,o),
(171,48,c)
);
},
{
closed = 1;
nodes = (
(312,359,ls),
(312,451,o),
(333,493,o),
(377,493,cs),
(421,493,o),
(441,450,o),
(441,359,cs),
(441,307,l),
(312,307,l)
);
},
{
closed = 1;
nodes = (
(243,602,l),
(386,689,l),
(351,756,l),
(221,638,l,{
name = hr00;
})
);
}
);
};
layerId = master01;
shapes = (
{
ref = ae;
},
{
pos = (139,0);
ref = acutecomb;
}
);
width = 567;
}
);
unicode = 509;
},
{
glyphname = b;
lastChange = "2023-03-10 12:35:58 +0000";
layers = (
{
anchors = (
{
name = bottom;
pos = (195,0);
},
{
name = center;
pos = (195,270);
},
{
name = top;
pos = (195,540);
}
);
background = {
shapes = (
{
closed = 1;
nodes = (
(308,-15,o),
(341,49,o),
(341,195,cs),
(341,345,ls),
(341,491,o),
(308,555,o),
(232,555,cs),
(187,555,o),
(154,527,o),
(136,475,c),
(136,740,l),
(63,740,l),
(63,0,l,{
name = hr01;
}),
(110,0,l),
(132,96,l),
(146,23,o),
(180,-15,o),
(232,-15,c)
);
},
{
closed = 1;
nodes = (
(160,47,o),
(136,119,o),
(136,270,cs),
(136,284,ls),
(136,427,o),
(161,493,o),
(215,493,cs),
(251,493,o),
(268,453,o),
(268,369,cs),
(268,171,ls),
(268,85,o),
(250,47,o),
(210,47,c)
);
}
);
};
layerId = master01;
shapes = (
{
closed = 1;
nodes = (
(308,-15,o),
(341,49,o),
(341,195,cs),
(341,345,ls),
(341,491,o),
(308,555,o),
(232,555,cs),
(187,555,o),
(154,527,o),
(136,475,c),
(136,740,l),
(63,740,l),
(63,0,l,{
name = hr01;
}),
(110,0,l),
(132,96,l),
(146,23,o),
(180,-15,o),
(232,-15,c)
);
},
{
closed = 1;
nodes = (
(160,47,o),
(136,119,o),
(136,270,cs),
(136,284,ls),
(136,427,o),
(161,493,o),
(215,493,cs),
(251,493,o),
(268,453,o),
(268,369,cs),
(268,171,ls),
(268,85,o),
(250,47,o),
(210,47,c)
);
}
);
width = 390;
}
);
unicode = 98;
},
{
glyphname = c;
lastChange = "2023-03-10 12:35:58 +0000";
layers = (
{
anchors = (
{
name = bottom;
pos = (173,0);
},
{
name = top;
pos = (173,540);
}
);
background = {
shapes = (
{
closed = 1;
nodes = (
(265,-15,o),
(307,36,o),
(318,157,c),
(253,167,l),
(243,79,o),
(226,48,o),
(184,48,cs),
(143,48,o),
(125,84,o),
(125,168,cs),
(125,359,ls),
(125,456,o),
(141,493,o),
(184,493,cs),
(222,493,o),
(242,458,o),
(245,384,c),
(315,403,l),
(306,508,o),
(265,555,o),
(182,555,cs),
(90,555,o),
(49,490,o),
(49,345,cs),
(49,175,ls),
(49,47,o),
(91,-15,o),
(179,-15,c,{
name = hr00;
})
);
}
);
};
layerId = master01;
shapes = (
{
closed = 1;
nodes = (
(265,-15,o),
(307,36,o),
(318,157,c),
(253,167,l),
(243,79,o),
(226,48,o),
(184,48,cs),
(143,48,o),
(125,84,o),
(125,168,cs),
(125,359,ls),
(125,456,o),
(141,493,o),
(184,493,cs),
(222,493,o),
(242,458,o),
(245,384,c),
(315,403,l),
(306,508,o),
(265,555,o),
(182,555,cs),
(90,555,o),
(49,490,o),
(49,345,cs),
(49,175,ls),
(49,47,o),
(91,-15,o),
(179,-15,c,{
name = hr00;
})
);
}
);
width = 346;
}
);
unicode = 99;
},
{
glyphname = cacute;
lastChange = "2023-03-10 12:36:08 +0000";
layers = (
{
background = {
shapes = (
{
closed = 1;
nodes = (
(265,-15,o),
(307,36,o),
(318,157,c),
(253,167,l),
(243,79,o),
(226,48,o),
(184,48,cs),
(143,48,o),
(125,84,o),
(125,168,cs),
(125,359,ls),
(125,456,o),
(141,493,o),
(184,493,cs),
(222,493,o),
(242,458,o),
(245,384,c),
(315,403,l),
(306,508,o),
(265,555,o),
(182,555,cs),
(90,555,o),
(49,490,o),
(49,345,cs),
(49,175,ls),
(49,47,o),
(91,-15,o),
(179,-15,c,{
name = hr00;
})
);
},
{
closed = 1;
nodes = (
(112,602,l),
(255,689,l),
(220,756,l),
(90,638,l,{
name = hr00;
})
);
}
);
};
layerId = master01;
shapes = (
{
ref = c;
},
{
pos = (28,0);
ref = acutecomb;
}
);
width = 346;
}
);
unicode = 263;
},
{
glyphname = ccaron;
lastChange = "2023-03-10 12:36:08 +0000";
layers = (
{
background = {
shapes = (
{
closed = 1;
nodes = (
(265,-15,o),
(307,36,o),
(318,157,c),
(253,167,l),
(243,79,o),
(226,48,o),
(184,48,cs),
(143,48,o),
(125,84,o),
(125,168,cs),
(125,359,ls),
(125,456,o),
(141,493,o),
(184,493,cs),
(222,493,o),
(242,458,o),
(245,384,c),
(315,403,l),
(306,508,o),
(265,555,o),
(182,555,cs),
(90,555,o),
(49,490,o),
(49,345,cs),
(49,175,ls),
(49,47,o),
(91,-15,o),
(179,-15,c,{
name = hr00;
})
);
},
{
closed = 1;
nodes = (
(181,600,l),
(273,715,l),
(249,750,l),
(172,680,l),
(95,750,l),
(72,715,l),
(162,600,l,{
name = hr00;
})
);
}
);
};
layerId = master01;
shapes = (
{
ref = c;
},
{
pos = (41,0);
ref = caroncomb;
}
);
width = 346;
}
);
unicode = 269;
},
{
glyphname = ccedilla;
lastChange = "2023-03-10 12:36:08 +0000";
layers = (
{
background = {
shapes = (
{
closed = 1;
nodes = (
(265,-15,o),
(307,36,o),
(318,157,c),
(253,167,l),
(243,79,o),
(226,48,o),
(184,48,cs),
(143,48,o),
(125,84,o),
(125,168,cs),
(125,359,ls),
(125,456,o),
(141,493,o),
(184,493,cs),
(222,493,o),
(242,458,o),
(245,384,c),
(315,403,l),
(306,508,o),
(265,555,o),
(182,555,cs),
(90,555,o),
(49,490,o),
(49,345,cs),
(49,175,ls),
(49,47,o),
(91,-15,o),
(179,-15,c,{
name = hr00;
})
);
},
{
closed = 1;
nodes = (
(226,-195,o),
(247,-171,o),
(247,-122,cs),
(247,-83,o),
(231,-61,o),
(192,-49,c),
(197,0,l),
(166,0,l),
(156,-71,l),
(187,-80,o),
(200,-93,o),
(200,-114,cs),
(200,-124,ls),
(200,-146,o),
(195,-154,o),
(181,-154,cs),
(168,-154,o),
(163,-146,o),
(161,-120,c),
(120,-128,l),
(124,-173,o),
(144,-195,o),
(181,-195,c,{
name = hr00;
})
);
}
);
};
layerId = master01;
shapes = (
{
ref = c;
},
{
pos = (86,0);
ref = cedillacomb;
}
);
width = 346;
}
);
unicode = 231;
},
{
glyphname = ccircumflex;
lastChange = "2023-03-10 12:36:08 +0000";
layers = (
{
background = {
shapes = (
{
closed = 1;
nodes = (
(265,-15,o),
(307,36,o),
(318,157,c),
(253,167,l),
(243,79,o),
(226,48,o),
(184,48,cs),
(143,48,o),
(125,84,o),
(125,168,cs),
(125,359,ls),
(125,456,o),
(141,493,o),
(184,493,cs),
(222,493,o),
(242,458,o),
(245,384,c),
(315,403,l),
(306,508,o),
(265,555,o),
(182,555,cs),
(90,555,o),
(49,490,o),
(49,345,cs),
(49,175,ls),
(49,47,o),
(91,-15,o),
(179,-15,c,{
name = hr00;
})
);
},
{
closed = 1;
nodes = (
(162,750,l),
(72,634,l),
(95,600,l),
(172,670,l),
(249,600,l),
(273,634,l),
(181,750,l,{
name = hr00;
})
);
}
);
};
layerId = master01;
shapes = (
{
ref = c;
},
{
pos = (41,0);
ref = circumflexcomb;
}
);
width = 346;
}
);
unicode = 265;
},
{
glyphname = cdotaccent;
lastChange = "2023-03-10 12:36:08 +0000";
layers = (
{
background = {
shapes = (
{
closed = 1;
nodes = (
(265,-15,o),
(307,36,o),
(318,157,c),
(253,167,l),
(243,79,o),
(226,48,o),
(184,48,cs),
(143,48,o),
(125,84,o),
(125,168,cs),
(125,359,ls),
(125,456,o),
(141,493,o),
(184,493,cs),
(222,493,o),
(242,458,o),
(245,384,c),
(315,403,l),
(306,508,o),
(265,555,o),
(182,555,cs),
(90,555,o),
(49,490,o),
(49,345,cs),
(49,175,ls),
(49,47,o),
(91,-15,o),
(179,-15,c,{
name = hr00;
})
);
},
{
closed = 1;
nodes = (
(214,646,l),
(214,740,l),
(131,740,l),
(131,646,l,{
name = hr00;
})
);
}
);
};
layerId = master01;
shapes = (
{
ref = c;
},
{
pos = (71,0);
ref = dotaccentcomb;
}
);
width = 346;
}
);
unicode = 267;
},
{
glyphname = d;
lastChange = "2023-03-10 12:35:58 +0000";
layers = (
{
anchors = (
{
name = bottom;
pos = (196,0);
},
{
name = center;
pos = (196,270);
},
{
name = top;
pos = (196,740);
},
{
name = topright;
pos = (372,740);
}
);
background = {
shapes = (
{
closed = 1;
nodes = (
(210,-15,o),
(245,26,o),
(258,104,c),
(282,0,l),
(329,0,l),
(329,740,l),
(256,740,l),
(256,469,l),
(239,525,o),
(205,555,o),
(158,555,cs),
(83,555,o),
(49,490,o),
(49,345,cs,{
name = hr01;
}),
(49,195,ls),
(49,50,o),
(83,-15,o),
(158,-15,c)
);
},
{
closed = 1;
nodes = (
(253,115,o),
(230,47,o),
(179,47,cs),
(140,47,o),
(123,84,o),
(123,171,cs),
(123,369,ls),
(123,453,o),
(139,493,o),
(174,493,cs),
(230,493,o),
(253,428,o),
(253,270,cs,{
name = hr03;
})
);
}
);
};
layerId = master01;
shapes = (
{
closed = 1;
nodes = (
(210,-15,o),
(245,26,o),
(258,104,c),
(282,0,l),
(329,0,l),
(329,740,l),
(256,740,l),
(256,469,l),
(239,525,o),
(205,555,o),
(158,555,cs),
(83,555,o),
(49,490,o),
(49,345,cs,{
name = hr01;
}),
(49,195,ls),
(49,50,o),
(83,-15,o),
(158,-15,c)
);
},
{
closed = 1;
nodes = (
(253,115,o),
(230,47,o),
(179,47,cs),
(140,47,o),
(123,84,o),
(123,171,cs),
(123,369,ls),
(123,453,o),
(139,493,o),
(174,493,cs),
(230,493,o),
(253,428,o),
(253,270,cs,{
name = hr03;
})
);
}
);
width = 392;
}
);
unicode = 100;
},
{
glyphname = eth;
lastChange = "2023-03-10 12:35:58 +0000";
layers = (
{
anchors = (
{
name = bottom;
pos = (190,0);
},
{
name = top;
pos = (190,740);
}
);
background = {
shapes = (
{
closed = 1;
nodes = (
(287,-15,o),
(330,49,o),
(330,195,cs),
(330,413,ls),
(330,520,o),
(320,606,o),
(301,670,c),
(358,698,l),
(358,748,l),
(286,713,l),
(250,791,o),
(195,822,o),
(93,822,c),
(102,760,l),
(167,760,o),
(201,739,o),
(225,684,c),
(153,649,l),
(153,598,l),
(239,640,l),
(249,596,o),
(255,542,o),
(257,480,c),
(239,518,o),
(212,535,o),
(172,535,cs),
(90,535,o),
(49,464,o),
(49,325,cs),
(49,195,ls),
(49,49,o),
(92,-15,o),
(190,-15,c,{
name = hr00;
})
);
},
{
closed = 1;
nodes = (
(253,90,o),
(233,47,o),
(190,47,cs),
(146,47,o),
(125,90,o),
(125,181,cs),
(125,339,ls),
(125,430,o),
(146,473,o),
(190,473,cs),
(233,473,o),
(253,430,o),
(253,339,cs),
(253,181,ls)
);
}
);
};
layerId = master01;
shapes = (
{
closed = 1;
nodes = (
(287,-15,o),
(330,49,o),
(330,195,cs),
(330,413,ls),
(330,520,o),
(320,606,o),
(301,670,c),
(358,698,l),
(358,748,l),
(286,713,l),
(250,791,o),
(195,822,o),
(93,822,c),
(102,760,l),
(167,760,o),
(201,739,o),
(225,684,c),
(153,649,l),
(153,598,l),
(239,640,l),
(249,596,o),
(255,542,o),
(257,480,c),
(239,518,o),
(212,535,o),
(172,535,cs),
(90,535,o),
(49,464,o),
(49,325,cs),
(49,195,ls),
(49,49,o),
(92,-15,o),
(190,-15,c,{
name = hr00;
})
);
},
{
closed = 1;
nodes = (
(253,90,o),
(233,47,o),
(190,47,cs),
(146,47,o),
(125,90,o),
(125,181,cs),
(125,339,ls),
(125,430,o),
(146,473,o),
(190,473,cs),
(233,473,o),
(253,430,o),
(253,339,cs),
(253,181,ls)
);
}
);
width = 379;
}
);
unicode = 240;
},
{
glyphname = dcaron;
lastChange = "2023-03-10 12:36:08 +0000";
layers = (
{
background = {
shapes = (
{
closed = 1;
nodes = (
(210,-15,o),
(245,26,o),
(258,104,c),
(282,0,l),
(329,0,l),
(329,740,l),
(256,740,l),
(256,469,l),
(239,525,o),
(205,555,o),
(158,555,cs),
(83,555,o),
(49,490,o),
(49,345,cs,{
name = hr01;
}),
(49,195,ls),
(49,50,o),
(83,-15,o),
(158,-15,c)
);
},
{
closed = 1;
nodes = (
(253,115,o),
(230,47,o),
(179,47,cs),
(140,47,o),
(123,84,o),
(123,171,cs),
(123,369,ls),
(123,453,o),
(139,493,o),
(174,493,cs),
(230,493,o),
(253,428,o),
(253,270,cs,{
name = hr03;
})
);
},
{
closed = 1;
nodes = (
(391,648,l),
(379,534,l),
(409,528,l),
(448,652,l),
(448,740,l),
(369,740,l),
(369,648,l,{
name = hr00;
})
);
}
);
};
layerId = master01;
shapes = (
{
ref = d;
},
{
pos = (64,200);
ref = caroncomb;
}
);
width = 392;
}
);
unicode = 271;
},
{
glyphname = dcroat;
lastChange = "2023-03-10 12:30:02 +0000";
layers = (
{
background = {
shapes = (
{
closed = 1;
nodes = (
(210,-15,o),
(245,26,o),
(258,104,c),
(282,0,l),
(329,0,l),
(329,740,l),
(256,740,l),
(256,469,l),
(239,525,o),
(205,555,o),
(158,555,cs),
(83,555,o),
(49,490,o),
(49,345,cs,{
name = hr01;
}),
(49,195,ls),
(49,50,o),
(83,-15,o),
(158,-15,c)
);
},
{
closed = 1;
nodes = (
(253,115,o),
(230,47,o),
(179,47,cs),
(140,47,o),
(123,84,o),
(123,171,cs),
(123,369,ls),
(123,453,o),
(139,493,o),
(174,493,cs),
(230,493,o),
(253,428,o),
(253,270,cs,{
name = hr03;
})
);
},
{
closed = 1;
nodes = (
(377,670,l),
(135,670,l),
(135,620,l),
(377,620,l,{
name = hr00;
})
);
}
);
};
layerId = master01;
shapes = (
{
alignment = -1;
ref = d;
},
{
alignment = -1;
pos = (65,303);
ref = barra;
}
);
width = 392;
}
);
unicode = 273;
},
{
glyphname = e;
lastChange = "2023-03-10 12:35:58 +0000";
layers = (
{
anchors = (
{
name = bottom;
pos = (190,0);
},
{
name = ogonek;
pos = (341,10);
},
{
name = top;
pos = (190,540);
}
);
background = {
shapes = (
{
closed = 1;
nodes = (
(278,-15,o),
(319,32,o),
(328,140,c),
(261,151,l),
(252,76,o),
(232,47,o),
(189,47,cs),
(146,47,o),
(125,91,o),
(125,181,cs),
(125,238,l),
(330,238,l),
(330,345,ls),
(330,493,o),
(289,555,o),
(193,555,cs),
(93,555,o),
(49,490,o),
(49,345,cs),
(49,195,ls),
(49,50,o),
(93,-15,o),
(193,-15,cs,{
name = hr00;
})
);
},
{
closed = 1;
nodes = (
(125,359,ls),
(125,450,o),
(146,493,o),
(190,493,cs),
(233,493,o),
(253,450,o),
(253,359,cs),
(253,302,l),
(125,302,l)
);
}
);
};
layerId = master01;
shapes = (
{
closed = 1;
nodes = (
(278,-15,o),
(319,32,o),
(328,140,c),
(261,151,l),
(252,76,o),
(232,47,o),
(189,47,cs),
(146,47,o),
(125,91,o),
(125,181,cs),
(125,238,l),
(330,238,l),
(330,345,ls),
(330,493,o),
(289,555,o),
(193,555,cs),
(93,555,o),
(49,490,o),
(49,345,cs),
(49,195,ls),
(49,50,o),
(93,-15,o),
(193,-15,cs,{
name = hr00;
})
);
},
{
closed = 1;
nodes = (
(125,359,ls),
(125,450,o),
(146,493,o),
(190,493,cs),
(233,493,o),
(253,450,o),
(253,359,cs),
(253,302,l),
(125,302,l)
);
}
);
width = 379;
}
);
unicode = 101;
},
{
glyphname = eacute;
lastChange = "2023-03-10 12:36:08 +0000";
layers = (
{
background = {
shapes = (
{
closed = 1;
nodes = (
(278,-15,o),
(319,32,o),
(328,140,c),
(261,151,l),
(252,76,o),
(232,47,o),
(189,47,cs),
(146,47,o),
(125,91,o),
(125,181,cs),
(125,238,l),
(330,238,l),
(330,345,ls),
(330,493,o),
(289,555,o),
(193,555,cs),
(93,555,o),
(49,490,o),
(49,345,cs),
(49,195,ls),
(49,50,o),
(93,-15,o),
(193,-15,cs,{
name = hr00;
})
);
},
{
closed = 1;
nodes = (
(125,359,ls),
(125,450,o),
(146,493,o),
(190,493,cs),
(233,493,o),
(253,450,o),
(253,359,cs),
(253,302,l),
(125,302,l)
);
},
{
closed = 1;
nodes = (
(137,602,l),
(280,689,l),
(245,756,l),
(115,638,l,{
name = hr00;
})
);
}
);
};
layerId = master01;
shapes = (
{
ref = e;
},
{
pos = (45,0);
ref = acutecomb;
}
);
width = 379;
}
);
unicode = 233;
},
{
glyphname = ebreve;
lastChange = "2023-03-10 12:36:08 +0000";
layers = (
{
background = {
shapes = (
{
closed = 1;
nodes = (
(278,-15,o),
(319,32,o),
(328,140,c),
(261,151,l),
(252,76,o),
(232,47,o),
(189,47,cs),
(146,47,o),
(125,91,o),
(125,181,cs),
(125,238,l),
(330,238,l),
(330,345,ls),
(330,493,o),
(289,555,o),
(193,555,cs),
(93,555,o),
(49,490,o),
(49,345,cs),
(49,195,ls),
(49,50,o),
(93,-15,o),
(193,-15,cs,{
name = hr00;
})
);
},
{
closed = 1;
nodes = (
(125,359,ls),
(125,450,o),
(146,493,o),
(190,493,cs),
(233,493,o),
(253,450,o),
(253,359,cs),
(253,302,l),
(125,302,l)
);
},
{
closed = 1;
nodes = (
(198,613,ls),
(257,613,o),
(282,647,o),
(282,728,c),
(240,728,l),
(240,697,o),
(225,681,o),
(196,681,cs),
(182,681,ls),
(149,681,o),
(137,694,o),
(137,728,c),
(96,728,l),
(96,647,o),
(120,613,o),
(179,613,cs,{
name = hr00;
})
);
}
);
};
layerId = master01;
shapes = (
{
ref = e;
},
{
pos = (55,0);
ref = brevecomb;
}
);
width = 379;
}
);
unicode = 277;
},
{
glyphname = ecaron;
lastChange = "2023-03-10 12:36:08 +0000";
layers = (
{
background = {
shapes = (
{
closed = 1;
nodes = (
(278,-15,o),
(319,32,o),
(328,140,c),
(261,151,l),
(252,76,o),
(232,47,o),
(189,47,cs),
(146,47,o),
(125,91,o),
(125,181,cs),
(125,238,l),
(330,238,l),
(330,345,ls),
(330,493,o),
(289,555,o),
(193,555,cs),
(93,555,o),
(49,490,o),
(49,345,cs),
(49,195,ls),
(49,50,o),
(93,-15,o),
(193,-15,cs,{
name = hr00;
})
);
},
{
closed = 1;
nodes = (
(125,359,ls),
(125,450,o),
(146,493,o),
(190,493,cs),
(233,493,o),
(253,450,o),
(253,359,cs),
(253,302,l),
(125,302,l)
);
},
{
closed = 1;
nodes = (
(198,600,l),
(290,715,l),
(266,750,l),
(189,680,l),
(112,750,l),
(89,715,l),
(179,600,l,{
name = hr00;
})
);
}
);
};
layerId = master01;
shapes = (
{
ref = e;
},
{
pos = (58,0);
ref = caroncomb;
}
);
width = 379;
}
);
unicode = 283;
},
{
glyphname = ecircumflex;
lastChange = "2023-03-10 12:36:08 +0000";
layers = (
{
background = {
shapes = (
{
closed = 1;
nodes = (
(278,-15,o),
(319,32,o),
(328,140,c),
(261,151,l),
(252,76,o),
(232,47,o),
(189,47,cs),
(146,47,o),
(125,91,o),
(125,181,cs),
(125,238,l),
(330,238,l),
(330,345,ls),
(330,493,o),
(289,555,o),
(193,555,cs),
(93,555,o),
(49,490,o),
(49,345,cs),
(49,195,ls),
(49,50,o),
(93,-15,o),
(193,-15,cs,{
name = hr00;
})
);
},
{
closed = 1;
nodes = (
(125,359,ls),
(125,450,o),
(146,493,o),
(190,493,cs),
(233,493,o),
(253,450,o),
(253,359,cs),
(253,302,l),
(125,302,l)
);
},
{
closed = 1;
nodes = (
(180,750,l),
(90,634,l),
(113,600,l),
(190,670,l),
(267,600,l),
(291,634,l),
(199,750,l,{
name = hr00;
})
);
}
);
};
layerId = master01;
shapes = (
{
ref = e;
},
{
pos = (58,0);
ref = circumflexcomb;
}
);
width = 379;
}
);
unicode = 234;
},
{
glyphname = edieresis;
lastChange = "2023-03-10 12:36:08 +0000";
layers = (
{
background = {
shapes = (
{
closed = 1;
nodes = (
(278,-15,o),
(319,32,o),
(328,140,c),
(261,151,l),
(252,76,o),
(232,47,o),
(189,47,cs),
(146,47,o),
(125,91,o),
(125,181,cs),
(125,238,l),
(330,238,l),
(330,345,ls),
(330,493,o),
(289,555,o),
(193,555,cs),
(93,555,o),
(49,490,o),
(49,345,cs),
(49,195,ls),
(49,50,o),
(93,-15,o),
(193,-15,cs,{
name = hr00;
})
);
},
{
closed = 1;
nodes = (
(125,359,ls),
(125,450,o),
(146,493,o),
(190,493,cs),
(233,493,o),
(253,450,o),
(253,359,cs),
(253,302,l),
(125,302,l)
);
},
{
closed = 1;
nodes = (
(161,646,l),
(161,740,l),
(80,740,l),
(80,646,l,{
name = hr00;
})
);
},
{
closed = 1;
nodes = (
(300,646,l),
(300,740,l),
(220,740,l),
(220,646,l)
);
}
);
};
layerId = master01;
shapes = (
{
ref = e;
},
{
pos = (26,0);
ref = dieresiscomb;
}
);
width = 379;
}
);
unicode = 235;
},
{
glyphname = edotaccent;
lastChange = "2023-03-10 12:36:08 +0000";
layers = (
{
background = {
shapes = (
{
closed = 1;
nodes = (
(278,-15,o),
(319,32,o),
(328,140,c),
(261,151,l),
(252,76,o),
(232,47,o),
(189,47,cs),
(146,47,o),
(125,91,o),
(125,181,cs),
(125,238,l),
(330,238,l),
(330,345,ls),
(330,493,o),
(289,555,o),
(193,555,cs),
(93,555,o),
(49,490,o),
(49,345,cs),
(49,195,ls),
(49,50,o),
(93,-15,o),
(193,-15,cs,{
name = hr00;
})
);
},
{
closed = 1;
nodes = (
(125,359,ls),
(125,450,o),
(146,493,o),
(190,493,cs),
(233,493,o),
(253,450,o),
(253,359,cs),
(253,302,l),
(125,302,l)
);
},
{
closed = 1;
nodes = (
(231,646,l),
(231,740,l),
(148,740,l),
(148,646,l,{
name = hr00;
})
);
}
);
};
layerId = master01;
shapes = (
{
ref = e;
},
{
pos = (88,0);
ref = dotaccentcomb;
}
);
width = 379;
}
);
unicode = 279;
},
{
glyphname = egrave;
lastChange = "2023-03-10 12:36:08 +0000";
layers = (
{
background = {
shapes = (
{
closed = 1;
nodes = (
(278,-15,o),
(319,32,o),
(328,140,c),
(261,151,l),
(252,76,o),
(232,47,o),
(189,47,cs),
(146,47,o),
(125,91,o),
(125,181,cs),
(125,238,l),
(330,238,l),
(330,345,ls),
(330,493,o),
(289,555,o),
(193,555,cs),
(93,555,o),
(49,490,o),
(49,345,cs),
(49,195,ls),
(49,50,o),
(93,-15,o),
(193,-15,cs,{
name = hr00;
})
);
},
{
closed = 1;
nodes = (
(125,359,ls),
(125,450,o),
(146,493,o),
(190,493,cs),
(233,493,o),
(253,450,o),
(253,359,cs),
(253,302,l),
(125,302,l)
);
},
{
closed = 1;
nodes = (
(251,602,l),
(108,689,l),
(143,756,l),
(273,638,l,{
name = hr00;
})
);
}
);
};
layerId = master01;
shapes = (
{
ref = e;
},
{
pos = (45,0);
ref = gravecomb;
}
);
width = 379;
}
);
unicode = 232;
},
{
glyphname = emacron;
lastChange = "2023-03-10 12:36:08 +0000";
layers = (
{
background = {
shapes = (
{
closed = 1;
nodes = (
(278,-15,o),
(319,32,o),
(328,140,c),
(261,151,l),
(252,76,o),
(232,47,o),
(189,47,cs),
(146,47,o),
(125,91,o),
(125,181,cs),
(125,238,l),
(330,238,l),
(330,345,ls),
(330,493,o),
(289,555,o),
(193,555,cs),
(93,555,o),
(49,490,o),
(49,345,cs),
(49,195,ls),
(49,50,o),
(93,-15,o),
(193,-15,cs,{
name = hr00;
})
);
},
{
closed = 1;
nodes = (
(125,359,ls),
(125,450,o),
(146,493,o),
(190,493,cs),
(233,493,o),
(253,450,o),
(253,359,cs),
(253,302,l),
(125,302,l)
);
},
{
closed = 1;
nodes = (
(284,642,l),
(284,708,l),
(94,708,l),
(94,642,l,{
name = hr00;
})
);
}
);
};
layerId = master01;
shapes = (
{
ref = e;
},
{
pos = (63,0);
ref = macroncomb;
}
);
width = 379;
}
);
unicode = 275;
},
{
glyphname = eogonek;
lastChange = "2023-03-10 12:36:08 +0000";
layers = (
{
background = {
shapes = (
{
closed = 1;
nodes = (
(278,-15,o),
(319,32,o),
(328,140,c),
(261,151,l),
(252,76,o),
(232,47,o),
(189,47,cs),
(146,47,o),
(125,91,o),
(125,181,cs),
(125,238,l),
(330,238,l),
(330,345,ls),
(330,493,o),
(289,555,o),
(193,555,cs),
(93,555,o),
(49,490,o),
(49,345,cs),
(49,195,ls),
(49,50,o),
(93,-15,o),
(193,-15,cs,{
name = hr00;
})
);
},
{
closed = 1;
nodes = (
(125,359,ls),
(125,450,o),
(146,493,o),
(190,493,cs),
(233,493,o),
(253,450,o),
(253,359,cs),
(253,302,l),
(125,302,l)
);
},
{
closed = 1;
nodes = (
(270,-198,o),
(299,-163,o),
(317,-90,c),
(276,-81,l),
(263,-126,o),
(250,-144,o),
(232,-144,cs),
(220,-144,o),
(215,-133,o),
(215,-108,cs),
(215,-77,o),
(235,-32,o),
(262,0,c),
(215,0,l),
(177,-38,o),
(156,-79,o),
(156,-117,cs),
(156,-170,o),
(180,-198,o),
(225,-198,c,{
name = hr00;
})
);
}
);
};
layerId = master01;
shapes = (
{
ref = e;
},
{
pos = (138,10);
ref = ogonekcomb;
}
);
width = 379;
}
);
unicode = 281;
},
{
glyphname = f;
lastChange = "2023-03-10 12:35:58 +0000";
layers = (
{
anchors = (
{
name = bottom;
pos = (108,0);
},
{
name = top;
pos = (108,740);
}
);
background = {
shapes = (
{
closed = 1;
nodes = (
(138,0,l),
(138,478,l),
(201,478,l),
(201,540,l),
(138,540,l),
(138,560,ls),
(138,650,o),
(153,688,o),
(189,688,cs),
(200,688,o),
(209,685,o),
(222,678,c),
(238,743,l),
(219,751,o),
(198,755,o),
(176,755,cs),
(98,755,o),
(62,689,o),
(62,545,cs),
(62,540,l),
(19,540,l),
(19,478,l),
(62,478,l),
(62,0,l,{
name = hr00;
})
);
}
);
};
layerId = master01;
shapes = (
{
closed = 1;
nodes = (
(138,0,l),
(138,478,l),
(201,478,l),
(201,540,l),
(138,540,l),
(138,560,ls),
(138,650,o),
(153,688,o),
(189,688,cs),
(200,688,o),
(209,685,o),
(222,678,c),
(238,743,l),
(219,751,o),
(198,755,o),
(176,755,cs),
(98,755,o),
(62,689,o),
(62,545,cs),
(62,540,l),
(19,540,l),
(19,478,l),
(62,478,l),
(62,0,l,{
name = hr00;
})
);
}
);
width = 216;
}
);
unicode = 102;
},
{
glyphname = g;
lastChange = "2023-03-10 12:35:58 +0000";
layers = (
{
anchors = (
{
name = bottom;
pos = (187,-180);
},
{
name = top;
pos = (187,540);
}
);
background = {
shapes = (
{
closed = 1;
nodes = (
(230,-195,ls),
(313,-195,o),
(354,-153,o),
(354,-69,cs),
(354,14,o),
(313,56,o),
(230,56,cs),
(168,56,ls),
(131,56,o),
(113,76,o),
(113,116,cs),
(113,139,o),
(120,155,o),
(135,166,c),
(150,162,o),
(167,160,o),
(186,160,cs),
(288,160,o),
(327,214,o),
(327,353,cs),
(327,362,ls,{
name = hr01;
}),
(327,409,o),
(321,447,o),
(310,476,c),
(369,476,l),
(369,555,l),
(358,555,l),
(280,524,l),
(257,545,o),
(226,555,o),
(186,555,cs),
(86,555,o),
(47,501,o),
(47,362,cs),
(47,353,ls),
(47,266,o),
(62,213,o),
(96,185,c,{
name = hr02;
}),
(68,170,o),
(53,143,o),
(53,108,cs),
(53,77,o),
(61,56,o),
(77,44,c),
(38,25,o),
(19,-12,o),
(19,-69,cs),
(19,-153,o),
(60,-195,o),
(142,-195,cs)
);
},
{
closed = 1;
nodes = (
(267,-6,o),
(281,-25,o),
(281,-69,cs),
(281,-112,o),
(267,-131,o),
(236,-131,cs),
(136,-131,ls,{
name = hr03;
}),
(105,-131,o),
(91,-112,o),
(91,-69,cs),
(91,-26,o),
(105,-6,o),
(136,-6,cs),
(236,-6,ls)
);
},
{
closed = 1;
nodes = (
(251,253,o),
(232,217,o),
(187,217,cs),
(143,217,o),
(123,254,o),
(123,335,cs),
(123,380,ls),
(123,461,o),
(143,498,o),
(187,498,cs),
(232,498,o),
(251,462,o),
(251,380,cs),
(251,335,ls,{
name = hr04;
})
);
}
);
};
layerId = master01;
shapes = (
{
closed = 1;
nodes = (
(230,-195,ls),
(313,-195,o),
(354,-153,o),
(354,-69,cs),
(354,14,o),
(313,56,o),
(230,56,cs),
(168,56,ls),
(131,56,o),
(113,76,o),
(113,116,cs),
(113,139,o),
(120,155,o),
(135,166,c),
(150,162,o),
(167,160,o),
(186,160,cs),
(288,160,o),
(327,214,o),
(327,353,cs),
(327,362,ls,{
name = hr01;
}),
(327,409,o),
(321,447,o),
(310,476,c),
(369,476,l),
(369,555,l),
(358,555,l),
(280,524,l),
(257,545,o),
(226,555,o),
(186,555,cs),
(86,555,o),
(47,501,o),
(47,362,cs),
(47,353,ls),
(47,266,o),
(62,213,o),
(96,185,c,{
name = hr02;
}),
(68,170,o),
(53,143,o),
(53,108,cs),
(53,77,o),
(61,56,o),
(77,44,c),
(38,25,o),
(19,-12,o),
(19,-69,cs),
(19,-153,o),
(60,-195,o),
(142,-195,cs)
);
},
{
closed = 1;
nodes = (
(267,-6,o),
(281,-25,o),
(281,-69,cs),
(281,-112,o),
(267,-131,o),
(236,-131,cs),
(136,-131,ls,{
name = hr03;
}),
(105,-131,o),
(91,-112,o),
(91,-69,cs),
(91,-26,o),
(105,-6,o),
(136,-6,cs),
(236,-6,ls)
);
},
{
closed = 1;
nodes = (
(251,253,o),
(232,217,o),
(187,217,cs),
(143,217,o),
(123,254,o),
(123,335,cs),
(123,380,ls),
(123,461,o),
(143,498,o),
(187,498,cs),
(232,498,o),
(251,462,o),
(251,380,cs),
(251,335,ls,{
name = hr04;
})
);
}
);
width = 373;
}
);
unicode = 103;
},
{
glyphname = gbreve;
lastChange = "2023-03-10 12:36:08 +0000";
layers = (
{
background = {
shapes = (
{
closed = 1;
nodes = (
(230,-195,ls),
(313,-195,o),
(354,-153,o),
(354,-69,cs),
(354,14,o),
(313,56,o),
(230,56,cs),
(168,56,ls),
(131,56,o),
(113,76,o),
(113,116,cs),
(113,139,o),
(120,155,o),
(135,166,c),
(150,162,o),
(167,160,o),
(186,160,cs),
(288,160,o),
(327,214,o),
(327,353,cs),
(327,362,ls,{
name = hr01;
}),
(327,409,o),
(321,447,o),
(310,476,c),
(369,476,l),
(369,555,l),
(358,555,l),
(280,524,l),
(257,545,o),
(226,555,o),
(186,555,cs),
(86,555,o),
(47,501,o),
(47,362,cs),
(47,353,ls),
(47,266,o),
(62,213,o),
(96,185,c,{
name = hr02;
}),
(68,170,o),
(53,143,o),
(53,108,cs),
(53,77,o),
(61,56,o),
(77,44,c),
(38,25,o),
(19,-12,o),
(19,-69,cs),
(19,-153,o),
(60,-195,o),
(142,-195,cs)
);
},
{
closed = 1;
nodes = (
(267,-6,o),
(281,-25,o),
(281,-69,cs),
(281,-112,o),
(267,-131,o),
(236,-131,cs),
(136,-131,ls,{
name = hr03;
}),
(105,-131,o),
(91,-112,o),
(91,-69,cs),
(91,-26,o),
(105,-6,o),
(136,-6,cs),
(236,-6,ls)
);
},
{
closed = 1;
nodes = (
(251,253,o),
(232,217,o),
(187,217,cs),
(143,217,o),
(123,254,o),
(123,335,cs),
(123,380,ls),
(123,461,o),
(143,498,o),
(187,498,cs),
(232,498,o),
(251,462,o),
(251,380,cs),
(251,335,ls,{
name = hr04;
})
);
},
{
closed = 1;
nodes = (
(195,613,ls),
(254,613,o),
(279,647,o),
(279,728,c),
(237,728,l),
(237,697,o),
(222,681,o),
(193,681,cs),
(179,681,ls),
(146,681,o),
(134,694,o),
(134,728,c),
(93,728,l),
(93,647,o),
(117,613,o),
(176,613,cs,{
name = hr00;
})
);
}
);
};
layerId = master01;
shapes = (
{
ref = g;
},
{
pos = (52,0);
ref = brevecomb;
}
);
width = 373;
}
);
unicode = 287;
},
{
glyphname = gcircumflex;
lastChange = "2023-03-10 12:36:08 +0000";
layers = (
{
background = {
shapes = (
{
closed = 1;
nodes = (
(230,-195,ls),
(313,-195,o),
(354,-153,o),
(354,-69,cs),
(354,14,o),
(313,56,o),
(230,56,cs),
(168,56,ls),
(131,56,o),
(113,76,o),
(113,116,cs),
(113,139,o),
(120,155,o),
(135,166,c),
(150,162,o),
(167,160,o),
(186,160,cs),
(288,160,o),
(327,214,o),
(327,353,cs),
(327,362,ls,{
name = hr01;
}),
(327,409,o),
(321,447,o),
(310,476,c),
(369,476,l),
(369,555,l),
(358,555,l),
(280,524,l),
(257,545,o),
(226,555,o),
(186,555,cs),
(86,555,o),
(47,501,o),
(47,362,cs),
(47,353,ls),
(47,266,o),
(62,213,o),
(96,185,c,{
name = hr02;
}),
(68,170,o),
(53,143,o),
(53,108,cs),
(53,77,o),
(61,56,o),
(77,44,c),
(38,25,o),
(19,-12,o),
(19,-69,cs),
(19,-153,o),
(60,-195,o),
(142,-195,cs)
);
},
{
closed = 1;
nodes = (
(267,-6,o),
(281,-25,o),
(281,-69,cs),
(281,-112,o),
(267,-131,o),
(236,-131,cs),
(136,-131,ls,{
name = hr03;
}),
(105,-131,o),
(91,-112,o),
(91,-69,cs),
(91,-26,o),
(105,-6,o),
(136,-6,cs),
(236,-6,ls)
);
},
{
closed = 1;
nodes = (
(251,253,o),
(232,217,o),
(187,217,cs),
(143,217,o),
(123,254,o),
(123,335,cs),
(123,380,ls),
(123,461,o),
(143,498,o),
(187,498,cs),
(232,498,o),
(251,462,o),
(251,380,cs),
(251,335,ls,{
name = hr04;
})
);
},
{
closed = 1;
nodes = (
(176,750,l),
(86,634,l),
(109,600,l),
(186,670,l),
(263,600,l),
(287,634,l),
(195,750,l,{
name = hr00;
})
);
}
);
};
layerId = master01;
shapes = (
{
ref = g;
},
{
pos = (55,0);
ref = circumflexcomb;
}
);
width = 373;
}
);
unicode = 285;
},
{
glyphname = gcommaaccent;
lastChange = "2023-03-10 12:36:09 +0000";
layers = (
{
background = {
shapes = (
{
closed = 1;
nodes = (
(230,-195,ls),
(313,-195,o),
(354,-153,o),
(354,-69,cs),
(354,14,o),
(313,56,o),
(230,56,cs),
(168,56,ls),
(131,56,o),
(113,76,o),
(113,116,cs),
(113,139,o),
(120,155,o),
(135,166,c),
(150,162,o),
(167,160,o),
(186,160,cs),
(288,160,o),
(327,214,o),
(327,353,cs),
(327,362,ls,{
name = hr01;
}),
(327,409,o),
(321,447,o),
(310,476,c),
(369,476,l),
(369,555,l),
(358,555,l),
(280,524,l),
(257,545,o),
(226,555,o),
(186,555,cs),
(86,555,o),
(47,501,o),
(47,362,cs),
(47,353,ls),
(47,266,o),
(62,213,o),
(96,185,c,{
name = hr02;
}),
(68,170,o),
(53,143,o),
(53,108,cs),
(53,77,o),
(61,56,o),
(77,44,c),
(38,25,o),
(19,-12,o),
(19,-69,cs),
(19,-153,o),
(60,-195,o),
(142,-195,cs)
);
},
{
closed = 1;
nodes = (
(267,-6,o),
(281,-25,o),
(281,-69,cs),
(281,-112,o),
(267,-131,o),
(236,-131,cs),
(136,-131,ls,{
name = hr03;
}),
(105,-131,o),
(91,-112,o),
(91,-69,cs),
(91,-26,o),
(105,-6,o),
(136,-6,cs),
(236,-6,ls)
);
},
{
closed = 1;
nodes = (
(251,253,o),
(232,217,o),
(187,217,cs),
(143,217,o),
(123,254,o),
(123,335,cs),
(123,380,ls),
(123,461,o),
(143,498,o),
(187,498,cs),
(232,498,o),
(251,462,o),
(251,380,cs),
(251,335,ls,{
name = hr04;
})
);
},
{
closed = 1;
nodes = (
(203,693,l),
(215,777,l),
(185,783,l),
(146,689,l),
(146,611,l),
(225,611,l),
(225,693,l,{
name = hr00;
})
);
}
);
};
layerId = master01;
shapes = (
{
ref = g;
},
{
angle = 180;
pos = (269,540);
ref = commaaccentcomb;
}
);
width = 373;
}
);
unicode = 291;
},
{
glyphname = gdotaccent;
lastChange = "2023-03-10 12:36:08 +0000";
layers = (
{
background = {
shapes = (
{
closed = 1;
nodes = (
(230,-195,ls),
(313,-195,o),
(354,-153,o),
(354,-69,cs),
(354,14,o),
(313,56,o),
(230,56,cs),
(168,56,ls),
(131,56,o),
(113,76,o),
(113,116,cs),
(113,139,o),
(120,155,o),
(135,166,c),
(150,162,o),
(167,160,o),
(186,160,cs),
(288,160,o),
(327,214,o),
(327,353,cs),
(327,362,ls,{
name = hr01;
}),
(327,409,o),
(321,447,o),
(310,476,c),
(369,476,l),
(369,555,l),
(358,555,l),
(280,524,l),
(257,545,o),
(226,555,o),
(186,555,cs),
(86,555,o),
(47,501,o),
(47,362,cs),
(47,353,ls),
(47,266,o),
(62,213,o),
(96,185,c,{
name = hr02;
}),
(68,170,o),
(53,143,o),
(53,108,cs),
(53,77,o),
(61,56,o),
(77,44,c),
(38,25,o),
(19,-12,o),
(19,-69,cs),
(19,-153,o),
(60,-195,o),
(142,-195,cs)
);
},
{
closed = 1;
nodes = (
(267,-6,o),
(281,-25,o),
(281,-69,cs),
(281,-112,o),
(267,-131,o),
(236,-131,cs),
(136,-131,ls,{
name = hr03;
}),
(105,-131,o),
(91,-112,o),
(91,-69,cs),
(91,-26,o),
(105,-6,o),
(136,-6,cs),
(236,-6,ls)
);
},
{
closed = 1;
nodes = (
(251,253,o),
(232,217,o),
(187,217,cs),
(143,217,o),
(123,254,o),
(123,335,cs),
(123,380,ls),
(123,461,o),
(143,498,o),
(187,498,cs),
(232,498,o),
(251,462,o),
(251,380,cs),
(251,335,ls,{
name = hr04;
})
);
},
{
closed = 1;
nodes = (
(228,646,l),
(228,740,l),
(145,740,l),
(145,646,l,{
name = hr00;
})
);
}
);
};
layerId = master01;
shapes = (
{
ref = g;
},
{
pos = (85,0);
ref = dotaccentcomb;
}
);
width = 373;
}
);
unicode = 289;
},
{
glyphname = h;
lastChange = "2023-03-10 12:35:58 +0000";
layers = (
{
anchors = (
{
name = bottom;
pos = (199,0);
},
{
name = center;
pos = (199,370);
},
{
name = top;
pos = (199,740);
}
);
background = {
shapes = (
{
closed = 1;
nodes = (
(140,0,l),
(140,279,ls),
(140,421,o),
(167,493,o),
(216,493,cs),
(249,493,o),
(265,452,o),
(265,368,cs),
(265,0,l),
(342,0,l),
(342,341,ls),
(342,490,o),
(310,555,o),
(235,555,cs),
(184,555,o),
(151,529,o),
(136,476,c),
(136,740,l),
(63,740,l),
(63,0,l,{
name = hr00;
})
);
}
);
};
layerId = master01;
shapes = (
{
closed = 1;
nodes = (
(140,0,l),
(140,279,ls),
(140,421,o),
(167,493,o),
(216,493,cs),
(249,493,o),
(265,452,o),
(265,368,cs),
(265,0,l),
(342,0,l),
(342,341,ls),
(342,490,o),
(310,555,o),
(235,555,cs),
(184,555,o),
(151,529,o),
(136,476,c),
(136,740,l),
(63,740,l),
(63,0,l,{
name = hr00;
})
);
}
);
width = 398;
}
);
unicode = 104;
},
{
glyphname = hbar;
lastChange = "2023-03-10 12:30:02 +0000";
layers = (
{
background = {
shapes = (
{
closed = 1;
nodes = (
(140,0,l),
(140,279,ls),
(140,421,o),
(167,493,o),
(216,493,cs),
(249,493,o),
(265,452,o),
(265,368,cs),
(265,0,l),
(342,0,l),
(342,341,ls),
(342,490,o),
(310,555,o),
(235,555,cs),
(184,555,o),
(151,529,o),
(136,476,c),
(136,740,l),
(63,740,l),
(63,0,l,{
name = hr00;
})
);
},
{
closed = 1;
nodes = (
(257,670,l),
(15,670,l),
(15,620,l),
(257,620,l,{
name = hr00;
})
);
}
);
};
layerId = master01;
shapes = (
{
alignment = -1;
ref = h;
},
{
alignment = -1;
pos = (-55,303);
ref = barra;
}
);
width = 398;
}
);
unicode = 295;
},
{
glyphname = hcircumflex;
lastChange = "2023-03-10 12:36:08 +0000";
layers = (
{
background = {
shapes = (
{
closed = 1;
nodes = (
(140,0,l),
(140,279,ls),
(140,421,o),
(167,493,o),
(216,493,cs),
(249,493,o),
(265,452,o),
(265,368,cs),
(265,0,l),
(342,0,l),
(342,341,ls),
(342,490,o),
(310,555,o),
(235,555,cs),
(184,555,o),
(151,529,o),
(136,476,c),
(136,740,l),
(63,740,l),
(63,0,l,{
name = hr00;
})
);
},
{
closed = 1;
nodes = (
(90,910,l),
(0,794,l),
(23,760,l),
(100,830,l),
(177,760,l),
(201,794,l),
(109,910,l,{
name = hr00;
})
);
}
);
};
layerId = master01;
shapes = (
{
ref = h;
},
{
pos = (67,200);
ref = circumflexcomb;
}
);
width = 398;
}
);
unicode = 293;
},
{
glyphname = i;
lastChange = "2023-03-10 12:36:08 +0000";
layers = (
{
anchors = (
{
name = bottom;
pos = (102,0);
}
);
background = {
shapes = (
{
closed = 1;
nodes = (
(140,0,l),
(140,540,l),
(63,540,l),
(63,0,l,{
name = hr00;
})
);
},
{
closed = 1;
nodes = (
(143,646,l),
(143,740,l),
(60,740,l),
(60,646,l)
);
}
);
};
layerId = master01;
shapes = (
{
ref = idotless;
},
{
ref = dotaccentcomb;
}
);
width = 203;
}
);
unicode = 105;
},
{
glyphname = idotless;
lastChange = "2023-03-10 12:35:58 +0000";
layers = (
{
anchors = (
{
name = bottom;
pos = (102,0);
},
{
name = ogonek;
pos = (183,10);
},
{
name = top;
pos = (102,540);
}
);
background = {
shapes = (
{
closed = 1;
nodes = (
(140,0,l),
(140,540,l),
(63,540,l),
(63,0,l,{
name = hr00;
})
);
}
);
};
layerId = master01;
shapes = (
{
closed = 1;
nodes = (
(140,0,l),
(140,540,l),
(63,540,l),
(63,0,l,{
name = hr00;
})
);
}
);
width = 203;
}
);
unicode = 305;
},
{
glyphname = iacute;
lastChange = "2023-03-10 12:36:08 +0000";
layers = (
{
background = {
shapes = (
{
closed = 1;
nodes = (
(140,0,l),
(140,540,l),
(63,540,l),
(63,0,l,{
name = hr00;
})
);
},
{
closed = 1;
nodes = (
(49,602,l),
(192,689,l),
(157,756,l),
(27,638,l,{
name = hr00;
})
);
}
);
};
layerId = master01;
shapes = (
{
ref = idotless;
},
{
pos = (-43,0);
ref = acutecomb;
}
);
width = 203;
}
);
unicode = 237;
},
{
glyphname = ibreve;
lastChange = "2023-03-10 12:36:08 +0000";
layers = (
{
background = {
shapes = (
{
closed = 1;
nodes = (
(140,0,l),
(140,540,l),
(63,540,l),
(63,0,l,{
name = hr00;
})
);
},
{
closed = 1;
nodes = (
(110,613,ls),
(169,613,o),
(194,647,o),
(194,728,c),
(152,728,l),
(152,697,o),
(137,681,o),
(108,681,cs),
(94,681,ls),
(61,681,o),
(49,694,o),
(49,728,c),
(8,728,l),
(8,647,o),
(32,613,o),
(91,613,cs,{
name = hr00;
})
);
}
);
};
layerId = master01;
shapes = (
{
ref = idotless;
},
{
pos = (-33,0);
ref = brevecomb;
}
);
width = 203;
}
);
unicode = 301;
},
{
glyphname = icircumflex;
lastChange = "2023-03-10 12:36:08 +0000";
layers = (
{
background = {
shapes = (
{
closed = 1;
nodes = (
(140,0,l),
(140,540,l),
(63,540,l),
(63,0,l,{
name = hr00;
})
);
},
{
closed = 1;
nodes = (
(92,750,l),
(2,634,l),
(25,600,l),
(102,670,l),
(179,600,l),
(203,634,l),
(111,750,l,{
name = hr00;
})
);
}
);
};
layerId = master01;
shapes = (
{
ref = idotless;
},
{
pos = (-30,0);
ref = circumflexcomb;
}
);
width = 203;
}
);
unicode = 238;
},
{
glyphname = idieresis;
lastChange = "2023-03-10 12:36:08 +0000";
layers = (
{
background = {
shapes = (
{
closed = 1;
nodes = (
(140,0,l),
(140,540,l),
(63,540,l),
(63,0,l,{
name = hr00;
})
);
},
{
closed = 1;
nodes = (
(73,646,l),
(73,740,l),
(-8,740,l),
(-8,646,l,{
name = hr00;
})
);
},
{
closed = 1;
nodes = (
(212,646,l),
(212,740,l),
(132,740,l),
(132,646,l)
);
}
);
};
layerId = master01;
shapes = (
{
ref = idotless;
},
{
pos = (-62,0);
ref = dieresiscomb;
}
);
width = 203;
}
);
unicode = 239;
},
{
glyphname = igrave;
lastChange = "2023-03-10 12:36:08 +0000";
layers = (
{
background = {
shapes = (
{
closed = 1;
nodes = (
(140,0,l),
(140,540,l),
(63,540,l),
(63,0,l,{
name = hr00;
})
);
},
{
closed = 1;
nodes = (
(162,602,l),
(19,689,l),
(54,756,l),
(184,638,l,{
name = hr00;
})
);
}
);
};
layerId = master01;
shapes = (
{
ref = idotless;
},
{
pos = (-43,0);
ref = gravecomb;
}
);
width = 203;
}
);
unicode = 236;
},
{
glyphname = ij;
lastChange = "2023-03-10 12:36:08 +0000";
layers = (
{
background = {
shapes = (
{
closed = 1;
nodes = (
(140,0,l),
(140,540,l),
(63,540,l),
(63,0,l,{
name = hr00;
})
);
},
{
closed = 1;
nodes = (
(143,646,l),
(143,740,l),
(60,740,l),
(60,646,l)
);
},
{
closed = 1;
nodes = (
(308,-195,o),
(344,-129,o),
(344,15,cs),
(344,540,l),
(268,540,l),
(268,0,ls),
(268,-90,o),
(253,-128,o),
(217,-128,cs),
(206,-128,o),
(196,-125,o),
(184,-118,c),
(169,-183,l),
(187,-191,o),
(208,-195,o),
(230,-195,c,{
name = hr00;
})
);
},
{
closed = 1;
nodes = (
(348,646,l),
(348,740,l),
(264,740,l),
(264,646,l)
);
}
);
};
layerId = master01;
shapes = (
{
ref = i;
},
{
pos = (203,0);
ref = j;
}
);
width = 408;
}
);
unicode = 307;
},
{
glyphname = imacron;
lastChange = "2023-03-10 12:36:08 +0000";
layers = (
{
background = {
shapes = (
{
closed = 1;
nodes = (
(140,0,l),
(140,540,l),
(63,540,l),
(63,0,l,{
name = hr00;
})
);
},
{
closed = 1;
nodes = (
(197,642,l),
(197,708,l),
(7,708,l),
(7,642,l,{
name = hr00;
})
);
}
);
};
layerId = master01;
shapes = (
{
ref = idotless;
},
{
pos = (-25,0);
ref = macroncomb;
}
);
width = 203;
}
);
unicode = 299;
},
{
glyphname = iogonek;
lastChange = "2023-03-10 12:36:08 +0000";
layers = (
{
background = {
shapes = (
{
closed = 1;
nodes = (
(140,0,l),
(140,540,l),
(63,540,l),
(63,0,l,{
name = hr00;
})
);
},
{
closed = 1;
nodes = (
(143,646,l),
(143,740,l),
(60,740,l),
(60,646,l)
);
},
{
closed = 1;
nodes = (
(134,-198,o),
(163,-163,o),
(181,-90,c),
(140,-81,l),
(127,-126,o),
(114,-144,o),
(96,-144,cs),
(84,-144,o),
(79,-133,o),
(79,-108,cs),
(79,-77,o),
(99,-32,o),
(126,0,c),
(79,0,l),
(41,-38,o),
(20,-79,o),
(20,-117,cs),
(20,-170,o),
(44,-198,o),
(89,-198,c,{
name = hr00;
})
);
}
);
};
layerId = master01;
shapes = (
{
ref = idotless;
},
{
ref = dotaccentcomb;
},
{
pos = (-20,10);
ref = ogonekcomb;
}
);
width = 203;
}
);
unicode = 303;
},
{
glyphname = itilde;
lastChange = "2023-03-10 12:36:08 +0000";
layers = (
{
background = {
shapes = (
{
closed = 1;
nodes = (
(140,0,l),
(140,540,l),
(63,540,l),
(63,0,l,{
name = hr00;
})
);
},
{
closed = 1;
nodes = (
(170,707,o),
(157,700,o),
(143,700,cs),
(119,700,o),
(93,728,o),
(66,728,cs,{
name = hr01;
}),
(30,728,o),
(6,690,o),
(-7,665,c),
(16,627,l),
(34,650,o),
(47,658,o),
(61,658,cs),
(85,658,o),
(111,629,o),
(138,629,cs,{
name = hr02;
}),
(174,629,o),
(197,668,o),
(211,692,c),
(187,730,l)
);
}
);
};
layerId = master01;
shapes = (
{
ref = idotless;
},
{
pos = (-48,0);
ref = tildecomb;
}
);
width = 203;
}
);
unicode = 297;
},
{
glyphname = j;
lastChange = "2023-03-10 12:29:43 +0000";
layers = (
{
background = {
shapes = (
{
closed = 1;
nodes = (
(105,-195,o),
(141,-129,o),
(141,15,cs),
(141,540,l),
(65,540,l),
(65,0,ls),
(65,-90,o),
(50,-128,o),
(14,-128,cs),
(3,-128,o),
(-7,-125,o),
(-19,-118,c),
(-34,-183,l),
(-16,-191,o),
(5,-195,o),
(27,-195,c,{
name = hr00;
})
);
},
{
closed = 1;
nodes = (
(145,646,l),
(145,740,l),
(61,740,l),
(61,646,l)
);
}
);
};
layerId = master01;
shapes = (
{
closed = 1;
nodes = (
(105,-195,o),
(141,-129,o),
(141,15,cs),
(141,540,l),
(65,540,l),
(65,0,ls),
(65,-90,o),
(50,-128,o),
(14,-128,cs),
(3,-128,o),
(-7,-125,o),
(-19,-118,c),
(-34,-183,l),
(-16,-191,o),
(5,-195,o),
(27,-195,c,{
name = hr00;
})
);
},
{
closed = 1;
nodes = (
(145,646,l),
(145,740,l),
(61,740,l),
(61,646,l)
);
}
);
width = 205;
}
);
unicode = 106;
},
{
glyphname = jcircumflex;
lastChange = "2023-03-10 12:30:02 +0000";
layers = (
{
background = {
shapes = (
{
closed = 1;
nodes = (
(105,-195,o),
(141,-129,o),
(141,15,cs),
(141,540,l),
(65,540,l),
(65,0,ls),
(65,-90,o),
(50,-128,o),
(14,-128,cs),
(3,-128,o),
(-7,-125,o),
(-19,-118,c),
(-34,-183,l),
(-16,-191,o),
(5,-195,o),
(27,-195,c,{
name = hr00;
})
);
},
{
closed = 1;
nodes = (
(92,750,l),
(2,634,l),
(25,600,l),
(102,670,l),
(179,600,l),
(203,634,l),
(111,750,l,{
name = hr00;
})
);
}
);
};
layerId = master01;
shapes = (
{
alignment = -1;
ref = jdotlessi;
},
{
alignment = -1;
pos = (-29,0);
ref = circumflex;
}
);
width = 205;
}
);
unicode = 309;
},
{
glyphname = k;
lastChange = "2023-03-10 12:35:58 +0000";
layers = (
{
anchors = (
{
name = bottom;
pos = (180,0);
},
{
name = top;
pos = (180,740);
}
);
background = {
shapes = (
{
closed = 1;
nodes = (
(140,204,l),
(166,248,l),
(276,0,l),
(359,0,l),
(211,323,l),
(342,540,l),
(262,540,l),
(140,327,l),
(140,740,l),
(63,740,l),
(63,0,l),
(140,0,l,{
name = hr00;
})
);
}
);
};
layerId = master01;
shapes = (
{
closed = 1;
nodes = (
(140,204,l),
(166,248,l),
(276,0,l),
(359,0,l),
(211,323,l),
(342,540,l),
(262,540,l),
(140,327,l),
(140,740,l),
(63,740,l),
(63,0,l),
(140,0,l,{
name = hr00;
})
);
}
);
width = 359;
}
);
unicode = 107;
},
{
glyphname = kcommaaccent;
lastChange = "2023-03-10 12:36:08 +0000";
layers = (
{
background = {
shapes = (
{
closed = 1;
nodes = (
(140,204,l),
(166,248,l),
(276,0,l),
(359,0,l),
(211,323,l),
(342,540,l),
(262,540,l),
(140,327,l),
(140,740,l),
(63,740,l),
(63,0,l),
(140,0,l,{
name = hr00;
})
);
},
{
closed = 1;
nodes = (
(182,-132,l),
(170,-216,l),
(200,-222,l),
(239,-128,l),
(239,-50,l),
(160,-50,l),
(160,-132,l,{
name = hr00;
})
);
}
);
};
layerId = master01;
shapes = (
{
ref = k;
},
{
pos = (98,0);
ref = commaaccentcomb;
}
);
width = 359;
}
);
unicode = 311;
},
{
glyphname = kgreenlandic;
lastChange = "2023-03-10 12:35:58 +0000";
layers = (
{
anchors = (
{
name = bottom;
pos = (185,0);
},
{
name = top;
pos = (185,540);
}
);
background = {
shapes = (
{
closed = 1;
nodes = (
(140,203,l),
(168,248,l),
(286,0,l),
(369,0,l),
(213,319,l),
(352,540,l),
(272,540,l),
(140,322,l),
(140,540,l),
(63,540,l),
(63,0,l),
(140,0,l,{
name = hr00;
})
);
}
);
};
layerId = master01;
shapes = (
{
closed = 1;
nodes = (
(140,203,l),
(168,248,l),
(286,0,l),
(369,0,l),
(213,319,l),
(352,540,l),
(272,540,l),
(140,322,l),
(140,540,l),
(63,540,l),
(63,0,l),
(140,0,l,{
name = hr00;
})
);
}
);
width = 369;
}
);
unicode = 312;
},
{
glyphname = l;
lastChange = "2023-03-10 12:35:58 +0000";
layers = (
{
anchors = (
{
name = bottom;
pos = (102,0);
},
{
name = center;
pos = (102,370);
},
{
name = top;
pos = (102,740);
},
{
name = topright;
pos = (183,740);
}
);
background = {
shapes = (
{
closed = 1;
nodes = (
(140,0,l),
(140,740,l),
(63,740,l),
(63,0,l,{
name = hr00;
})
);
}
);
};
layerId = master01;
shapes = (
{
closed = 1;
nodes = (
(140,0,l),
(140,740,l),
(63,740,l),
(63,0,l,{
name = hr00;
})
);
}
);
width = 203;
}
);
unicode = 108;
},
{
glyphname = lacute;
lastChange = "2023-03-10 12:36:08 +0000";
layers = (
{
background = {
shapes = (
{
closed = 1;
nodes = (
(140,0,l),
(140,740,l),
(63,740,l),
(63,0,l,{
name = hr00;
})
);
},
{
closed = 1;
nodes = (
(50,762,l),
(193,849,l),
(158,916,l),
(28,798,l,{
name = hr00;
})
);
}
);
};
layerId = master01;
shapes = (
{
ref = l;
},
{
pos = (-43,200);
ref = acutecomb;
}
);
width = 203;
}
);
unicode = 314;
},
{
glyphname = lcaron;
lastChange = "2023-03-10 12:36:08 +0000";
layers = (
{
background = {
shapes = (
{
closed = 1;
nodes = (
(140,0,l),
(140,740,l),
(63,740,l),
(63,0,l,{
name = hr00;
})
);
},
{
closed = 1;
nodes = (
(202,648,l),
(190,534,l),
(220,528,l),
(259,652,l),
(259,740,l),
(180,740,l),
(180,648,l,{
name = hr00;
})
);
}
);
};
layerId = master01;
shapes = (
{
ref = l;
},
{
pos = (-30,200);
ref = caroncomb;
}
);
width = 203;
}
);
unicode = 318;
},
{
glyphname = lcommaaccent;
lastChange = "2023-03-10 12:36:08 +0000";
layers = (
{
background = {
shapes = (
{
closed = 1;
nodes = (
(140,0,l),
(140,740,l),
(63,740,l),
(63,0,l,{
name = hr00;
})
);
},
{
closed = 1;
nodes = (
(84,-132,l),
(72,-216,l),
(102,-222,l),
(141,-128,l),
(141,-50,l),
(62,-50,l),
(62,-132,l,{
name = hr00;
})
);
}
);
};
layerId = master01;
shapes = (
{
ref = l;
},
{
pos = (20,0);
ref = commaaccentcomb;
}
);
width = 203;
}
);
unicode = 316;
},
{
glyphname = ldot;
lastChange = "2023-03-10 12:36:08 +0000";
layers = (
{
background = {
shapes = (
{
closed = 1;
nodes = (
(140,0,l),
(140,740,l),
(63,740,l),
(63,0,l,{
name = hr00;
})
);
},
{
closed = 1;
nodes = (
(259,300,l),
(259,392,l),
(180,392,l),
(180,300,l,{
name = hr00;
})
);
}
);
};
layerId = master01;
shapes = (
{
ref = l;
},
{
ref = periodcentered;
}
);
width = 203;
}
);
unicode = 320;
},
{
glyphname = lslash;
lastChange = "2023-03-10 12:30:02 +0000";
layers = (
{
background = {
shapes = (
{
closed = 1;
nodes = (
(204,381,l),
(204,435,l),
(-1,336,l),
(-1,281,l,{
name = hr00;
})
);
},
{
closed = 1;
nodes = (
(140,0,l),
(140,740,l),
(63,740,l),
(63,0,l,{
name = hr00;
})
);
}
);
};
layerId = master01;
shapes = (
{
closed = 1;
nodes = (
(204,381,l),
(204,435,l),
(-1,336,l),
(-1,281,l,{
name = hr00;
})
);
},
{
ref = l;
}
);
width = 203;
}
);
unicode = 322;
},
{
glyphname = m;
lastChange = "2023-03-10 12:35:58 +0000";
layers = (
{
anchors = (
{
name = bottom;
pos = (294,0);
},
{
name = top;
pos = (294,540);
}
);
background = {
shapes = (
{
closed = 1;
nodes = (
(140,0,l),
(140,279,ls),
(140,417,o),
(166,493,o),
(212,493,cs),
(243,493,o),
(258,453,o),
(258,368,cs),
(258,0,l),
(335,0,l),
(335,279,ls),
(335,417,o),
(360,493,o),
(406,493,cs),
(438,493,o),
(453,453,o),
(453,368,cs),
(453,0,l),
(530,0,l),
(530,341,ls),
(530,490,o),
(498,555,o),
(424,555,cs),
(372,555,o),
(339,522,o),
(325,457,c),
(311,524,o),
(280,555,o),
(229,555,cs),
(176,555,o),
(143,521,o),
(130,455,c),
(110,540,l,{
name = hr01;
}),
(63,540,l),
(63,0,l)
);
}
);
};
layerId = master01;
shapes = (
{
closed = 1;
nodes = (
(140,0,l),
(140,279,ls),
(140,417,o),
(166,493,o),
(212,493,cs),
(243,493,o),
(258,453,o),
(258,368,cs),
(258,0,l),
(335,0,l),
(335,279,ls),
(335,417,o),
(360,493,o),
(406,493,cs),
(438,493,o),
(453,453,o),
(453,368,cs),
(453,0,l),
(530,0,l),
(530,341,ls),
(530,490,o),
(498,555,o),
(424,555,cs),
(372,555,o),
(339,522,o),
(325,457,c),
(311,524,o),
(280,555,o),
(229,555,cs),
(176,555,o),
(143,521,o),
(130,455,c),
(110,540,l,{
name = hr01;
}),
(63,540,l),
(63,0,l)
);
}
);
width = 587;
}
);
unicode = 109;
},
{
glyphname = n;
lastChange = "2023-03-10 12:35:58 +0000";
layers = (
{
anchors = (
{
name = bottom;
pos = (199,0);
},
{
name = top;
pos = (199,540);
}
);
background = {
shapes = (
{
closed = 1;
nodes = (
(140,0,l),
(140,279,ls),
(140,420,o),
(166,493,o),
(216,493,cs),
(249,493,o),
(265,452,o),
(265,368,cs),
(265,0,l),
(342,0,l),
(342,341,ls),
(342,490,o),
(310,555,o),
(235,555,cs),
(179,555,o),
(144,521,o),
(130,454,c),
(110,540,l,{
name = hr01;
}),
(63,540,l),
(63,0,l)
);
}
);
};
layerId = master01;
shapes = (
{
closed = 1;
nodes = (
(140,0,l),
(140,279,ls),
(140,420,o),
(166,493,o),
(216,493,cs),
(249,493,o),
(265,452,o),
(265,368,cs),
(265,0,l),
(342,0,l),
(342,341,ls),
(342,490,o),
(310,555,o),
(235,555,cs),
(179,555,o),
(144,521,o),
(130,454,c),
(110,540,l,{
name = hr01;
}),
(63,540,l),
(63,0,l)
);
}
);
width = 398;
}
);
unicode = 110;
},
{
glyphname = nacute;
lastChange = "2023-03-10 12:36:08 +0000";
layers = (
{
background = {
shapes = (
{
closed = 1;
nodes = (
(140,0,l),
(140,279,ls),
(140,420,o),
(166,493,o),
(216,493,cs),
(249,493,o),
(265,452,o),
(265,368,cs),
(265,0,l),
(342,0,l),
(342,341,ls),
(342,490,o),
(310,555,o),
(235,555,cs),
(179,555,o),
(144,521,o),
(130,454,c),
(110,540,l,{
name = hr01;
}),
(63,540,l),
(63,0,l)
);
},
{
closed = 1;
nodes = (
(138,602,l),
(281,689,l),
(246,756,l),
(116,638,l,{
name = hr00;
})
);
}
);
};
layerId = master01;
shapes = (
{
ref = n;
},
{
pos = (54,0);
ref = acutecomb;
}
);
width = 398;
}
);
unicode = 324;
},
{
glyphname = napostrophe;
lastChange = "2023-03-10 12:36:09 +0000";
layers = (
{
background = {
shapes = (
{
closed = 1;
nodes = (
(140,0,l),
(140,279,ls),
(140,420,o),
(166,493,o),
(216,493,cs),
(249,493,o),
(265,452,o),
(265,368,cs),
(265,0,l),
(342,0,l),
(342,341,ls),
(342,490,o),
(310,555,o),
(235,555,cs),
(179,555,o),
(144,521,o),
(130,454,c),
(110,540,l,{
name = hr01;
}),
(63,540,l),
(63,0,l)
);
},
{
closed = 1;
nodes = (
(85,658,l),
(73,574,l),
(103,568,l),
(142,662,l),
(142,740,l),
(63,740,l),
(63,658,l,{
name = hr00;
})
);
}
);
};
layerId = master01;
shapes = (
{
ref = n;
},
{
pos = (117,0);
ref = commaaccentcomb;
}
);
width = 398;
}
);
unicode = 329;
},
{
glyphname = ncaron;
lastChange = "2023-03-10 12:36:08 +0000";
layers = (
{
background = {
shapes = (
{
closed = 1;
nodes = (
(140,0,l),
(140,279,ls),
(140,420,o),
(166,493,o),
(216,493,cs),
(249,493,o),
(265,452,o),
(265,368,cs),
(265,0,l),
(342,0,l),
(342,341,ls),
(342,490,o),
(310,555,o),
(235,555,cs),
(179,555,o),
(144,521,o),
(130,454,c),
(110,540,l,{
name = hr01;
}),
(63,540,l),
(63,0,l)
);
},
{
closed = 1;
nodes = (
(207,600,l),
(299,715,l),
(275,750,l),
(198,680,l),
(121,750,l),
(98,715,l),
(188,600,l,{
name = hr00;
})
);
}
);
};
layerId = master01;
shapes = (
{
ref = n;
},
{
pos = (67,0);
ref = caroncomb;
}
);
width = 398;
}
);
unicode = 328;
},
{
glyphname = ncommaaccent;
lastChange = "2023-03-10 12:36:08 +0000";
layers = (
{
background = {
shapes = (
{
closed = 1;
nodes = (
(140,0,l),
(140,279,ls),
(140,420,o),
(166,493,o),
(216,493,cs),
(249,493,o),
(265,452,o),
(265,368,cs),
(265,0,l),
(342,0,l),
(342,341,ls),
(342,490,o),
(310,555,o),
(235,555,cs),
(179,555,o),
(144,521,o),
(130,454,c),
(110,540,l,{
name = hr01;
}),
(63,540,l),
(63,0,l)
);
},
{
closed = 1;
nodes = (
(182,-132,l),
(170,-216,l),
(200,-222,l),
(239,-128,l),
(239,-50,l),
(160,-50,l),
(160,-132,l,{
name = hr00;
})
);
}
);
};
layerId = master01;
shapes = (
{
ref = n;
},
{
pos = (117,0);
ref = commaaccentcomb;
}
);
width = 398;
}
);
unicode = 326;
},
{
glyphname = ntilde;
lastChange = "2023-03-10 12:36:08 +0000";
layers = (
{
background = {
shapes = (
{
closed = 1;
nodes = (
(140,0,l),
(140,279,ls),
(140,420,o),
(166,493,o),
(216,493,cs),
(249,493,o),
(265,452,o),
(265,368,cs),
(265,0,l),
(342,0,l),
(342,341,ls),
(342,490,o),
(310,555,o),
(235,555,cs),
(179,555,o),
(144,521,o),
(130,454,c),
(110,540,l,{
name = hr01;
}),
(63,540,l),
(63,0,l)
);
},
{
closed = 1;
nodes = (
(276,707,o),
(263,700,o),
(249,700,cs),
(225,700,o),
(199,728,o),
(172,728,cs,{
name = hr01;
}),
(136,728,o),
(112,690,o),
(99,665,c),
(122,627,l),
(140,650,o),
(153,658,o),
(167,658,cs),
(191,658,o),
(217,629,o),
(244,629,cs,{
name = hr02;
}),
(280,629,o),
(303,668,o),
(317,692,c),
(293,730,l)
);
}
);
};
layerId = master01;
shapes = (
{
ref = n;
},
{
pos = (49,0);
ref = tildecomb;
}
);
width = 398;
}
);
unicode = 241;
},
{
glyphname = eng;
lastChange = "2023-03-10 12:35:58 +0000";
layers = (
{
anchors = (
{
name = bottom;
pos = (199,0);
},
{
name = top;
pos = (199,540);
}
);
background = {
shapes = (
{
closed = 1;
nodes = (
(306,-195,o),
(342,-129,o),
(342,15,cs),
(342,341,ls),
(342,490,o),
(310,555,o),
(235,555,cs),
(179,555,o),
(144,521,o),
(130,454,c),
(110,540,l),
(63,540,l),
(63,0,l),
(140,0,l),
(140,265,ls),
(140,417,o),
(165,493,o),
(216,493,cs),
(249,493,o),
(265,452,o),
(265,368,cs),
(265,0,ls),
(265,-91,o),
(251,-128,o),
(215,-128,cs,{
name = hr01;
}),
(204,-128,o),
(194,-125,o),
(182,-118,c),
(167,-183,l),
(185,-191,o),
(206,-195,o),
(228,-195,c)
);
}
);
};
layerId = master01;
shapes = (
{
closed = 1;
nodes = (
(306,-195,o),
(342,-129,o),
(342,15,cs),
(342,341,ls),
(342,490,o),
(310,555,o),
(235,555,cs),
(179,555,o),
(144,521,o),
(130,454,c),
(110,540,l),
(63,540,l),
(63,0,l),
(140,0,l),
(140,265,ls),
(140,417,o),
(165,493,o),
(216,493,cs),
(249,493,o),
(265,452,o),
(265,368,cs),
(265,0,ls),
(265,-91,o),
(251,-128,o),
(215,-128,cs,{
name = hr01;
}),
(204,-128,o),
(194,-125,o),
(182,-118,c),
(167,-183,l),
(185,-191,o),
(206,-195,o),
(228,-195,c)
);
}
);
width = 398;
}
);
unicode = 331;
},
{
glyphname = o;
lastChange = "2023-03-10 12:35:58 +0000";
layers = (
{
anchors = (
{
name = bottom;
pos = (190,0);
},
{
name = center;
pos = (190,270);
},
{
name = ogonek;
pos = (341,10);
},
{
name = top;
pos = (190,540);
},
{
name = topright;
pos = (359,540);
}
);
background = {
shapes = (
{
closed = 1;
nodes = (
(287,-15,o),
(330,49,o),
(330,195,cs),
(330,345,l),
(330,490,o),
(287,555,o),
(190,555,cs),
(92,555,o),
(49,491,o),
(49,345,cs),
(49,195,ls),
(49,49,o),
(92,-15,o),
(190,-15,c,{
name = hr00;
})
);
},
{
closed = 1;
nodes = (
(253,90,o),
(233,47,o),
(190,47,cs),
(146,47,o),
(125,90,o),
(125,181,cs),
(125,359,ls),
(125,450,o),
(146,493,o),
(190,493,cs),
(233,493,o),
(253,450,o),
(253,359,cs),
(253,181,l)
);
}
);
};
layerId = master01;
shapes = (
{
closed = 1;
nodes = (
(287,-15,o),
(330,49,o),
(330,195,cs),
(330,345,l),
(330,490,o),
(287,555,o),
(190,555,cs),
(92,555,o),
(49,491,o),
(49,345,cs),
(49,195,ls),
(49,49,o),
(92,-15,o),
(190,-15,c,{
name = hr00;
})
);
},
{
closed = 1;
nodes = (
(253,90,o),
(233,47,o),
(190,47,cs),
(146,47,o),
(125,90,o),
(125,181,cs),
(125,359,ls),
(125,450,o),
(146,493,o),
(190,493,cs),
(233,493,o),
(253,450,o),
(253,359,cs),
(253,181,l)
);
}
);
width = 379;
}
);
unicode = 111;
},
{
glyphname = oacute;
lastChange = "2023-03-10 12:36:08 +0000";
layers = (
{
background = {
shapes = (
{
closed = 1;
nodes = (
(287,-15,o),
(330,49,o),
(330,195,cs),
(330,345,l),
(330,490,o),
(287,555,o),
(190,555,cs),
(92,555,o),
(49,491,o),
(49,345,cs),
(49,195,ls),
(49,49,o),
(92,-15,o),
(190,-15,c,{
name = hr00;
})
);
},
{
closed = 1;
nodes = (
(253,90,o),
(233,47,o),
(190,47,cs),
(146,47,o),
(125,90,o),
(125,181,cs),
(125,359,ls),
(125,450,o),
(146,493,o),
(190,493,cs),
(233,493,o),
(253,450,o),
(253,359,cs),
(253,181,l)
);
},
{
closed = 1;
nodes = (
(137,602,l),
(280,689,l),
(245,756,l),
(115,638,l,{
name = hr00;
})
);
}
);
};
layerId = master01;
shapes = (
{
ref = o;
},
{
pos = (45,0);
ref = acutecomb;
}
);
width = 379;
}
);
unicode = 243;
},
{
glyphname = obreve;
lastChange = "2023-03-10 12:36:08 +0000";
layers = (
{
background = {
shapes = (
{
closed = 1;
nodes = (
(287,-15,o),
(330,49,o),
(330,195,cs),
(330,345,l),
(330,490,o),
(287,555,o),
(190,555,cs),
(92,555,o),
(49,491,o),
(49,345,cs),
(49,195,ls),
(49,49,o),
(92,-15,o),
(190,-15,c,{
name = hr00;
})
);
},
{
closed = 1;
nodes = (
(253,90,o),
(233,47,o),
(190,47,cs),
(146,47,o),
(125,90,o),
(125,181,cs),
(125,359,ls),
(125,450,o),
(146,493,o),
(190,493,cs),
(233,493,o),
(253,450,o),
(253,359,cs),
(253,181,l)
);
},
{
closed = 1;
nodes = (
(198,613,ls),
(257,613,o),
(282,647,o),
(282,728,c),
(240,728,l),
(240,697,o),
(225,681,o),
(196,681,cs),
(182,681,ls),
(149,681,o),
(137,694,o),
(137,728,c),
(96,728,l),
(96,647,o),
(120,613,o),
(179,613,cs,{
name = hr00;
})
);
}
);
};
layerId = master01;
shapes = (
{
ref = o;
},
{
pos = (55,0);
ref = brevecomb;
}
);
width = 379;
}
);
unicode = 335;
},
{
glyphname = ocircumflex;
lastChange = "2023-03-10 12:36:08 +0000";
layers = (
{
background = {
shapes = (
{
closed = 1;
nodes = (
(287,-15,o),
(330,49,o),
(330,195,cs),
(330,345,l),
(330,490,o),
(287,555,o),
(190,555,cs),
(92,555,o),
(49,491,o),
(49,345,cs),
(49,195,ls),
(49,49,o),
(92,-15,o),
(190,-15,c,{
name = hr00;
})
);
},
{
closed = 1;
nodes = (
(253,90,o),
(233,47,o),
(190,47,cs),
(146,47,o),
(125,90,o),
(125,181,cs),
(125,359,ls),
(125,450,o),
(146,493,o),
(190,493,cs),
(233,493,o),
(253,450,o),
(253,359,cs),
(253,181,l)
);
},
{
closed = 1;
nodes = (
(180,750,l),
(90,634,l),
(113,600,l),
(190,670,l),
(267,600,l),
(291,634,l),
(199,750,l,{
name = hr00;
})
);
}
);
};
layerId = master01;
shapes = (
{
ref = o;
},
{
pos = (58,0);
ref = circumflexcomb;
}
);
width = 379;
}
);
unicode = 244;
},
{
glyphname = odieresis;
lastChange = "2023-03-10 12:36:08 +0000";
layers = (
{
background = {
shapes = (
{
closed = 1;
nodes = (
(287,-15,o),
(330,49,o),
(330,195,cs),
(330,345,l),
(330,490,o),
(287,555,o),
(190,555,cs),
(92,555,o),
(49,491,o),
(49,345,cs),
(49,195,ls),
(49,49,o),
(92,-15,o),
(190,-15,c,{
name = hr00;
})
);
},
{
closed = 1;
nodes = (
(253,90,o),
(233,47,o),
(190,47,cs),
(146,47,o),
(125,90,o),
(125,181,cs),
(125,359,ls),
(125,450,o),
(146,493,o),
(190,493,cs),
(233,493,o),
(253,450,o),
(253,359,cs),
(253,181,l)
);
},
{
closed = 1;
nodes = (
(161,646,l),
(161,740,l),
(80,740,l),
(80,646,l,{
name = hr00;
})
);
},
{
closed = 1;
nodes = (
(300,646,l),
(300,740,l),
(220,740,l),
(220,646,l)
);
}
);
};
layerId = master01;
shapes = (
{
ref = o;
},
{
pos = (26,0);
ref = dieresiscomb;
}
);
width = 379;
}
);
unicode = 246;
},
{
glyphname = ograve;
lastChange = "2023-03-10 12:36:08 +0000";
layers = (
{
background = {
shapes = (
{
closed = 1;
nodes = (
(287,-15,o),
(330,49,o),
(330,195,cs),
(330,345,l),
(330,490,o),
(287,555,o),
(190,555,cs),
(92,555,o),
(49,491,o),
(49,345,cs),
(49,195,ls),
(49,49,o),
(92,-15,o),
(190,-15,c,{
name = hr00;
})
);
},
{
closed = 1;
nodes = (
(253,90,o),
(233,47,o),
(190,47,cs),
(146,47,o),
(125,90,o),
(125,181,cs),
(125,359,ls),
(125,450,o),
(146,493,o),
(190,493,cs),
(233,493,o),
(253,450,o),
(253,359,cs),
(253,181,l)
);
},
{
closed = 1;
nodes = (
(251,602,l),
(108,689,l),
(143,756,l),
(273,638,l,{
name = hr00;
})
);
}
);
};
layerId = master01;
shapes = (
{
ref = o;
},
{
pos = (45,0);
ref = gravecomb;
}
);
width = 379;
}
);
unicode = 242;
},
{
glyphname = ohungarumlaut;
lastChange = "2023-03-10 12:36:08 +0000";
layers = (
{
background = {
shapes = (
{
closed = 1;
nodes = (
(287,-15,o),
(330,49,o),
(330,195,cs),
(330,345,l),
(330,490,o),
(287,555,o),
(190,555,cs),
(92,555,o),
(49,491,o),
(49,345,cs),
(49,195,ls),
(49,49,o),
(92,-15,o),
(190,-15,c,{
name = hr00;
})
);
},
{
closed = 1;
nodes = (
(253,90,o),
(233,47,o),
(190,47,cs),
(146,47,o),
(125,90,o),
(125,181,cs),
(125,359,ls),
(125,450,o),
(146,493,o),
(190,493,cs),
(233,493,o),
(253,450,o),
(253,359,cs),
(253,181,l)
);
},
{
closed = 1;
nodes = (
(101,602,l),
(210,698,l),
(166,758,l),
(72,634,l,{
name = hr00;
})
);
},
{
closed = 1;
nodes = (
(238,602,l),
(347,698,l),
(303,758,l),
(209,634,l)
);
}
);
};
layerId = master01;
shapes = (
{
ref = o;
},
{
pos = (-11,0);
ref = hungarumlautcomb;
}
);
width = 379;
}
);
unicode = 337;
},
{
glyphname = omacron;
lastChange = "2023-03-10 12:36:08 +0000";
layers = (
{
background = {
shapes = (
{
closed = 1;
nodes = (
(287,-15,o),
(330,49,o),
(330,195,cs),
(330,345,l),
(330,490,o),
(287,555,o),
(190,555,cs),
(92,555,o),
(49,491,o),
(49,345,cs),
(49,195,ls),
(49,49,o),
(92,-15,o),
(190,-15,c,{
name = hr00;
})
);
},
{
closed = 1;
nodes = (
(253,90,o),
(233,47,o),
(190,47,cs),
(146,47,o),
(125,90,o),
(125,181,cs),
(125,359,ls),
(125,450,o),
(146,493,o),
(190,493,cs),
(233,493,o),
(253,450,o),
(253,359,cs),
(253,181,l)
);
},
{
closed = 1;
nodes = (
(284,642,l),
(284,708,l),
(94,708,l),
(94,642,l,{
name = hr00;
})
);
}
);
};
layerId = master01;
shapes = (
{
ref = o;
},
{
pos = (63,0);
ref = macroncomb;
}
);
width = 379;
}
);
unicode = 333;
},
{
glyphname = oslash;
lastChange = "2023-03-10 12:30:02 +0000";
layers = (
{
background = {
shapes = (
{
closed = 1;
nodes = (
(287,-15,o),
(330,49,o),
(330,195,cs),
(330,345,l),
(330,490,o),
(287,555,o),
(190,555,cs),
(92,555,o),
(49,491,o),
(49,345,cs),
(49,195,ls),
(49,49,o),
(92,-15,o),
(190,-15,c,{
name = hr00;
})
);
},
{
closed = 1;
nodes = (
(253,90,o),
(233,47,o),
(190,47,cs),
(146,47,o),
(125,90,o),
(125,181,cs),
(125,359,ls),
(125,450,o),
(146,493,o),
(190,493,cs),
(233,493,o),
(253,450,o),
(253,359,cs),
(253,181,l)
);
},
{
closed = 1;
nodes = (
(138,-72,l),
(284,611,l),
(240,611,l),
(94,-72,l,{
name = hr00;
})
);
}
);
};
layerId = master01;
shapes = (
{
ref = o;
},
{
pos = (66,-28);
ref = slash;
scale = (0.85,0.85);
}
);
width = 379;
}
);
unicode = 248;
},
{
glyphname = oslashacute;
lastChange = "2023-03-10 12:36:08 +0000";
layers = (
{
background = {
shapes = (
{
closed = 1;
nodes = (
(137,602,l),
(280,689,l),
(245,756,l),
(115,638,l,{
name = hr00;
})
);
},
{
closed = 1;
nodes = (
(287,-15,o),
(330,49,o),
(330,195,cs),
(330,345,l),
(330,490,o),
(287,555,o),
(190,555,cs),
(92,555,o),
(49,491,o),
(49,345,cs),
(49,195,ls),
(49,49,o),
(92,-15,o),
(190,-15,c,{
name = hr00;
})
);
},
{
closed = 1;
nodes = (
(253,90,o),
(233,47,o),
(190,47,cs),
(146,47,o),
(125,90,o),
(125,181,cs),
(125,359,ls),
(125,450,o),
(146,493,o),
(190,493,cs),
(233,493,o),
(253,450,o),
(253,359,cs),
(253,181,l)
);
},
{
closed = 1;
nodes = (
(138,-72,l),
(284,611,l),
(240,611,l),
(94,-72,l,{
name = hr00;
})
);
}
);
};
layerId = master01;
shapes = (
{
ref = oslash;
},
{
pos = (45,0);
ref = acutecomb;
}
);
width = 379;
}
);
unicode = 511;
},
{
glyphname = otilde;
lastChange = "2023-03-10 12:36:08 +0000";
layers = (
{
background = {
shapes = (
{
closed = 1;
nodes = (
(287,-15,o),
(330,49,o),
(330,195,cs),
(330,345,l),
(330,490,o),
(287,555,o),
(190,555,cs),
(92,555,o),
(49,491,o),
(49,345,cs),
(49,195,ls),
(49,49,o),
(92,-15,o),
(190,-15,c,{
name = hr00;
})
);
},
{
closed = 1;
nodes = (
(253,90,o),
(233,47,o),
(190,47,cs),
(146,47,o),
(125,90,o),
(125,181,cs),
(125,359,ls),
(125,450,o),
(146,493,o),
(190,493,cs),
(233,493,o),
(253,450,o),
(253,359,cs),
(253,181,l)
);
},
{
closed = 1;
nodes = (
(259,707,o),
(246,700,o),
(232,700,cs),
(208,700,o),
(182,728,o),
(155,728,cs,{
name = hr01;
}),
(119,728,o),
(95,690,o),
(82,665,c),
(105,627,l),
(123,650,o),
(136,658,o),
(150,658,cs),
(174,658,o),
(200,629,o),
(227,629,cs,{
name = hr02;
}),
(263,629,o),
(286,668,o),
(300,692,c),
(276,730,l)
);
}
);
};
layerId = master01;
shapes = (
{
ref = o;
},
{
pos = (40,0);
ref = tildecomb;
}
);
width = 379;
}
);
unicode = 245;
},
{
glyphname = oe;
lastChange = "2023-03-10 12:30:02 +0000";
layers = (
{
background = {
shapes = (
{
closed = 1;
nodes = (
(287,-15,o),
(330,49,o),
(330,195,cs),
(330,345,l),
(330,490,o),
(287,555,o),
(190,555,cs),
(92,555,o),
(49,491,o),
(49,345,cs),
(49,195,ls),
(49,49,o),
(92,-15,o),
(190,-15,c,{
name = hr00;
})
);
},
{
closed = 1;
nodes = (
(253,90,o),
(233,47,o),
(190,47,cs),
(146,47,o),
(125,90,o),
(125,181,cs),
(125,359,ls),
(125,450,o),
(146,493,o),
(190,493,cs),
(233,493,o),
(253,450,o),
(253,359,cs),
(253,181,l)
);
},
{
closed = 1;
nodes = (
(484,-15,o),
(525,32,o),
(534,140,c),
(467,151,l),
(458,76,o),
(438,47,o),
(395,47,cs),
(352,47,o),
(331,91,o),
(331,181,cs),
(331,238,l),
(536,238,l),
(536,345,ls),
(536,493,o),
(495,555,o),
(399,555,cs),
(299,555,o),
(255,490,o),
(255,345,cs),
(255,195,ls),
(255,50,o),
(299,-15,o),
(399,-15,cs,{
name = hr00;
})
);
},
{
closed = 1;
nodes = (
(331,359,ls),
(331,450,o),
(352,493,o),
(396,493,cs),
(439,493,o),
(459,450,o),
(459,359,cs),
(459,302,l),
(331,302,l)
);
}
);
};
layerId = master01;
shapes = (
{
alignment = -1;
ref = o;
},
{
alignment = -1;
pos = (206,0);
ref = e;
}
);
width = 585;
}
);
unicode = 339;
},
{
glyphname = p;
lastChange = "2023-03-10 12:35:58 +0000";
layers = (
{
anchors = (
{
name = bottom;
pos = (195,0);
},
{
name = top;
pos = (195,540);
}
);
background = {
shapes = (
{
closed = 1;
nodes = (
(136,-180,l),
(136,79,l),
(150,18,o),
(184,-15,o),
(232,-15,cs),
(308,-15,o),
(341,49,o),
(341,195,cs),
(341,345,ls),
(341,491,o),
(308,555,o),
(232,555,cs),
(181,555,o),
(144,519,o),
(130,453,c,{
name = hr01;
}),
(110,540,l),
(63,540,l,{
name = hr02;
}),
(63,-180,l)
);
},
{
closed = 1;
nodes = (
(160,47,o),
(136,118,o),
(136,270,cs),
(136,284,ls,{
name = hr03;
}),
(137,429,o),
(162,493,o),
(215,493,cs),
(251,493,o),
(268,453,o),
(268,369,cs),
(268,171,ls),
(268,85,o),
(250,47,o),
(210,47,c)
);
}
);
};
layerId = master01;
shapes = (
{
closed = 1;
nodes = (
(136,-180,l),
(136,79,l),
(150,18,o),
(184,-15,o),
(232,-15,cs),
(308,-15,o),
(341,49,o),
(341,195,cs),
(341,345,ls),
(341,491,o),
(308,555,o),
(232,555,cs),
(181,555,o),
(144,519,o),
(130,453,c,{
name = hr01;
}),
(110,540,l),
(63,540,l,{
name = hr02;
}),
(63,-180,l)
);
},
{
closed = 1;
nodes = (
(160,47,o),
(136,118,o),
(136,270,cs),
(136,284,ls,{
name = hr03;
}),
(137,429,o),
(162,493,o),
(215,493,cs),
(251,493,o),
(268,453,o),
(268,369,cs),
(268,171,ls),
(268,85,o),
(250,47,o),
(210,47,c)
);
}
);
width = 390;
}
);
unicode = 112;
},
{
glyphname = thorn;
lastChange = "2023-03-10 12:35:58 +0000";
layers = (
{
anchors = (
{
name = bottom;
pos = (195,0);
},
{
name = top;
pos = (195,540);
}
);
background = {
shapes = (
{
closed = 1;
nodes = (
(136,-180,l),
(136,79,l),
(150,18,o),
(184,-15,o),
(232,-15,cs),
(308,-15,o),
(341,49,o),
(341,195,cs),
(341,345,ls),
(341,491,o),
(308,555,o),
(232,555,cs),
(187,555,o),
(154,527,o),
(136,475,c),
(136,741,l),
(63,741,l),
(63,-180,l,{
name = hr00;
})
);
},
{
closed = 1;
nodes = (
(160,47,o),
(136,118,o),
(136,270,cs),
(136,284,ls),
(137,429,o),
(162,493,o),
(215,493,cs),
(251,493,o),
(268,453,o),
(268,369,cs),
(268,171,ls),
(268,85,o),
(250,47,o),
(210,47,c)
);
}
);
};
layerId = master01;
shapes = (
{
closed = 1;
nodes = (
(136,-180,l),
(136,79,l),
(150,18,o),
(184,-15,o),
(232,-15,cs),
(308,-15,o),
(341,49,o),
(341,195,cs),
(341,345,ls),
(341,491,o),
(308,555,o),
(232,555,cs),
(187,555,o),
(154,527,o),
(136,475,c),
(136,741,l),
(63,741,l),
(63,-180,l,{
name = hr00;
})
);
},
{
closed = 1;
nodes = (
(160,47,o),
(136,118,o),
(136,270,cs),
(136,284,ls),
(137,429,o),
(162,493,o),
(215,493,cs),
(251,493,o),
(268,453,o),
(268,369,cs),
(268,171,ls),
(268,85,o),
(250,47,o),
(210,47,c)
);
}
);
width = 390;
}
);
unicode = 254;
},
{
glyphname = q;
lastChange = "2023-03-10 12:35:58 +0000";
layers = (
{
anchors = (
{
name = bottom;
pos = (195,0);
},
{
name = top;
pos = (195,540);
}
);
background = {
shapes = (
{
closed = 1;
nodes = (
(253,79,l),
(237,17,o),
(204,-15,o),
(158,-15,cs),
(83,-15,o),
(49,50,o),
(49,195,cs),
(49,345,ls),
(49,490,o),
(83,555,o),
(158,555,cs),
(209,555,o),
(244,520,o),
(259,456,c),
(279,540,l),
(326,540,l),
(326,-180,l),
(253,-180,l)
);
},
{
closed = 1;
nodes = (
(229,47,o),
(251,110,o),
(253,256,cs),
(253,284,ls),
(251,433,o),
(228,493,o),
(174,493,cs),
(139,493,o),
(123,453,o),
(123,369,cs),
(123,171,ls,{
name = hr01;
}),
(123,84,o),
(140,47,o),
(179,47,c)
);
}
);
};
layerId = master01;
shapes = (
{
closed = 1;
nodes = (
(253,79,l),
(237,17,o),
(204,-15,o),
(158,-15,cs),
(83,-15,o),
(49,50,o),
(49,195,cs),
(49,345,ls),
(49,490,o),
(83,555,o),
(158,555,cs),
(209,555,o),
(244,520,o),
(259,456,c),
(279,540,l),
(326,540,l),
(326,-180,l),
(253,-180,l)
);
},
{
closed = 1;
nodes = (
(229,47,o),
(251,110,o),
(253,256,cs),
(253,284,ls),
(251,433,o),
(228,493,o),
(174,493,cs),
(139,493,o),
(123,453,o),
(123,369,cs),
(123,171,ls,{
name = hr01;
}),
(123,84,o),
(140,47,o),
(179,47,c)
);
}
);
width = 390;
}
);
unicode = 113;
},
{
glyphname = r;
lastChange = "2023-03-10 12:35:58 +0000";
layers = (
{
anchors = (
{
name = bottom;
pos = (129,0);
},
{
name = top;
pos = (129,540);
}
);
background = {
shapes = (
{
closed = 1;
nodes = (
(140,0,l),
(140,318,ls),
(140,423,o),
(166,476,o),
(217,476,cs),
(225,476,o),
(236,473,o),
(244,469,c,{
name = hr01;
}),
(250,553,l,{
name = hr02;
}),
(244,554,o),
(236,555,o),
(230,555,cs),
(178,555,o),
(145,519,o),
(132,448,c,{
name = hr03;
}),
(110,540,l),
(63,540,l),
(63,0,l)
);
}
);
};
layerId = master01;
shapes = (
{
closed = 1;
nodes = (
(140,0,l),
(140,318,ls),
(140,423,o),
(166,476,o),
(217,476,cs),
(225,476,o),
(236,473,o),
(244,469,c,{
name = hr01;
}),
(250,553,l,{
name = hr02;
}),
(244,554,o),
(236,555,o),
(230,555,cs),
(178,555,o),
(145,519,o),
(132,448,c,{
name = hr03;
}),
(110,540,l),
(63,540,l),
(63,0,l)
);
}
);
width = 258;
}
);
unicode = 114;
},
{
glyphname = racute;
lastChange = "2023-03-10 12:36:08 +0000";
layers = (
{
background = {
shapes = (
{
closed = 1;
nodes = (
(140,0,l),
(140,318,ls),
(140,423,o),
(166,476,o),
(217,476,cs),
(225,476,o),
(236,473,o),
(244,469,c,{
name = hr01;
}),
(250,553,l,{
name = hr02;
}),
(244,554,o),
(236,555,o),
(230,555,cs),
(178,555,o),
(145,519,o),
(132,448,c,{
name = hr03;
}),
(110,540,l),
(63,540,l),
(63,0,l)
);
},
{
closed = 1;
nodes = (
(69,602,l),
(212,689,l),
(177,756,l),
(47,638,l,{
name = hr00;
})
);
}
);
};
layerId = master01;
shapes = (
{
ref = r;
},
{
pos = (-16,0);
ref = acutecomb;
}
);
width = 258;
}
);
unicode = 341;
},
{
glyphname = rcaron;
lastChange = "2023-03-10 12:36:08 +0000";
layers = (
{
background = {
shapes = (
{
closed = 1;
nodes = (
(140,0,l),
(140,318,ls),
(140,423,o),
(166,476,o),
(217,476,cs),
(225,476,o),
(236,473,o),
(244,469,c,{
name = hr01;
}),
(250,553,l,{
name = hr02;
}),
(244,554,o),
(236,555,o),
(230,555,cs),
(178,555,o),
(145,519,o),
(132,448,c,{
name = hr03;
}),
(110,540,l),
(63,540,l),
(63,0,l)
);
},
{
closed = 1;
nodes = (
(158,600,l),
(250,715,l),
(226,750,l),
(149,680,l),
(72,750,l),
(49,715,l),
(139,600,l,{
name = hr00;
})
);
}
);
};
layerId = master01;
shapes = (
{
ref = r;
},
{
pos = (-3,0);
ref = caroncomb;
}
);
width = 258;
}
);
unicode = 345;
},
{
glyphname = rcommaaccent;
lastChange = "2023-03-10 12:36:08 +0000";
layers = (
{
background = {
shapes = (
{
closed = 1;
nodes = (
(140,0,l),
(140,318,ls),
(140,423,o),
(166,476,o),
(217,476,cs),
(225,476,o),
(236,473,o),
(244,469,c,{
name = hr01;
}),
(250,553,l,{
name = hr02;
}),
(244,554,o),
(236,555,o),
(230,555,cs),
(178,555,o),
(145,519,o),
(132,448,c,{
name = hr03;
}),
(110,540,l),
(63,540,l),
(63,0,l)
);
},
{
closed = 1;
nodes = (
(84,-132,l),
(72,-216,l),
(102,-222,l),
(141,-128,l),
(141,-50,l),
(62,-50,l),
(62,-132,l,{
name = hr00;
})
);
}
);
};
layerId = master01;
shapes = (
{
ref = r;
},
{
pos = (47,0);
ref = commaaccentcomb;
}
);
width = 258;
}
);
unicode = 343;
},
{
glyphname = s;
lastChange = "2023-03-10 12:35:58 +0000";
layers = (
{
anchors = (
{
name = bottom;
pos = (178,0);
},
{
name = top;
pos = (178,540);
}
);
background = {
shapes = (
{
closed = 1;
nodes = (
(271,-15,o),
(315,30,o),
(315,125,cs),
(315,192,o),
(292,234,o),
(234,274,cs),
(168,320,ls),
(138,342,o),
(126,368,o),
(126,415,cs),
(126,467,o),
(145,494,o),
(183,494,cs),
(220,494,o),
(240,462,o),
(244,397,c),
(313,411,l),
(304,511,o),
(265,555,o),
(184,555,cs),
(95,555,o),
(53,508,o),
(53,408,cs),
(53,339,o),
(79,293,o),
(130,257,cs),
(199,208,ls),
(228,187,o),
(241,160,o),
(241,121,cs),
(241,72,o),
(220,46,o),
(179,46,cs),
(138,46,o),
(118,81,o),
(113,163,c),
(42,150,l),
(51,37,o),
(94,-15,o),
(179,-15,c,{
name = hr00;
})
);
}
);
};
layerId = master01;
shapes = (
{
closed = 1;
nodes = (
(271,-15,o),
(315,30,o),
(315,125,cs),
(315,192,o),
(292,234,o),
(234,274,cs),
(168,320,ls),
(138,342,o),
(126,368,o),
(126,415,cs),
(126,467,o),
(145,494,o),
(183,494,cs),
(220,494,o),
(240,462,o),
(244,397,c),
(313,411,l),
(304,511,o),
(265,555,o),
(184,555,cs),
(95,555,o),
(53,508,o),
(53,408,cs),
(53,339,o),
(79,293,o),
(130,257,cs),
(199,208,ls),
(228,187,o),
(241,160,o),
(241,121,cs),
(241,72,o),
(220,46,o),
(179,46,cs),
(138,46,o),
(118,81,o),
(113,163,c),
(42,150,l),
(51,37,o),
(94,-15,o),
(179,-15,c,{
name = hr00;
})
);
}
);
width = 356;
}
);
unicode = 115;
},
{
glyphname = sacute;
lastChange = "2023-03-10 12:36:08 +0000";
layers = (
{
background = {
shapes = (
{
closed = 1;
nodes = (
(271,-15,o),
(315,30,o),
(315,125,cs),
(315,192,o),
(292,234,o),
(234,274,cs),
(168,320,ls),
(138,342,o),
(126,368,o),
(126,415,cs),
(126,467,o),
(145,494,o),
(183,494,cs),
(220,494,o),
(240,462,o),
(244,397,c),
(313,411,l),
(304,511,o),
(265,555,o),
(184,555,cs),
(95,555,o),
(53,508,o),
(53,408,cs),
(53,339,o),
(79,293,o),
(130,257,cs),
(199,208,ls),
(228,187,o),
(241,160,o),
(241,121,cs),
(241,72,o),
(220,46,o),
(179,46,cs),
(138,46,o),
(118,81,o),
(113,163,c),
(42,150,l),
(51,37,o),
(94,-15,o),
(179,-15,c,{
name = hr00;
})
);
},
{
closed = 1;
nodes = (
(117,602,l),
(260,689,l),
(225,756,l),
(95,638,l,{
name = hr00;
})
);
}
);
};
layerId = master01;
shapes = (
{
ref = s;
},
{
pos = (33,0);
ref = acutecomb;
}
);
width = 356;
}
);
unicode = 347;
},
{
glyphname = scaron;
lastChange = "2023-03-10 12:36:08 +0000";
layers = (
{
background = {
shapes = (
{
closed = 1;
nodes = (
(271,-15,o),
(315,30,o),
(315,125,cs),
(315,192,o),
(292,234,o),
(234,274,cs),
(168,320,ls),
(138,342,o),
(126,368,o),
(126,415,cs),
(126,467,o),
(145,494,o),
(183,494,cs),
(220,494,o),
(240,462,o),
(244,397,c),
(313,411,l),
(304,511,o),
(265,555,o),
(184,555,cs),
(95,555,o),
(53,508,o),
(53,408,cs),
(53,339,o),
(79,293,o),
(130,257,cs),
(199,208,ls),
(228,187,o),
(241,160,o),
(241,121,cs),
(241,72,o),
(220,46,o),
(179,46,cs),
(138,46,o),
(118,81,o),
(113,163,c),
(42,150,l),
(51,37,o),
(94,-15,o),
(179,-15,c,{
name = hr00;
})
);
},
{
closed = 1;
nodes = (
(194,600,l),
(286,715,l),
(262,750,l),
(185,680,l),
(108,750,l),
(85,715,l),
(175,600,l,{
name = hr00;
})
);
}
);
};
layerId = master01;
shapes = (
{
ref = s;
},
{
pos = (46,0);
ref = caroncomb;
}
);
width = 356;
}
);
unicode = 353;
},
{
glyphname = scedilla;
lastChange = "2023-03-10 12:36:08 +0000";
layers = (
{
background = {
shapes = (
{
closed = 1;
nodes = (
(271,-15,o),
(315,30,o),
(315,125,cs),
(315,192,o),
(292,234,o),
(234,274,cs),
(168,320,ls),
(138,342,o),
(126,368,o),
(126,415,cs),
(126,467,o),
(145,494,o),
(183,494,cs),
(220,494,o),
(240,462,o),
(244,397,c),
(313,411,l),
(304,511,o),
(265,555,o),
(184,555,cs),
(95,555,o),
(53,508,o),
(53,408,cs),
(53,339,o),
(79,293,o),
(130,257,cs),
(199,208,ls),
(228,187,o),
(241,160,o),
(241,121,cs),
(241,72,o),
(220,46,o),
(179,46,cs),
(138,46,o),
(118,81,o),
(113,163,c),
(42,150,l),
(51,37,o),
(94,-15,o),
(179,-15,c,{
name = hr00;
})
);
},
{
closed = 1;
nodes = (
(220,-195,o),
(241,-171,o),
(241,-122,cs),
(241,-83,o),
(225,-61,o),
(186,-49,c),
(191,0,l),
(160,0,l),
(150,-71,l),
(181,-80,o),
(194,-93,o),
(194,-114,cs),
(194,-124,ls),
(194,-146,o),
(189,-154,o),
(175,-154,cs),
(162,-154,o),
(157,-146,o),
(155,-120,c),
(114,-128,l),
(118,-173,o),
(138,-195,o),
(175,-195,c,{
name = hr00;
})
);
}
);
};
layerId = master01;
shapes = (
{
ref = s;
},
{
pos = (91,0);
ref = cedillacomb;
}
);
width = 356;
}
);
unicode = 351;
},
{
glyphname = scircumflex;
lastChange = "2023-03-10 12:36:08 +0000";
layers = (
{
background = {
shapes = (
{
closed = 1;
nodes = (
(271,-15,o),
(315,30,o),
(315,125,cs),
(315,192,o),
(292,234,o),
(234,274,cs),
(168,320,ls),
(138,342,o),
(126,368,o),
(126,415,cs),
(126,467,o),
(145,494,o),
(183,494,cs),
(220,494,o),
(240,462,o),
(244,397,c),
(313,411,l),
(304,511,o),
(265,555,o),
(184,555,cs),
(95,555,o),
(53,508,o),
(53,408,cs),
(53,339,o),
(79,293,o),
(130,257,cs),
(199,208,ls),
(228,187,o),
(241,160,o),
(241,121,cs),
(241,72,o),
(220,46,o),
(179,46,cs),
(138,46,o),
(118,81,o),
(113,163,c),
(42,150,l),
(51,37,o),
(94,-15,o),
(179,-15,c,{
name = hr00;
})
);
},
{
closed = 1;
nodes = (
(167,750,l),
(77,634,l),
(100,600,l),
(177,670,l),
(254,600,l),
(278,634,l),
(186,750,l,{
name = hr00;
})
);
}
);
};
layerId = master01;
shapes = (
{
ref = s;
},
{
pos = (46,0);
ref = circumflexcomb;
}
);
width = 356;
}
);
unicode = 349;
},
{
glyphname = scommaaccent;
lastChange = "2023-03-10 12:36:08 +0000";
layers = (
{
background = {
shapes = (
{
closed = 1;
nodes = (
(271,-15,o),
(315,30,o),
(315,125,cs),
(315,192,o),
(292,234,o),
(234,274,cs),
(168,320,ls),
(138,342,o),
(126,368,o),
(126,415,cs),
(126,467,o),
(145,494,o),
(183,494,cs),
(220,494,o),
(240,462,o),
(244,397,c),
(313,411,l),
(304,511,o),
(265,555,o),
(184,555,cs),
(95,555,o),
(53,508,o),
(53,408,cs),
(53,339,o),
(79,293,o),
(130,257,cs),
(199,208,ls),
(228,187,o),
(241,160,o),
(241,121,cs),
(241,72,o),
(220,46,o),
(179,46,cs),
(138,46,o),
(118,81,o),
(113,163,c),
(42,150,l),
(51,37,o),
(94,-15,o),
(179,-15,c,{
name = hr00;
})
);
},
{
closed = 1;
nodes = (
(161,-132,l),
(149,-216,l),
(179,-222,l),
(218,-128,l),
(218,-50,l),
(139,-50,l),
(139,-132,l,{
name = hr00;
})
);
}
);
};
layerId = master01;
shapes = (
{
ref = s;
},
{
pos = (96,0);
ref = commaaccentcomb;
}
);
width = 356;
}
);
unicode = 537;
},
{
glyphname = germandbls;
lastChange = "2023-03-10 12:35:58 +0000";
layers = (
{
anchors = (
{
name = bottom;
pos = (204,0);
},
{
name = top;
pos = (204,740);
}
);
background = {
shapes = (
{
closed = 1;
nodes = (
(340,-15,o),
(385,43,o),
(385,132,cs),
(385,232,o),
(362,286,o),
(289,355,cs),
(257,384,l),
(308,410,o),
(334,462,o),
(334,535,cs,{
name = hr01;
}),
(334,657,o),
(289,715,o),
(194,715,cs),
(97,715,o),
(56,652,o),
(56,505,cs),
(56,0,l),
(135,0,l),
(135,504,ls),
(135,613,o),
(151,653,o),
(194,653,cs),
(235,653,o),
(255,615,o),
(255,535,cs),
(255,456,o),
(236,418,o),
(187,398,c),
(187,365,l),
(234,323,ls),
(297,266,o),
(313,220,o),
(313,134,cs,{
name = hr02;
}),
(313,71,o),
(299,46,o),
(265,46,cs),
(236,46,o),
(222,71,o),
(222,127,c),
(161,127,l),
(161,33,o),
(198,-15,o),
(270,-15,c)
);
}
);
};
layerId = master01;
shapes = (
{
closed = 1;
nodes = (
(340,-15,o),
(385,43,o),
(385,132,cs),
(385,232,o),
(362,286,o),
(289,355,cs),
(257,384,l),
(308,410,o),
(334,462,o),
(334,535,cs,{
name = hr01;
}),
(334,657,o),
(289,715,o),
(194,715,cs),
(97,715,o),
(56,652,o),
(56,505,cs),
(56,0,l),
(135,0,l),
(135,504,ls),
(135,613,o),
(151,653,o),
(194,653,cs),
(235,653,o),
(255,615,o),
(255,535,cs),
(255,456,o),
(236,418,o),
(187,398,c),
(187,365,l),
(234,323,ls),
(297,266,o),
(313,220,o),
(313,134,cs,{
name = hr02;
}),
(313,71,o),
(299,46,o),
(265,46,cs),
(236,46,o),
(222,71,o),
(222,127,c),
(161,127,l),
(161,33,o),
(198,-15,o),
(270,-15,c)
);
}
);
width = 408;
}
);
unicode = 223;
},
{
glyphname = t;
lastChange = "2023-03-10 12:35:58 +0000";
layers = (
{
anchors = (
{
name = bottom;
pos = (120,0);
},
{
name = center;
pos = (120,270);
},
{
name = top;
pos = (120,540);
},
{
name = topright;
pos = (219,740);
}
);
background = {
shapes = (
{
closed = 1;
nodes = (
(184,-15,o),
(208,-8,o),
(230,6,c),
(215,65,l),
(201,54,o),
(188,49,o),
(175,49,cs),
(157,49,o),
(146,69,o),
(146,102,cs),
(146,478,l),
(217,478,l),
(217,540,l),
(146,540,l),
(146,673,l),
(100,673,l),
(73,540,l),
(20,540,l),
(20,478,l),
(70,478,l),
(70,118,ls),
(70,28,o),
(99,-15,o),
(160,-15,c,{
name = hr00;
})
);
}
);
};
layerId = master01;
shapes = (
{
closed = 1;
nodes = (
(184,-15,o),
(208,-8,o),
(230,6,c),
(215,65,l),
(201,54,o),
(188,49,o),
(175,49,cs),
(157,49,o),
(146,69,o),
(146,102,cs),
(146,478,l),
(217,478,l),
(217,540,l),
(146,540,l),
(146,673,l),
(100,673,l),
(73,540,l),
(20,540,l),
(20,478,l),
(70,478,l),
(70,118,ls),
(70,28,o),
(99,-15,o),
(160,-15,c,{
name = hr00;
})
);
}
);
width = 239;
}
);
unicode = 116;
},
{
glyphname = tbar;
lastChange = "2023-03-10 12:30:02 +0000";
layers = (
{
background = {
shapes = (
{
closed = 1;
nodes = (
(184,-15,o),
(208,-8,o),
(230,6,c),
(215,65,l),
(201,54,o),
(188,49,o),
(175,49,cs),
(157,49,o),
(146,69,o),
(146,102,cs),
(146,478,l),
(217,478,l),
(217,540,l),
(146,540,l),
(146,673,l),
(100,673,l),
(73,540,l),
(20,540,l),
(20,478,l),
(70,478,l),
(70,118,ls),
(70,28,o),
(99,-15,o),
(160,-15,c,{
name = hr00;
})
);
},
{
closed = 1;
nodes = (
(231,319,l),
(-11,319,l),
(-11,269,l),
(231,269,l,{
name = hr00;
})
);
}
);
};
layerId = master01;
shapes = (
{
alignment = -1;
ref = t;
},
{
alignment = -1;
pos = (-81,-48);
ref = barra;
}
);
width = 239;
}
);
unicode = 359;
},
{
glyphname = tcaron;
lastChange = "2023-03-10 12:36:08 +0000";
layers = (
{
background = {
shapes = (
{
closed = 1;
nodes = (
(184,-15,o),
(208,-8,o),
(230,6,c),
(215,65,l),
(201,54,o),
(188,49,o),
(175,49,cs),
(157,49,o),
(146,69,o),
(146,102,cs),
(146,478,l),
(217,478,l),
(217,540,l),
(146,540,l),
(146,673,l),
(100,673,l),
(73,540,l),
(20,540,l),
(20,478,l),
(70,478,l),
(70,118,ls),
(70,28,o),
(99,-15,o),
(160,-15,c,{
name = hr00;
})
);
},
{
closed = 1;
nodes = (
(269,648,l),
(257,534,l),
(287,528,l),
(326,652,l),
(326,740,l),
(247,740,l),
(247,648,l,{
name = hr00;
})
);
}
);
};
layerId = master01;
shapes = (
{
ref = t;
},
{
pos = (-12,0);
ref = caroncomb;
}
);
width = 239;
}
);
unicode = 357;
},
{
glyphname = tcedilla;
lastChange = "2023-03-10 12:36:08 +0000";
layers = (
{
background = {
shapes = (
{
closed = 1;
nodes = (
(184,-15,o),
(208,-8,o),
(230,6,c),
(215,65,l),
(201,54,o),
(188,49,o),
(175,49,cs),
(157,49,o),
(146,69,o),
(146,102,cs),
(146,478,l),
(217,478,l),
(217,540,l),
(146,540,l),
(146,673,l),
(100,673,l),
(73,540,l),
(20,540,l),
(20,478,l),
(70,478,l),
(70,118,ls),
(70,28,o),
(99,-15,o),
(160,-15,c,{
name = hr00;
})
);
},
{
closed = 1;
nodes = (
(182,-195,o),
(203,-171,o),
(203,-122,cs),
(203,-83,o),
(187,-61,o),
(148,-49,c),
(153,0,l),
(122,0,l),
(112,-71,l),
(143,-80,o),
(156,-93,o),
(156,-114,cs),
(156,-124,ls),
(156,-146,o),
(151,-154,o),
(137,-154,cs),
(124,-154,o),
(119,-146,o),
(117,-120,c),
(76,-128,l),
(80,-173,o),
(100,-195,o),
(137,-195,c,{
name = hr00;
})
);
}
);
};
layerId = master01;
shapes = (
{
ref = t;
},
{
pos = (33,0);
ref = cedillacomb;
}
);
width = 239;
}
);
unicode = 355;
},
{
glyphname = tcommaaccent;
lastChange = "2023-03-10 12:36:08 +0000";
layers = (
{
background = {
shapes = (
{
closed = 1;
nodes = (
(184,-15,o),
(208,-8,o),
(230,6,c),
(215,65,l),
(201,54,o),
(188,49,o),
(175,49,cs),
(157,49,o),
(146,69,o),
(146,102,cs),
(146,478,l),
(217,478,l),
(217,540,l),
(146,540,l),
(146,673,l),
(100,673,l),
(73,540,l),
(20,540,l),
(20,478,l),
(70,478,l),
(70,118,ls),
(70,28,o),
(99,-15,o),
(160,-15,c,{
name = hr00;
})
);
},
{
closed = 1;
nodes = (
(97,-132,l),
(85,-216,l),
(115,-222,l),
(154,-128,l),
(154,-50,l),
(75,-50,l),
(75,-132,l,{
name = hr00;
})
);
}
);
};
layerId = master01;
shapes = (
{
ref = t;
},
{
pos = (38,0);
ref = commaaccentcomb;
}
);
width = 239;
}
);
unicode = 539;
},
{
glyphname = u;
lastChange = "2023-03-10 12:35:58 +0000";
layers = (
{
anchors = (
{
name = bottom;
pos = (196,0);
},
{
name = ogonek;
pos = (352,10);
},
{
name = top;
pos = (196,540);
},
{
name = topright;
pos = (371,540);
}
);
background = {
shapes = (
{
closed = 1;
nodes = (
(214,-15,o),
(249,15,o),
(264,66,c),
(280,0,l),
(327,0,l),
(327,540,l),
(251,540,l),
(251,145,ls),
(251,80,o),
(229,48,o),
(184,48,cs),
(147,48,o),
(132,76,o),
(132,143,cs),
(132,540,l,{
name = hr01;
}),
(56,540,l),
(56,149,ls),
(56,32,o),
(88,-15,o),
(167,-15,c)
);
}
);
};
layerId = master01;
shapes = (
{
closed = 1;
nodes = (
(214,-15,o),
(249,15,o),
(264,66,c),
(280,0,l),
(327,0,l),
(327,540,l),
(251,540,l),
(251,145,ls),
(251,80,o),
(229,48,o),
(184,48,cs),
(147,48,o),
(132,76,o),
(132,143,cs),
(132,540,l,{
name = hr01;
}),
(56,540,l),
(56,149,ls),
(56,32,o),
(88,-15,o),
(167,-15,c)
);
}
);
width = 391;
}
);
unicode = 117;
},
{
glyphname = uacute;
lastChange = "2023-03-10 12:36:08 +0000";
layers = (
{
background = {
shapes = (
{
closed = 1;
nodes = (
(214,-15,o),
(249,15,o),
(264,66,c),
(280,0,l),
(327,0,l),
(327,540,l),
(251,540,l),
(251,145,ls),
(251,80,o),
(229,48,o),
(184,48,cs),
(147,48,o),
(132,76,o),
(132,143,cs),
(132,540,l,{
name = hr01;
}),
(56,540,l),
(56,149,ls),
(56,32,o),
(88,-15,o),
(167,-15,c)
);
},
{
closed = 1;
nodes = (
(142,602,l),
(285,689,l),
(250,756,l),
(120,638,l,{
name = hr00;
})
);
}
);
};
layerId = master01;
shapes = (
{
ref = u;
},
{
pos = (51,0);
ref = acutecomb;
}
);
width = 391;
}
);
unicode = 250;
},
{
glyphname = ubreve;
lastChange = "2023-03-10 12:36:08 +0000";
layers = (
{
background = {
shapes = (
{
closed = 1;
nodes = (
(214,-15,o),
(249,15,o),
(264,66,c),
(280,0,l),
(327,0,l),
(327,540,l),
(251,540,l),
(251,145,ls),
(251,80,o),
(229,48,o),
(184,48,cs),
(147,48,o),
(132,76,o),
(132,143,cs),
(132,540,l,{
name = hr01;
}),
(56,540,l),
(56,149,ls),
(56,32,o),
(88,-15,o),
(167,-15,c)
);
},
{
closed = 1;
nodes = (
(204,613,ls),
(263,613,o),
(288,647,o),
(288,728,c),
(246,728,l),
(246,697,o),
(231,681,o),
(202,681,cs),
(188,681,ls),
(155,681,o),
(143,694,o),
(143,728,c),
(102,728,l),
(102,647,o),
(126,613,o),
(185,613,cs,{
name = hr00;
})
);
}
);
};
layerId = master01;
shapes = (
{
ref = u;
},
{
pos = (61,0);
ref = brevecomb;
}
);
width = 391;
}
);
unicode = 365;
},
{
glyphname = ucircumflex;
lastChange = "2023-03-10 12:36:08 +0000";
layers = (
{
background = {
shapes = (
{
closed = 1;
nodes = (
(214,-15,o),
(249,15,o),
(264,66,c),
(280,0,l),
(327,0,l),
(327,540,l),
(251,540,l),
(251,145,ls),
(251,80,o),
(229,48,o),
(184,48,cs),
(147,48,o),
(132,76,o),
(132,143,cs),
(132,540,l,{
name = hr01;
}),
(56,540,l),
(56,149,ls),
(56,32,o),
(88,-15,o),
(167,-15,c)
);
},
{
closed = 1;
nodes = (
(185,750,l),
(95,634,l),
(118,600,l),
(195,670,l),
(272,600,l),
(296,634,l),
(204,750,l,{
name = hr00;
})
);
}
);
};
layerId = master01;
shapes = (
{
ref = u;
},
{
pos = (64,0);
ref = circumflexcomb;
}
);
width = 391;
}
);
unicode = 251;
},
{
glyphname = udieresis;
lastChange = "2023-03-10 12:36:08 +0000";
layers = (
{
background = {
shapes = (
{
closed = 1;
nodes = (
(214,-15,o),
(249,15,o),
(264,66,c),
(280,0,l),
(327,0,l),
(327,540,l),
(251,540,l),
(251,145,ls),
(251,80,o),
(229,48,o),
(184,48,cs),
(147,48,o),
(132,76,o),
(132,143,cs),
(132,540,l,{
name = hr01;
}),
(56,540,l),
(56,149,ls),
(56,32,o),
(88,-15,o),
(167,-15,c)
);
},
{
closed = 1;
nodes = (
(166,646,l),
(166,740,l),
(85,740,l),
(85,646,l,{
name = hr00;
})
);
},
{
closed = 1;
nodes = (
(305,646,l),
(305,740,l),
(225,740,l),
(225,646,l)
);
}
);
};
layerId = master01;
shapes = (
{
ref = u;
},
{
pos = (32,0);
ref = dieresiscomb;
}
);
width = 391;
}
);
unicode = 252;
},
{
glyphname = ugrave;
lastChange = "2023-03-10 12:36:08 +0000";
layers = (
{
background = {
shapes = (
{
closed = 1;
nodes = (
(214,-15,o),
(249,15,o),
(264,66,c),
(280,0,l),
(327,0,l),
(327,540,l),
(251,540,l),
(251,145,ls),
(251,80,o),
(229,48,o),
(184,48,cs),
(147,48,o),
(132,76,o),
(132,143,cs),
(132,540,l,{
name = hr01;
}),
(56,540,l),
(56,149,ls),
(56,32,o),
(88,-15,o),
(167,-15,c)
);
},
{
closed = 1;
nodes = (
(256,602,l),
(113,689,l),
(148,756,l),
(278,638,l,{
name = hr00;
})
);
}
);
};
layerId = master01;
shapes = (
{
ref = u;
},
{
pos = (51,0);
ref = gravecomb;
}
);
width = 391;
}
);
unicode = 249;
},
{
glyphname = uhungarumlaut;
lastChange = "2023-03-10 12:36:08 +0000";
layers = (
{
background = {
shapes = (
{
closed = 1;
nodes = (
(214,-15,o),
(249,15,o),
(264,66,c),
(280,0,l),
(327,0,l),
(327,540,l),
(251,540,l),
(251,145,ls),
(251,80,o),
(229,48,o),
(184,48,cs),
(147,48,o),
(132,76,o),
(132,143,cs),
(132,540,l,{
name = hr01;
}),
(56,540,l),
(56,149,ls),
(56,32,o),
(88,-15,o),
(167,-15,c)
);
},
{
closed = 1;
nodes = (
(107,602,l),
(216,698,l),
(172,758,l),
(78,634,l,{
name = hr00;
})
);
},
{
closed = 1;
nodes = (
(244,602,l),
(353,698,l),
(309,758,l),
(215,634,l)
);
}
);
};
layerId = master01;
shapes = (
{
ref = u;
},
{
pos = (-5,0);
ref = hungarumlautcomb;
}
);
width = 391;
}
);
unicode = 369;
},
{
glyphname = umacron;
lastChange = "2023-03-10 12:36:08 +0000";
layers = (
{
background = {
shapes = (
{
closed = 1;
nodes = (
(214,-15,o),
(249,15,o),
(264,66,c),
(280,0,l),
(327,0,l),
(327,540,l),
(251,540,l),
(251,145,ls),
(251,80,o),
(229,48,o),
(184,48,cs),
(147,48,o),
(132,76,o),
(132,143,cs),
(132,540,l,{
name = hr01;
}),
(56,540,l),
(56,149,ls),
(56,32,o),
(88,-15,o),
(167,-15,c)
);
},
{
closed = 1;
nodes = (
(290,642,l),
(290,708,l),
(100,708,l),
(100,642,l,{
name = hr00;
})
);
}
);
};
layerId = master01;
shapes = (
{
ref = u;
},
{
pos = (69,0);
ref = macroncomb;
}
);
width = 391;
}
);
unicode = 363;
},
{
glyphname = uogonek;
lastChange = "2023-03-10 12:36:08 +0000";
layers = (
{
background = {
shapes = (
{
closed = 1;
nodes = (
(214,-15,o),
(249,15,o),
(264,66,c),
(280,0,l),
(327,0,l),
(327,540,l),
(251,540,l),
(251,145,ls),
(251,80,o),
(229,48,o),
(184,48,cs),
(147,48,o),
(132,76,o),
(132,143,cs),
(132,540,l,{
name = hr01;
}),
(56,540,l),
(56,149,ls),
(56,32,o),
(88,-15,o),
(167,-15,c)
);
},
{
closed = 1;
nodes = (
(335,-198,o),
(364,-163,o),
(382,-90,c),
(341,-81,l),
(328,-126,o),
(315,-144,o),
(297,-144,cs),
(285,-144,o),
(280,-133,o),
(280,-108,cs),
(280,-77,o),
(300,-32,o),
(327,0,c),
(280,0,l),
(242,-38,o),
(221,-79,o),
(221,-117,cs),
(221,-170,o),
(245,-198,o),
(290,-198,c,{
name = hr00;
})
);
}
);
};
layerId = master01;
shapes = (
{
ref = u;
},
{
pos = (149,10);
ref = ogonekcomb;
}
);
width = 391;
}
);
unicode = 371;
},
{
glyphname = uring;
lastChange = "2023-03-10 12:36:08 +0000";
layers = (
{
background = {
shapes = (
{
closed = 1;
nodes = (
(214,-15,o),
(249,15,o),
(264,66,c),
(280,0,l),
(327,0,l),
(327,540,l),
(251,540,l),
(251,145,ls),
(251,80,o),
(229,48,o),
(184,48,cs),
(147,48,o),
(132,76,o),
(132,143,cs),
(132,540,l,{
name = hr01;
}),
(56,540,l),
(56,149,ls),
(56,32,o),
(88,-15,o),
(167,-15,c)
);
},
{
closed = 1;
nodes = (
(248,586,o),
(271,616,o),
(271,683,cs),
(271,697,l),
(271,764,o),
(248,794,o),
(195,794,cs),
(142,794,o),
(119,764,o),
(119,697,cs),
(119,683,ls),
(119,616,o),
(142,586,o),
(195,586,c,{
name = hr00;
})
);
},
{
closed = 1;
nodes = (
(222,644,o),
(213,628,o),
(195,628,cs),
(177,628,o),
(168,644,o),
(168,677,cs),
(168,703,ls),
(168,736,o),
(177,752,o),
(195,752,cs),
(213,752,o),
(222,736,o),
(222,703,cs),
(222,677,l)
);
}
);
};
layerId = master01;
shapes = (
{
ref = u;
},
{
pos = (96,0);
ref = ringcomb;
}
);
width = 391;
}
);
unicode = 367;
},
{
glyphname = utilde;
lastChange = "2023-03-10 12:36:08 +0000";
layers = (
{
background = {
shapes = (
{
closed = 1;
nodes = (
(214,-15,o),
(249,15,o),
(264,66,c),
(280,0,l),
(327,0,l),
(327,540,l),
(251,540,l),
(251,145,ls),
(251,80,o),
(229,48,o),
(184,48,cs),
(147,48,o),
(132,76,o),
(132,143,cs),
(132,540,l,{
name = hr01;
}),
(56,540,l),
(56,149,ls),
(56,32,o),
(88,-15,o),
(167,-15,c)
);
},
{
closed = 1;
nodes = (
(263,707,o),
(250,700,o),
(236,700,cs),
(212,700,o),
(186,728,o),
(159,728,cs,{
name = hr01;
}),
(123,728,o),
(99,690,o),
(86,665,c),
(109,627,l),
(127,650,o),
(140,658,o),
(154,658,cs),
(178,658,o),
(204,629,o),
(231,629,cs,{
name = hr02;
}),
(267,629,o),
(290,668,o),
(304,692,c),
(280,730,l)
);
}
);
};
layerId = master01;
shapes = (
{
ref = u;
},
{
pos = (46,0);
ref = tildecomb;
}
);
width = 391;
}
);
unicode = 361;
},
{
glyphname = v;
lastChange = "2023-03-10 12:35:58 +0000";
layers = (
{
anchors = (
{
name = bottom;
pos = (171,0);
},
{
name = top;
pos = (171,540);
}
);
background = {
shapes = (
{
closed = 1;
nodes = (
(16,540,l),
(130,0,l),
(213,0,l),
(326,540,l),
(249,540,l),
(171,121,l),
(94,540,l,{
name = hr00;
})
);
}
);
};
layerId = master01;
shapes = (
{
closed = 1;
nodes = (
(16,540,l),
(130,0,l),
(213,0,l),
(326,540,l),
(249,540,l),
(171,121,l),
(94,540,l,{
name = hr00;
})
);
}
);
width = 342;
}
);
unicode = 118;
},
{
glyphname = w;
lastChange = "2023-03-10 12:35:58 +0000";
layers = (
{
anchors = (
{
name = bottom;
pos = (272,0);
},
{
name = top;
pos = (272,540);
}
);
background = {
shapes = (
{
closed = 1;
nodes = (
(422,0,l),
(520,540,l),
(445,540,l),
(380,137,l),
(310,540,l),
(233,540,l),
(165,136,l),
(100,540,l),
(24,540,l),
(123,0,l),
(200,0,l),
(272,420,l),
(344,0,l,{
name = hr00;
})
);
}
);
};
layerId = master01;
shapes = (
{
closed = 1;
nodes = (
(422,0,l),
(520,540,l),
(445,540,l),
(380,137,l),
(310,540,l),
(233,540,l),
(165,136,l),
(100,540,l),
(24,540,l),
(123,0,l),
(200,0,l),
(272,420,l),
(344,0,l,{
name = hr00;
})
);
}
);
width = 544;
}
);
unicode = 119;
},
{
glyphname = wacute;
lastChange = "2023-03-10 12:36:08 +0000";
layers = (
{
background = {
shapes = (
{
closed = 1;
nodes = (
(422,0,l),
(520,540,l),
(445,540,l),
(380,137,l),
(310,540,l),
(233,540,l),
(165,136,l),
(100,540,l),
(24,540,l),
(123,0,l),
(200,0,l),
(272,420,l),
(344,0,l,{
name = hr00;
})
);
},
{
closed = 1;
nodes = (
(211,602,l),
(354,689,l),
(319,756,l),
(189,638,l,{
name = hr00;
})
);
}
);
};
layerId = master01;
shapes = (
{
ref = w;
},
{
pos = (127,0);
ref = acutecomb;
}
);
width = 544;
}
);
unicode = 7811;
},
